<svg width="59" height="54" viewBox="0 0 59 54" fill="none" xmlns="http://www.w3.org/2000/svg">
<path d="M58.2987 14.9185C58.3526 14.9198 58.4058 14.9057 58.4519 14.8779C58.498 14.8501 58.5351 14.8098 58.5588 14.7617C58.5825 14.7136 58.5918 14.6598 58.5856 14.6066C58.5795 14.5534 58.5581 14.5031 58.524 14.4616L57.0098 12.5948C57.1169 12.586 57.2166 12.5375 57.2892 12.4589C57.3618 12.3804 57.4019 12.2775 57.4016 12.1709V11.3347C57.4016 11.2225 57.3569 11.1147 57.2773 11.035C57.1977 10.9552 57.0896 10.9099 56.9765 10.9089H55.6485L46.8145 0L29.1542 2.38401C29.1021 2.39111 29.053 2.41243 29.0124 2.44561C28.9718 2.47879 28.9412 2.52251 28.9242 2.57191C28.9071 2.62131 28.9042 2.67444 28.9158 2.72538C28.9273 2.77633 28.9529 2.82308 28.9897 2.86042L32.6506 6.58034C36.5049 5.61973 40.5673 5.90469 44.2471 7.39378C47.927 8.88288 51.0324 11.4985 53.1119 14.8602L56.146 14.8933V23.5776H55.0569V26.5041H55.576C55.576 26.4575 55.576 26.4108 55.576 26.3661C55.5935 26.0632 55.727 25.7785 55.9492 25.5702C56.1713 25.3619 56.4653 25.2459 56.7709 25.2459C57.0764 25.2459 57.3704 25.3619 57.5926 25.5702C57.8147 25.7785 57.9482 26.0632 57.9657 26.3661C57.9686 26.4121 57.9686 26.4582 57.9657 26.5041H58.4867V23.5776H57.3115V14.9088L58.2987 14.9185ZM56.8845 11.3911C56.9569 11.3911 57.0277 11.4125 57.088 11.4524C57.1482 11.4924 57.1952 11.5492 57.2229 11.6156C57.2506 11.6821 57.2579 11.7552 57.2437 11.8257C57.2296 11.8962 57.1947 11.961 57.1435 12.0119C57.0923 12.0628 57.027 12.0974 56.9559 12.1114C56.8849 12.1254 56.8112 12.1182 56.7443 12.0907C56.6774 12.0632 56.6202 12.0166 56.5799 11.9568C56.5397 11.897 56.5182 11.8267 56.5182 11.7548C56.5179 11.7069 56.5272 11.6595 56.5455 11.6153C56.5639 11.5711 56.5908 11.5309 56.6249 11.4971C56.659 11.4633 56.6994 11.4365 56.744 11.4183C56.7885 11.4001 56.8363 11.3909 56.8845 11.3911ZM56.052 14.621C55.9102 14.621 55.7716 14.5793 55.6537 14.5011C55.5358 14.4229 55.4439 14.3117 55.3897 14.1817C55.3354 14.0516 55.3212 13.9085 55.3489 13.7705C55.3765 13.6324 55.4448 13.5056 55.5451 13.4061C55.6453 13.3065 55.7731 13.2388 55.9121 13.2113C56.0512 13.1838 56.1953 13.1979 56.3263 13.2518C56.4573 13.3057 56.5693 13.3969 56.6481 13.5139C56.7269 13.631 56.7689 13.7686 56.7689 13.9093C56.7684 14.0979 56.6927 14.2787 56.5584 14.412C56.424 14.5454 56.242 14.6205 56.052 14.621Z" fill="url(#paint0_linear_1_186)"/>
<path d="M51.3451 14.8427L49.4823 19.4454C47.5483 16.7261 44.8635 14.6199 41.7513 13.3806C38.6392 12.1414 35.2325 11.8219 31.9416 12.4606L33.82 7.82483C37.1125 7.17017 40.526 7.48658 43.6395 8.73503C46.753 9.98348 49.4303 12.1094 51.3412 14.8505L51.3451 14.8427Z" fill="url(#paint1_linear_1_186)"/>
<path d="M49.5783 27.4492C49.5792 28.5783 49.4351 29.7029 49.1493 30.7958C48.4474 28.1165 46.9202 25.7217 44.7809 23.9459C42.6416 22.17 39.997 21.1017 37.2165 20.8903C36.8975 20.8434 36.5753 20.82 36.2528 20.8203C35.9705 20.8207 35.6885 20.8388 35.4086 20.8747C32.1453 21.2831 29.5323 24.0307 29.4892 27.3715C29.4892 27.177 29.4892 26.9942 29.5049 26.8075C29.637 24.1742 30.5549 21.6393 32.1418 19.5251C33.7288 17.4109 35.9132 15.8128 38.4172 14.9342C38.7914 14.8039 39.1753 14.6872 39.5631 14.59C42.045 15.2307 44.2888 16.5666 46.027 18.4382L46.1935 18.621L46.2073 18.6366C48.0364 20.6799 49.1832 23.2354 49.4901 25.9519C49.5234 26.2572 49.5489 26.5625 49.5626 26.8717C49.5744 27.0642 49.5783 27.2548 49.5783 27.4492Z" fill="url(#paint2_radial_1_186)"/>
<path d="M49.1493 30.7958C48.5452 33.0943 47.3321 35.1903 45.636 36.8659C43.9398 38.5415 41.8226 39.7356 39.5044 40.324C38.4236 40.5959 37.3129 40.7331 36.198 40.7324H32.302V40.3552C32.302 40.2015 32.3177 40.0499 32.3314 39.9001C32.4466 38.7335 32.863 37.616 33.5403 36.6558C34.2177 35.6955 35.133 34.9249 36.198 34.4185C36.3762 34.3329 36.5584 34.2571 36.7445 34.189C37.016 34.0888 37.2933 34.005 37.575 33.9382L37.7865 33.8934C39.2986 33.5402 40.6391 32.6743 41.5769 31.445C42.5147 30.2157 42.991 28.7 42.9237 27.1594C42.8564 25.6188 42.2497 24.1498 41.2082 23.0057C40.1667 21.8616 38.7557 21.1141 37.2185 20.8922C39.9984 21.1039 42.6424 22.1721 44.7812 23.9475C46.9201 25.723 48.4472 28.1171 49.1493 30.7958Z" fill="url(#paint3_radial_1_186)"/>
<path d="M39.567 14.5841C39.1753 14.6813 38.7953 14.798 38.4211 14.9283C35.9171 15.8069 33.7327 17.405 32.1457 19.5192C30.5588 21.6334 29.6409 24.1683 29.5088 26.8016V48.1411C29.3271 49.6889 28.6016 51.1237 27.4599 52.1931C26.3182 53.2625 24.8333 53.8982 23.2662 53.9883H22.8744V54H16.1598C17.9297 54 19.6271 53.302 20.8787 52.0595C22.1302 50.8171 22.8333 49.132 22.8333 47.3749V26.8347C22.8333 26.683 22.849 26.5313 22.8607 26.3816C22.955 25.2083 23.2066 24.0528 23.609 22.9456C23.8847 22.1834 24.2316 21.4484 24.6452 20.7502C26.1173 18.2501 28.371 16.2951 31.0642 15.1822C33.7573 14.0694 36.7427 13.8593 39.567 14.5841Z" fill="url(#paint4_radial_1_186)"/>
<path d="M6.71856 20.7891V47.3749H0V14.166H0.0470103C1.81642 14.166 3.51335 14.8638 4.76451 16.1059C6.01567 17.348 6.71856 19.0326 6.71856 20.7891Z" fill="url(#paint5_linear_1_186)"/>
<path d="M20.093 47.3749C20.0852 49.1346 19.3756 50.8197 18.1194 52.0613C16.8632 53.3029 15.1628 54 13.3901 54H6.70289C4.93041 53.9995 3.23024 53.3022 1.97416 52.0607C0.718074 50.8192 0.00828497 49.1345 0 47.3749L0 41.4868C0.200241 43.0967 0.986423 44.5783 2.21051 45.6528C3.4346 46.7272 5.01214 47.3203 6.64609 47.3204H6.71856V47.3768L20.093 47.3749Z" fill="url(#paint6_radial_1_186)"/>
<defs>
<linearGradient id="paint0_linear_1_186" x1="49.4255" y1="0.89449" x2="43.9333" y2="14.1691" gradientUnits="userSpaceOnUse">
<stop stop-color="#553BAD"/>
<stop offset="1" stop-color="#8865D1"/>
</linearGradient>
<linearGradient id="paint1_linear_1_186" x1="47.3571" y1="0.0388739" x2="41.8648" y2="13.3135" gradientUnits="userSpaceOnUse">
<stop stop-color="#553BAD"/>
<stop offset="1" stop-color="#8865D1"/>
</linearGradient>
<radialGradient id="paint2_radial_1_186" cx="0" cy="0" r="1" gradientUnits="userSpaceOnUse" gradientTransform="translate(29.7536 25.8372) scale(19.8109 19.6671)">
<stop offset="0.03" stop-color="#553BAD"/>
<stop offset="0.1" stop-color="#553BAD"/>
<stop offset="1" stop-color="#8865D1"/>
</radialGradient>
<radialGradient id="paint3_radial_1_186" cx="0" cy="0" r="1" gradientUnits="userSpaceOnUse" gradientTransform="translate(38.4643 21.1761) scale(19.2801 19.1402)">
<stop stop-color="#553BAD"/>
<stop offset="0.09" stop-color="#593FB0"/>
<stop offset="1" stop-color="#8865D1"/>
</radialGradient>
<radialGradient id="paint4_radial_1_186" cx="0" cy="0" r="1" gradientUnits="userSpaceOnUse" gradientTransform="translate(24.132 53.6208) scale(39.9882 39.6979)">
<stop stop-color="#553BAD"/>
<stop offset="1" stop-color="#8865D1"/>
</radialGradient>
<linearGradient id="paint5_linear_1_186" x1="5.99382" y1="47.233" x2="-0.312341" y2="14.5125" gradientUnits="userSpaceOnUse">
<stop stop-color="#553BAD"/>
<stop offset="1" stop-color="#8865D1"/>
</linearGradient>
<radialGradient id="paint6_radial_1_186" cx="0" cy="0" r="1" gradientUnits="userSpaceOnUse" gradientTransform="translate(19.8266 47.6044) scale(20.4495 20.301)">
<stop stop-color="#553BAD"/>
<stop offset="1" stop-color="#8865D1"/>
</radialGradient>
</defs>
</svg>
