<svg width="232" height="54" viewBox="0 0 232 54" fill="none" xmlns="http://www.w3.org/2000/svg">
<g clip-path="url(#clip0_662_535)">
<path d="M58.2986 14.9185C58.3525 14.9198 58.4057 14.9057 58.4517 14.8779C58.4978 14.8501 58.5349 14.8098 58.5586 14.7617C58.5824 14.7136 58.5917 14.6598 58.5855 14.6066C58.5793 14.5534 58.5579 14.5031 58.5238 14.4616L57.0097 12.5948C57.1167 12.586 57.2165 12.5375 57.2891 12.4589C57.3617 12.3804 57.4018 12.2775 57.4015 12.1709V11.3348C57.4015 11.2225 57.3568 11.1147 57.2772 11.035C57.1976 10.9552 57.0895 10.9099 56.9764 10.9089H55.6484L46.8143 0L29.1541 2.38401C29.102 2.39111 29.0529 2.41243 29.0123 2.44561C28.9717 2.47879 28.9411 2.52251 28.924 2.57191C28.907 2.62131 28.9041 2.67444 28.9156 2.72538C28.9272 2.77633 28.9528 2.82308 28.9896 2.86042L32.6505 6.58034C36.5047 5.61973 40.5671 5.90469 44.247 7.39378C47.9269 8.88288 51.0323 11.4985 53.1118 14.8602L56.1459 14.8933V23.5776H55.0568V26.5041H55.5759C55.5759 26.4575 55.5759 26.4108 55.5759 26.3661C55.5934 26.0632 55.7269 25.7785 55.949 25.5702C56.1712 25.3619 56.4652 25.2459 56.7707 25.2459C57.0763 25.2459 57.3703 25.3619 57.5925 25.5702C57.8146 25.7785 57.9481 26.0632 57.9656 26.3661C57.9685 26.4121 57.9685 26.4582 57.9656 26.5041H58.4866V23.5776H57.3114V14.9088L58.2986 14.9185ZM56.8843 11.3911C56.9568 11.3911 57.0276 11.4125 57.0878 11.4524C57.1481 11.4924 57.195 11.5492 57.2228 11.6156C57.2505 11.6821 57.2577 11.7552 57.2436 11.8257C57.2295 11.8962 57.1946 11.961 57.1434 12.0119C57.0921 12.0628 57.0269 12.0974 56.9558 12.1114C56.8848 12.1254 56.8111 12.1182 56.7442 12.0907C56.6772 12.0632 56.62 12.0166 56.5798 11.9568C56.5395 11.897 56.5181 11.8267 56.5181 11.7548C56.5178 11.7069 56.5271 11.6595 56.5454 11.6153C56.5637 11.5711 56.5907 11.5309 56.6248 11.4971C56.6588 11.4633 56.6993 11.4365 56.7439 11.4183C56.7884 11.4001 56.8362 11.3909 56.8843 11.3911ZM56.0519 14.621C55.9101 14.621 55.7715 14.5793 55.6536 14.5011C55.5357 14.4229 55.4438 14.3117 55.3895 14.1817C55.3353 14.0516 55.3211 13.9085 55.3487 13.7705C55.3764 13.6324 55.4447 13.5056 55.5449 13.4061C55.6452 13.3065 55.7729 13.2388 55.912 13.2113C56.0511 13.1838 56.1952 13.1979 56.3262 13.2518C56.4572 13.3057 56.5692 13.3969 56.648 13.5139C56.7267 13.631 56.7688 13.7686 56.7688 13.9093C56.7683 14.0979 56.6926 14.2787 56.5582 14.412C56.4239 14.5454 56.2419 14.6205 56.0519 14.621Z" fill="url(#paint0_linear_662_535)"/>
<path d="M51.3449 14.8426L49.4821 19.4453C47.5481 16.726 44.8633 14.6198 41.7511 13.3805C38.639 12.1413 35.2323 11.8217 31.9414 12.4605L33.8199 7.82471C37.1123 7.17005 40.5259 7.48646 43.6394 8.73491C46.7528 9.98336 49.4301 12.1092 51.341 14.8503L51.3449 14.8426Z" fill="url(#paint1_linear_662_535)"/>
<path d="M49.5783 27.4491C49.5793 28.5782 49.4351 29.7028 49.1494 30.7957C48.4475 28.1164 46.9203 25.7216 44.781 23.9457C42.6417 22.1699 39.9971 21.1016 37.2166 20.8902C36.8975 20.8432 36.5754 20.8198 36.2529 20.8202C35.9706 20.8205 35.6886 20.8387 35.4086 20.8746C32.1453 21.283 29.5324 24.0306 29.4893 27.3713C29.4893 27.1769 29.4893 26.9941 29.5049 26.8074C29.6371 24.174 30.5549 21.6391 32.1419 19.5249C33.7289 17.4107 35.9132 15.8127 38.4173 14.934C38.7914 14.8037 39.1753 14.6871 39.5632 14.5898C42.045 15.2306 44.2888 16.5664 46.0271 18.4381L46.1936 18.6209L46.2073 18.6364C48.0365 20.6797 49.1833 23.2353 49.4902 25.9518C49.5235 26.2571 49.549 26.5624 49.5627 26.8716C49.5744 27.0641 49.5783 27.2547 49.5783 27.4491Z" fill="url(#paint2_radial_662_535)"/>
<path d="M49.1491 30.7957C48.545 33.0942 47.3319 35.1902 45.6357 36.8658C43.9396 38.5414 41.8224 39.7355 39.5041 40.3239C38.4234 40.5958 37.3127 40.733 36.1977 40.7323H32.3018V40.355C32.3018 40.2014 32.3174 40.0497 32.3311 39.9C32.4464 38.7333 32.8628 37.6159 33.5401 36.6556C34.2174 35.6954 35.1328 34.9248 36.1977 34.4183C36.376 34.3328 36.5582 34.2569 36.7442 34.1889C37.0157 34.0887 37.2931 34.0049 37.5748 33.938L37.7863 33.8933C39.2983 33.5401 40.6389 32.6742 41.5767 31.4449C42.5145 30.2155 42.9908 28.6999 42.9235 27.1593C42.8562 25.6186 42.2494 24.1496 41.2079 23.0055C40.1664 21.8614 38.7554 21.114 37.2183 20.8921C39.9982 21.1038 42.6421 22.172 44.781 23.9474C46.9199 25.7229 48.447 28.117 49.1491 30.7957Z" fill="url(#paint3_radial_662_535)"/>
<path d="M39.5669 14.5839C39.1751 14.6812 38.7951 14.7978 38.421 14.9281C35.9169 15.8068 33.7326 17.4048 32.1456 19.519C30.5587 21.6332 29.6408 24.1681 29.5086 26.8015V48.1409C29.327 49.6888 28.6015 51.1235 27.4598 52.193C26.3181 53.2624 24.8331 53.898 23.2661 53.9882H22.8743V53.9999H16.1597C17.9296 53.9999 19.627 53.3019 20.8786 52.0594C22.1301 50.817 22.8332 49.1319 22.8332 47.3748V26.8346C22.8332 26.6829 22.8488 26.5312 22.8606 26.3815C22.9549 25.2082 23.2065 24.0527 23.6088 22.9455C23.8846 22.1832 24.2315 21.4482 24.645 20.7501C26.1172 18.2499 28.3709 16.295 31.0641 15.1821C33.7572 14.0692 36.7426 13.8592 39.5669 14.5839Z" fill="url(#paint4_radial_662_535)"/>
<path d="M6.71856 20.7891V47.3749H0V14.166H0.0470103C1.81642 14.166 3.51335 14.8638 4.76451 16.1059C6.01567 17.348 6.71856 19.0326 6.71856 20.7891Z" fill="url(#paint5_linear_662_535)"/>
<path d="M20.093 47.3749C20.0852 49.1346 19.3756 50.8197 18.1194 52.0613C16.8632 53.3029 15.1628 54 13.3901 54H6.70289C4.93041 53.9995 3.23024 53.3022 1.97416 52.0607C0.718074 50.8192 0.00828497 49.1345 0 47.3749L0 41.4868C0.200241 43.0967 0.986423 44.5783 2.21051 45.6528C3.4346 46.7272 5.01214 47.3203 6.64609 47.3204H6.71856V47.3768L20.093 47.3749Z" fill="url(#paint6_radial_662_535)"/>
<path d="M68.6841 44.5299V24.4836C68.5947 23.4364 68.1125 22.4608 67.3329 21.7499C66.5533 21.039 65.5333 20.6447 64.4747 20.645H64.4434V44.664C64.528 45.6451 64.9577 46.5654 65.6571 47.2636C66.3565 47.9619 67.281 48.3936 68.2688 48.4831H73.0619C74.0765 48.3978 75.0259 47.9513 75.735 47.2259C76.4442 46.5005 76.8653 45.545 76.9207 44.5357L68.6841 44.5299Z" fill="#553BAD"/>
<path d="M95.2412 40.1551H82.566C82.6744 41.5966 83.1464 42.7445 83.9822 43.5989C84.8179 44.4532 85.8894 44.8738 87.1965 44.8609C88.2138 44.8609 89.0554 44.6204 89.7214 44.1394C90.3873 43.6585 91.1317 42.7692 91.9544 41.4715L95.4057 43.3811C94.925 44.2094 94.3584 44.9856 93.7153 45.697C93.1564 46.3103 92.515 46.8442 91.8094 47.2838C91.1291 47.699 90.3876 48.0061 89.6117 48.1938C88.7731 48.3918 87.9135 48.4884 87.0516 48.4816C84.4112 48.4816 82.2924 47.639 80.6954 45.9537C79.0983 44.2684 78.2992 42.0212 78.2979 39.212C78.2979 36.4351 79.0729 34.1873 80.6229 32.4683C82.1899 30.7752 84.2597 29.9281 86.8322 29.9268C89.4347 29.9268 91.4934 30.75 93.0082 32.3963C94.5229 34.0427 95.2732 36.3113 95.2588 39.2022L95.2412 40.1551ZM91.0455 36.8377C90.4774 34.674 89.1063 33.5922 86.9321 33.5922C86.4565 33.589 85.9837 33.6652 85.5335 33.8178C85.1023 33.9643 84.7 34.1841 84.3446 34.4673C83.983 34.7527 83.6724 35.0965 83.4259 35.4843C83.1599 35.9049 82.9617 36.3641 82.8383 36.8454L91.0455 36.8377Z" fill="#553BAD"/>
<path d="M111.669 30.4184H115.773V47.9796H111.669V46.14C109.986 47.6957 108.176 48.4767 106.24 48.4832C103.792 48.4832 101.768 47.6062 100.167 45.8522C98.5848 44.0632 97.7935 41.8277 97.7935 39.1455C97.7935 36.5126 98.5868 34.3185 100.173 32.5632C100.911 31.7172 101.827 31.0429 102.856 30.5882C103.886 30.1335 105.003 29.9095 106.13 29.9322C108.188 29.9322 110.034 30.7749 111.669 32.4601V30.4184ZM101.972 39.1455C101.972 40.8308 102.425 42.2004 103.333 43.2543C103.761 43.7683 104.3 44.1798 104.911 44.4579C105.521 44.736 106.187 44.8736 106.859 44.8605C108.371 44.8605 109.594 44.342 110.527 43.3049C111.46 42.2354 111.926 40.8774 111.926 39.231C111.926 37.5847 111.46 36.2235 110.527 35.1475C109.595 34.1026 108.384 33.5802 106.896 33.5802C106.226 33.5686 105.563 33.705 104.953 33.9794C104.343 34.2538 103.802 34.6595 103.37 35.167C102.438 36.2442 101.972 37.5704 101.972 39.1455Z" fill="#553BAD"/>
<path d="M118.771 30.9181H122.857V32.4854C123.61 31.7076 124.276 31.1729 124.855 30.8812C125.512 30.5671 126.234 30.4125 126.963 30.4301C128.04 30.4301 129.166 30.7788 130.34 31.4762L128.469 35.1961C127.695 34.6439 126.938 34.3678 126.199 34.3678C123.971 34.3678 122.857 36.0381 122.857 39.3788V48.4832H118.771V30.9181Z" fill="#553BAD"/>
<path d="M133.247 30.9183H137.361V32.54C138.788 31.1335 140.398 30.4302 142.191 30.4302C144.249 30.4302 145.853 31.0732 147.003 32.3592C147.996 33.4533 148.493 35.2384 148.494 37.7144V48.4775H144.381V38.675C144.381 36.9444 144.138 35.7485 143.654 35.0874C143.17 34.4262 142.31 34.0898 141.076 34.0781C139.718 34.0781 138.756 34.5228 138.189 35.4121C137.622 36.3014 137.344 37.8344 137.353 40.0109V48.4833H133.239L133.247 30.9183Z" fill="#553BAD"/>
<path d="M171.749 30.9182H175.835V32.4855C176.585 31.7076 177.251 31.1729 177.832 30.8812C178.488 30.567 179.21 30.4123 179.938 30.4301C181.015 30.4301 182.142 30.7788 183.317 31.4762L181.446 35.1962C180.671 34.6439 179.914 34.3678 179.176 34.3678C176.947 34.3678 175.833 36.0381 175.835 39.3789V48.4832H171.749V30.9182Z" fill="#553BAD"/>
<path d="M201.514 40.1551H188.836C188.946 41.5966 189.418 42.7446 190.253 43.5989C191.087 44.4532 192.159 44.8738 193.469 44.8609C194.485 44.8609 195.326 44.6204 195.992 44.1394C196.658 43.6585 197.403 42.7692 198.227 41.4715L201.676 43.3811C201.197 44.2097 200.632 44.9859 199.99 45.697C199.43 46.3103 198.788 46.8443 198.082 47.2838C197.402 47.6987 196.661 48.0057 195.886 48.1938C195.049 48.3921 194.191 48.4894 193.33 48.4836C190.691 48.4836 188.572 47.6409 186.974 45.9556C185.375 44.2704 184.576 42.0231 184.576 39.2139C184.576 36.4371 185.351 34.1892 186.901 32.4702C188.468 30.7772 190.539 29.93 193.112 29.9287C195.715 29.9287 197.773 30.7519 199.286 32.3983C200.8 34.0447 201.551 36.3133 201.539 39.2042L201.514 40.1551ZM197.318 36.8377C196.749 34.674 195.374 33.5922 193.195 33.5922C192.72 33.5891 192.248 33.6654 191.798 33.8178C191.366 33.9643 190.963 34.1841 190.607 34.4673C190.247 34.7533 189.937 35.097 189.691 35.4843C189.424 35.9045 189.225 36.3639 189.103 36.8455L197.318 36.8377Z" fill="#553BAD"/>
<path d="M215.766 33.4112L212.387 35.1963C211.854 34.1151 211.195 33.5746 210.409 33.5746C210.051 33.5683 209.705 33.7008 209.445 33.944C209.315 34.0646 209.213 34.2113 209.146 34.3743C209.078 34.5374 209.047 34.7129 209.053 34.8891C209.053 35.5645 209.837 36.2321 211.404 36.8919C213.571 37.8176 215.031 38.6706 215.782 39.451C216.532 40.2314 216.908 41.2834 216.908 42.607C216.923 43.4097 216.762 44.206 216.436 44.9407C216.11 45.6754 215.626 46.3309 215.02 46.8616C213.803 47.9404 212.218 48.5201 210.587 48.4834C207.621 48.4834 205.521 47.047 204.286 44.1743L207.772 42.57C208.257 43.4127 208.626 43.9474 208.881 44.1743C209.36 44.6252 209.999 44.8717 210.659 44.8607C212.04 44.8607 212.73 44.2352 212.73 42.9842C212.73 42.2634 212.197 41.5906 211.132 40.9658C210.72 40.7622 210.309 40.5639 209.897 40.3707C209.486 40.1763 209.067 39.9818 208.644 39.7757C207.457 39.1988 206.622 38.6219 206.139 38.0451C205.52 37.3113 205.211 36.3676 205.212 35.2138C205.192 34.5078 205.322 33.8054 205.594 33.1529C205.867 32.5004 206.275 31.9125 206.793 31.4278C207.851 30.4385 209.258 29.9014 210.71 29.9324C212.979 29.9324 214.664 31.092 215.766 33.4112Z" fill="#553BAD"/>
<path d="M230.856 33.4112L227.479 35.1963C226.947 34.1151 226.286 33.5745 225.499 33.5745C225.142 33.5675 224.797 33.7002 224.537 33.944C224.408 34.0645 224.306 34.2113 224.238 34.3743C224.171 34.5373 224.139 34.7129 224.146 34.889C224.146 35.5644 224.929 36.2321 226.496 36.8919C228.665 37.8175 230.124 38.6705 230.874 39.4509C231.623 40.2313 231.998 41.2833 231.998 42.6069C232.014 43.4097 231.853 44.2061 231.527 44.9409C231.2 45.6757 230.717 46.3311 230.11 46.8616C228.894 47.9406 227.31 48.5203 225.679 48.4833C222.714 48.4833 220.613 47.047 219.378 44.1742L222.865 42.57C223.348 43.4126 223.717 43.9474 223.971 44.1742C224.452 44.625 225.091 44.8713 225.752 44.8607C227.133 44.8607 227.823 44.2352 227.822 42.9842C227.822 42.2634 227.289 41.5906 226.224 40.9657C225.812 40.7622 225.401 40.5639 224.99 40.3707C224.578 40.1775 224.161 39.9792 223.736 39.7757C222.549 39.1988 221.713 38.6219 221.229 38.045C220.611 37.3113 220.303 36.3675 220.304 35.2138C220.304 33.6867 220.831 32.4246 221.883 31.4277C222.941 30.4388 224.348 29.9018 225.801 29.9324C228.07 29.9324 229.755 31.092 230.856 33.4112Z" fill="#553BAD"/>
<path d="M169.071 28.8879C169.071 31.3121 168.292 33.2567 166.736 34.7216C166.655 34.7993 166.575 34.8713 166.491 34.9452C164.771 36.4347 162.453 37.1801 159.535 37.1814H158.936C158.936 37.1056 158.936 37.0297 158.936 36.952C158.936 36.0774 159.211 35.2246 159.724 34.5133C160.236 33.8019 160.96 33.2675 161.794 32.9851C161.909 32.9559 162.023 32.9209 162.133 32.884C164.037 32.2617 164.989 30.9109 164.989 28.8315C164.989 26.7314 163.918 25.4001 161.776 24.8374C160.861 24.6132 159.921 24.508 158.979 24.5244H157.579V44.5298C157.518 45.5993 157.047 46.6051 156.263 47.3407C155.479 48.0762 154.44 48.4857 153.361 48.485H153.348V24.3727C153.457 23.3859 153.915 22.4695 154.64 21.7862C155.366 21.103 156.312 20.6973 157.31 20.6411H158.143C160.493 20.6411 162.267 20.8038 163.463 21.1292C164.673 21.452 165.775 22.0858 166.659 22.9668C168.266 24.5341 169.069 26.5078 169.071 28.8879Z" fill="#553BAD"/>
</g>
<defs>
<linearGradient id="paint0_linear_662_535" x1="49.4254" y1="0.89449" x2="43.9331" y2="14.1691" gradientUnits="userSpaceOnUse">
<stop stop-color="#553BAD"/>
<stop offset="1" stop-color="#8865D1"/>
</linearGradient>
<linearGradient id="paint1_linear_662_535" x1="47.3569" y1="0.0387518" x2="41.8646" y2="13.3134" gradientUnits="userSpaceOnUse">
<stop stop-color="#553BAD"/>
<stop offset="1" stop-color="#8865D1"/>
</linearGradient>
<radialGradient id="paint2_radial_662_535" cx="0" cy="0" r="1" gradientUnits="userSpaceOnUse" gradientTransform="translate(29.7537 25.8371) scale(19.8109 19.6671)">
<stop offset="0.03" stop-color="#553BAD"/>
<stop offset="0.1" stop-color="#553BAD"/>
<stop offset="1" stop-color="#8865D1"/>
</radialGradient>
<radialGradient id="paint3_radial_662_535" cx="0" cy="0" r="1" gradientUnits="userSpaceOnUse" gradientTransform="translate(38.464 21.176) scale(19.2801 19.1402)">
<stop stop-color="#553BAD"/>
<stop offset="0.09" stop-color="#593FB0"/>
<stop offset="1" stop-color="#8865D1"/>
</radialGradient>
<radialGradient id="paint4_radial_662_535" cx="0" cy="0" r="1" gradientUnits="userSpaceOnUse" gradientTransform="translate(24.1318 53.6207) scale(39.9882 39.6979)">
<stop stop-color="#553BAD"/>
<stop offset="1" stop-color="#8865D1"/>
</radialGradient>
<linearGradient id="paint5_linear_662_535" x1="5.99382" y1="47.233" x2="-0.312341" y2="14.5125" gradientUnits="userSpaceOnUse">
<stop stop-color="#553BAD"/>
<stop offset="1" stop-color="#8865D1"/>
</linearGradient>
<radialGradient id="paint6_radial_662_535" cx="0" cy="0" r="1" gradientUnits="userSpaceOnUse" gradientTransform="translate(19.8266 47.6044) scale(20.4495 20.301)">
<stop stop-color="#553BAD"/>
<stop offset="1" stop-color="#8865D1"/>
</radialGradient>
<clipPath id="clip0_662_535">
<rect width="232" height="54" fill="white"/>
</clipPath>
</defs>
</svg>
