<svg xmlns="http://www.w3.org/2000/svg" width="55" height="52" viewBox="0 0 55 52" fill="none"><path d="M52.0551 13.3003L48.5874 11.3431V7.59214C48.5874 5.87111 47.1872 4.47093 45.4662 4.47093H43.1811C42.7405 4.47093 42.3832 4.82815 42.3832 5.26878C42.3832 5.70941 42.7405 6.06664 43.1811 6.06664H45.4662C46.3073 6.06664 46.9917 6.75099 46.9917 7.59214V22.9336L33.981 32.2221L29.7651 29.2124C28.2513 28.1321 26.2162 28.132 24.7008 29.2125L20.4858 32.2216L7.47539 22.9332V7.59214C7.47539 6.75099 8.1607 6.06664 9.00302 6.06664H39.545C39.9856 6.06664 40.3429 5.70941 40.3429 5.26878C40.3429 4.82815 39.9856 4.47093 39.545 4.47093H36.4092L29.564 0.607701C28.1264 -0.202603 26.3404 -0.202603 24.9025 0.607914L18.0576 4.47093H9.00302C7.28082 4.47093 5.87968 5.87111 5.87968 7.59214V11.3432L2.4123 13.3002C0.924344 14.1394 0 15.7223 0 17.4313V33.2023C0 33.6429 0.357227 34.0002 0.797857 34.0002C1.23849 34.0002 1.59571 33.6429 1.59571 33.2023V20.6964L19.1126 33.202L1.59571 45.7074V36.9256C1.59571 36.485 1.23849 36.1278 0.797857 36.1278C0.357227 36.1278 0 36.485 0 36.9256V47.2574C0 49.8724 2.12751 51.9998 4.74246 51.9998H49.7246C52.3397 51.9998 54.4671 49.8723 54.4671 47.2574V17.4313C54.4671 15.7223 53.5427 14.1394 52.0551 13.3003ZM25.6864 1.99778C26.6407 1.45981 27.8262 1.45981 28.7802 1.99757L33.1627 4.47093H21.3044L25.6864 1.99778ZM1.59571 17.4313C1.59571 16.2972 2.209 15.2469 3.19632 14.69L5.87968 13.1756V21.7941L1.59571 18.7357V17.4313ZM48.5874 13.1756L51.271 14.6902C52.2581 15.2469 52.8713 16.2972 52.8713 17.4313V18.736L48.5874 21.7944V13.1756ZM49.7246 50.4041H4.74246C3.14037 50.4041 1.81507 49.2004 1.62103 47.6499L25.6276 30.5115C26.5883 29.8265 27.8784 29.8265 28.838 30.5113L36.4155 35.9208C36.7741 36.1768 37.2724 36.0935 37.5283 35.7349C37.7844 35.3763 37.7012 34.878 37.3425 34.6221L35.354 33.2025L52.8713 20.6966V45.7074L40.3436 36.7645C39.9851 36.5084 39.4867 36.5916 39.2306 36.9503C38.9747 37.3089 39.0578 37.8072 39.4165 38.0632L52.8459 47.6498C52.652 49.2003 51.3267 50.4041 49.7246 50.4041Z" fill="#FF782D"></path><path d="M32.6294 12.6211C32.4412 12.0419 31.9498 11.6277 31.3471 11.5401L29.491 11.2735L28.6585 9.58669C28.3889 9.04053 27.8431 8.70117 27.2341 8.70117C26.6249 8.70117 26.0792 9.04042 25.8096 9.58669L24.9826 11.2696L23.1211 11.5401C22.5183 11.6276 22.027 12.0419 21.8387 12.6211C21.6504 13.2003 21.8045 13.8243 22.2406 14.2495L23.5856 15.556L23.2677 17.4102C23.1647 18.0105 23.4069 18.6058 23.8996 18.9637C24.3923 19.3217 25.0333 19.3681 25.5724 19.0847L27.2307 18.2093L28.8957 19.0847C29.1302 19.208 29.3839 19.2688 29.6364 19.2688C29.9643 19.2688 30.2902 19.1661 30.5686 18.9637C31.0613 18.6058 31.3035 18.0105 31.2005 17.4102L30.8804 15.5625L32.2275 14.2495C32.6636 13.8243 32.8176 13.2003 32.6294 12.6211ZM29.7666 14.4198C29.3921 14.7848 29.2214 15.3104 29.3098 15.8258L29.625 17.6653L27.9732 16.7969C27.7418 16.6752 27.4879 16.6144 27.2341 16.6144C26.9801 16.6144 26.7263 16.6753 26.4948 16.7969L24.8428 17.6652L25.1583 15.8259C25.2467 15.3105 25.0759 14.7849 24.7015 14.4199L23.3652 13.117L25.2121 12.8488C25.7295 12.7734 26.1766 12.4487 26.408 11.9798L27.2342 10.3065L28.0601 11.9797C28.2915 12.4487 28.7385 12.7734 29.2562 12.8488L31.103 13.1173L29.7666 14.4198Z" fill="#FF782D"></path><path d="M40.3341 22.9644C40.3341 22.5237 39.9769 22.1665 39.5362 22.1665H14.9287C14.4881 22.1665 14.1309 22.5237 14.1309 22.9644C14.1309 23.405 14.4881 23.7622 14.9287 23.7622H39.5362C39.9769 23.7622 40.3341 23.405 40.3341 22.9644Z" fill="#FF782D"></path><path d="M19.4072 25.5537C18.9666 25.5537 18.6094 25.9109 18.6094 26.3516C18.6094 26.7922 18.9666 27.1494 19.4072 27.1494H35.0612C35.5018 27.1494 35.8591 26.7922 35.8591 26.3516C35.8591 25.9109 35.5018 25.5537 35.0612 25.5537H19.4072Z" fill="#FF782D"></path></svg>