<svg xmlns="http://www.w3.org/2000/svg" width="55" height="52" viewBox="0 0 55 52" fill="none"><path d="M50.6849 0.708984H31.098C30.6573 0.708984 30.3002 1.06609 30.3002 1.5068C30.3002 1.94752 30.6573 2.30462 31.098 2.30462H50.6849C51.8902 2.30462 52.8709 3.28529 52.8709 4.49064V25.0351C52.8709 26.2404 51.8902 27.2211 50.6849 27.2211H47.5564C47.3883 27.2211 47.2245 27.2742 47.0885 27.3728L41.6483 31.313V28.0189C41.6483 27.5782 41.2912 27.2211 40.8505 27.2211H23.5336C22.3282 27.2211 21.3476 26.2404 21.3476 25.0351V4.49064C21.3476 3.28529 22.3283 2.30462 23.5336 2.30462H27.6216C28.0623 2.30462 28.4194 1.94752 28.4194 1.5068C28.4194 1.06609 28.0623 0.708984 27.6216 0.708984H23.5336C21.4483 0.708984 19.752 2.40536 19.752 4.49064V25.0351C19.752 27.1203 21.4484 28.8167 23.5336 28.8167H40.0527V32.876C40.0527 33.1758 40.2207 33.4502 40.4877 33.5866C40.7707 33.7215 41.0476 33.7 41.3185 33.5222L47.815 28.8168H50.6849C52.7702 28.8168 54.4666 27.1204 54.4666 25.0352V4.49064C54.4666 2.40546 52.7701 0.708984 50.6849 0.708984Z" fill="#FF782D"></path><path d="M46.3367 42.8791C46.1703 41.69 45.4704 40.6791 44.4145 40.1037L40.8666 38.1708C40.4797 37.9596 39.9952 38.1026 39.7844 38.4898C39.5737 38.8767 39.7165 39.3612 40.1035 39.5719L43.6509 41.5048C44.2579 41.8354 44.6601 42.416 44.7562 43.0988C44.7568 43.1032 44.7573 43.1076 44.7579 43.1118C44.851 43.8015 44.6162 44.4744 44.1142 44.9571L43.5912 45.4592L30.4936 38.0894L32.0329 36.7354C32.6895 36.1577 33.6454 36.051 34.4123 36.4699L36.626 37.6763C37.0128 37.8871 37.4974 37.7445 37.7083 37.3575C37.9191 36.9706 37.7765 36.4861 37.3895 36.2752L35.1764 35.0691C33.8239 34.3306 32.1369 34.5186 30.9791 35.5372L27.392 38.6924C26.6573 39.3387 25.5849 39.3987 24.7844 38.838C19.3814 35.0528 15.4577 30.8886 12.7892 26.108C12.3392 25.3008 12.465 24.3054 13.1018 23.631L15.9412 20.6279C17 19.507 17.2481 17.8276 16.5588 16.449L11.7807 6.89263C11.2484 5.82664 10.2708 5.09233 9.09861 4.87787C7.92571 4.66299 6.75079 5.00414 5.87468 5.81313L4.05992 7.48971C2.05389 9.34278 0.726318 11.7392 0.220821 14.4197C-0.285633 17.1046 0.0829585 19.813 1.2866 22.253C1.29192 22.2643 1.29692 22.2741 1.30107 22.2822C2.06378 23.8246 2.88851 25.3329 3.75079 26.7627C3.89471 27.0034 4.04992 27.2576 4.21182 27.5185C4.44425 27.8928 4.93603 28.0079 5.31047 27.7755C5.6848 27.5431 5.7999 27.0512 5.56758 26.6769C5.41025 26.4234 5.25962 26.1766 5.11867 25.9411C4.27873 24.5483 3.47645 23.0812 2.73405 21.5803C2.7299 21.5716 2.72565 21.5631 2.72129 21.5546C0.623985 17.3109 1.56105 12.104 4.98815 8.81047L12.1831 22.2804L11.9421 22.5353C10.8242 23.7186 10.6046 25.4668 11.3957 26.8855C14.1843 31.8814 18.2642 36.2186 23.869 40.145C24.5123 40.5955 25.2554 40.8178 25.9958 40.8178C26.8731 40.8178 27.7467 40.5055 28.4459 39.8905L29.2242 39.2059L42.3891 46.6135L42.3758 46.6262C38.9824 49.8864 33.899 50.6284 29.7268 48.4724C20.6831 43.7978 13.3313 37.6185 7.8754 30.1064C7.61637 29.7499 7.11747 29.6706 6.761 29.9297C6.40443 30.1888 6.3254 30.6876 6.58432 31.0441C12.1878 38.7593 19.7274 45.1001 28.9939 49.8902C30.818 50.8327 32.7931 51.2918 34.7553 51.2918C37.9344 51.2918 41.0782 50.0858 43.4809 47.7773L45.2195 46.1079C46.0867 45.274 46.4952 44.115 46.3425 42.9243C46.341 42.9091 46.339 42.8942 46.3367 42.8791ZM6.19721 7.68747L6.95737 6.98528C7.46117 6.5201 8.13665 6.32426 8.81139 6.44745C9.48518 6.57073 10.0472 6.99283 10.3533 7.60598L15.1317 17.1628C15.5225 17.9444 15.3817 18.8967 14.7815 19.5321L13.339 21.0578L6.19721 7.68747Z" fill="#FF782D"></path><path d="M48.0347 15.5194C48.0347 13.9827 46.7845 12.7324 45.2478 12.7324C43.7112 12.7324 42.4609 13.9827 42.4609 15.5194C42.4609 17.056 43.7112 18.3062 45.2478 18.3062C46.7845 18.3062 48.0347 17.056 48.0347 15.5194ZM44.0565 15.5194C44.0565 14.8625 44.5908 14.3281 45.2477 14.3281C45.9045 14.3281 46.439 14.8625 46.439 15.5194C46.439 16.1762 45.9045 16.7105 45.2477 16.7105C44.5908 16.7105 44.0565 16.1762 44.0565 15.5194Z" fill="#FF782D"></path><path d="M39.896 15.5194C39.896 13.9827 38.6458 12.7324 37.1092 12.7324C35.5725 12.7324 34.3223 13.9827 34.3223 15.5194C34.3223 17.056 35.5725 18.3062 37.1092 18.3062C38.6458 18.3062 39.896 17.056 39.896 15.5194ZM35.9178 15.5194C35.9178 14.8625 36.4522 14.3281 37.1091 14.3281C37.766 14.3281 38.3003 14.8625 38.3003 15.5194C38.3003 16.1762 37.766 16.7105 37.1091 16.7105C36.4522 16.7105 35.9178 16.1762 35.9178 15.5194Z" fill="#FF782D"></path><path d="M26.1836 15.5194C26.1836 17.056 27.4337 18.3062 28.9705 18.3062C30.5073 18.3062 31.7575 17.056 31.7575 15.5194C31.7575 13.9827 30.5072 12.7324 28.9705 12.7324C27.4338 12.7324 26.1836 13.9827 26.1836 15.5194ZM28.9705 14.3281C29.6274 14.3281 30.1618 14.8625 30.1618 15.5194C30.1618 16.1762 29.6274 16.7105 28.9705 16.7105C28.3137 16.7105 27.7793 16.1762 27.7793 15.5194C27.7793 14.8625 28.3137 14.3281 28.9705 14.3281Z" fill="#FF782D"></path></svg>