<svg width="98" height="81" viewBox="0 0 98 81" fill="none" xmlns="http://www.w3.org/2000/svg">
<path d="M95.6247 44.0692C95.3849 43.4632 94.699 43.1669 94.0943 43.4066C93.4886 43.6462 93.1921 44.3314 93.4317 44.937C94.5539 47.7729 95.1231 50.7713 95.1231 53.8492C95.1231 67.2112 84.2523 78.0821 70.8905 78.0821C57.5285 78.0821 46.6576 67.2112 46.6576 53.8492C46.6576 53.5901 46.6628 53.3296 46.6712 53.0695C48.1134 52.902 49.5321 52.6174 50.9166 52.2201C50.8731 52.7616 50.8507 53.306 50.8507 53.8492C50.8507 64.8992 59.8405 73.889 70.8905 73.889C81.9402 73.889 90.93 64.8992 90.93 53.8492C90.93 42.7993 81.9402 33.8094 70.8903 33.8094C70.3151 33.8094 69.7392 33.834 69.1663 33.8829C69.5552 32.4989 69.8319 31.0786 69.9923 29.6329C70.2919 29.6221 70.5919 29.6163 70.8903 29.6163C79.231 29.6163 86.8838 33.8262 91.3616 40.8779C91.5863 41.2316 91.968 41.425 92.3582 41.425C92.5744 41.425 92.7933 41.3656 92.9894 41.2411C93.5392 40.892 93.7018 40.1634 93.3528 39.6133C88.4398 31.8766 80.0427 27.2575 70.8905 27.2575C70.6447 27.2575 70.3978 27.2621 70.1511 27.2689C70.1557 27.0652 70.1585 26.8615 70.1585 26.6571C70.1585 11.9946 58.2296 0.0656738 43.5671 0.0656738C35.0822 0.0656738 27.1668 4.08988 22.1503 10.8955C21.7638 11.4197 21.8756 12.1579 22.3998 12.5444C22.9241 12.9309 23.6623 12.8193 24.0488 12.2949C28.485 6.27659 35.597 2.42425 43.5671 2.42425C56.9291 2.42425 67.7999 13.2951 67.7999 26.6571C67.7999 33.0477 65.3329 39.0783 60.8528 43.638C60.3964 44.1025 60.403 44.8492 60.8676 45.3055C61.0972 45.5313 61.3956 45.6436 61.694 45.6436C61.9992 45.6436 62.3044 45.5258 62.5353 45.2908C65.0896 42.691 67.046 39.6547 68.3377 36.3543C69.1795 36.2327 70.0354 36.1675 70.8905 36.1675C80.6399 36.1675 88.5714 44.0992 88.5714 53.8486C88.5714 63.598 80.6399 71.5298 70.8905 71.5298C61.141 71.5298 53.2091 63.5985 53.2091 53.8492C53.2091 53.0219 53.2702 52.1932 53.384 51.3781C55.2701 50.6279 57.075 49.6576 58.7678 48.4762C59.302 48.1034 59.4328 47.3684 59.06 46.8344C58.6872 46.3004 57.9521 46.1694 57.4179 46.5422C53.3423 49.3868 48.5527 50.8903 43.567 50.8903C30.205 50.8902 19.3342 40.0193 19.3342 26.6574C19.3342 22.9934 20.1314 19.4731 21.7036 16.1938C21.9852 15.6067 21.7374 14.9022 21.1501 14.6206C20.563 14.3388 19.8584 14.5868 19.5769 15.1742C17.8508 18.7741 16.9756 22.6377 16.9756 26.6574C16.9756 41.3199 28.9045 53.2488 43.567 53.2488C43.8149 53.2488 44.0624 53.2442 44.3095 53.2374C44.3049 53.4415 44.2989 53.6459 44.2989 53.8492C44.2989 68.5117 56.2278 80.4406 70.8903 80.4406C85.5528 80.4406 97.4815 68.5117 97.4815 53.8492C97.4817 50.4729 96.8568 47.1825 95.6247 44.0692Z" fill="#FF782D"/>
<path d="M43.5671 46.697C54.617 46.697 63.6068 37.7072 63.6068 26.6573C63.6068 15.6073 54.617 6.61755 43.5671 6.61755C32.5171 6.61755 23.5273 15.6073 23.5273 26.6573C23.5273 37.7072 32.5171 46.697 43.5671 46.697ZM43.5671 8.97613C53.3165 8.97613 61.2482 16.9079 61.2482 26.6573C61.2482 36.4067 53.3165 44.3384 43.5671 44.3384C33.8177 44.3384 25.8859 36.4067 25.8859 26.6573C25.8859 16.9079 33.8177 8.97613 43.5671 8.97613Z" fill="#FF782D"/>
<path d="M38.2027 35.064C39.7894 36.1021 40.8689 36.4027 42.2769 36.4761V37.8645C42.2769 38.516 42.8049 39.0438 43.4562 39.0438C44.1075 39.0438 44.6355 38.516 44.6355 37.8645V36.3843C47.4072 35.8613 49.0259 33.5858 49.3832 31.4602C49.8396 28.7447 48.4188 26.3838 45.7634 25.4451C45.3929 25.3141 45.0135 25.1765 44.6355 25.0331V19.0862C45.6109 19.3025 46.1936 19.798 46.2433 19.8416C46.7222 20.276 47.4628 20.2435 47.9021 19.7673C48.3437 19.2885 48.3135 18.5424 47.8349 18.1008C47.7647 18.0363 46.5776 16.9677 44.6357 16.691V15.45C44.6357 14.7986 44.1077 14.2708 43.4564 14.2708C42.8051 14.2708 42.2771 14.7986 42.2771 15.45V16.7814C42.0813 16.8232 41.8821 16.8729 41.6783 16.9342C39.932 17.4603 38.627 18.9555 38.2724 20.8362C37.9496 22.5495 38.4971 24.2005 39.7014 25.1449C40.3511 25.6545 41.162 26.1212 42.2769 26.6154V34.1149C41.281 34.0496 40.6104 33.8202 39.494 33.0898C38.949 32.7334 38.218 32.8857 37.8615 33.4312C37.5049 33.9765 37.6577 34.7073 38.2027 35.064ZM41.1569 23.2895C40.6483 22.8904 40.431 22.1179 40.5902 21.2735C40.7358 20.501 41.2563 19.5689 42.2771 19.2214V23.9971C41.8538 23.7719 41.4716 23.5363 41.1569 23.2895ZM44.9774 27.6689C47.2998 28.4898 47.1564 30.479 47.0573 31.0693C46.8608 32.2385 46.0371 33.4818 44.6355 33.9473V27.5464C44.7483 27.587 44.8604 27.6274 44.9774 27.6689Z" fill="#FF782D"/>
<path d="M63.7779 53.0392C63.1265 53.0392 62.5986 53.5671 62.5986 54.2185C62.5986 54.8699 63.1265 55.3978 63.7779 55.3978H67.1696L67.2364 55.973C67.4867 58.2125 67.3183 59.0904 65.5835 61.4188L63.8925 63.5448C63.612 63.8976 63.557 64.3797 63.7512 64.7865C63.9454 65.1933 64.3544 65.4541 64.8052 65.4581L77.9915 65.5747H78.002C78.6484 65.5747 79.1753 65.0537 79.1812 64.4058C79.1868 63.7546 78.6635 63.222 78.0122 63.2162L67.2431 63.121L67.441 62.8724C67.4485 62.8627 67.456 62.8531 67.4633 62.8434C69.4767 60.144 69.9118 58.6776 69.5797 55.7057L69.5439 55.3976H73.0386C73.6901 55.3976 74.2179 54.8698 74.2179 54.2184C74.2179 53.5669 73.6901 53.0391 73.0386 53.0391H69.0184C68.5938 52.4282 67.049 50.0608 67.0581 47.9667C67.0581 47.9651 67.0579 47.9636 67.0579 47.962C67.0579 47.9604 67.0581 47.959 67.0581 47.9574C67.0537 46.727 67.6106 45.7874 68.7132 45.1647C70.3036 44.2672 72.782 44.2573 74.2384 45.1427C75.3898 45.8426 76.2326 46.8077 76.4925 47.7241C76.6702 48.3505 77.3231 48.7144 77.9489 48.5367C78.5753 48.359 78.9393 47.7071 78.7615 47.0804C78.3371 45.5841 77.135 44.1433 75.4636 43.1272C73.2844 41.8022 69.8836 41.7949 67.5535 43.1109C65.7112 44.1513 64.6986 45.8685 64.7 47.9472C64.7 47.9504 64.6995 47.9533 64.6995 47.9563C64.6995 47.9582 64.6997 47.9603 64.6997 47.9621C64.6997 47.9632 64.6995 47.9643 64.6995 47.9655C64.6995 47.9667 64.6997 47.968 64.6997 47.9692C64.6954 49.8485 65.5305 51.7538 66.245 53.0388H63.7779V53.0392Z" fill="#FF782D"/>
<path d="M74.0426 9.19207H81.2592V18.2272L78.5508 15.9717C78.0501 15.5552 77.3067 15.623 76.8898 16.1233C76.4732 16.6239 76.5409 17.3674 77.0414 17.7842L81.6837 21.6501C81.9024 21.832 82.1704 21.923 82.4385 21.923C82.7064 21.923 82.9745 21.832 83.1931 21.6501L87.8355 17.7842C88.3362 17.3675 88.4039 16.6238 87.9873 16.1235C87.5704 15.6225 86.8267 15.5552 86.3265 15.9717L83.6178 18.2273V8.01278C83.6178 7.36135 83.0899 6.8335 82.4385 6.8335H74.0426C73.3911 6.8335 72.8633 7.36135 72.8633 8.01278C72.8633 8.66422 73.3913 9.19207 74.0426 9.19207Z" fill="#FF782D"/>
<path d="M40.4149 71.446H33.1983V62.411L35.9067 64.6664C36.4071 65.0829 37.1508 65.0153 37.5675 64.5148C37.9843 64.0142 37.9164 63.2707 37.4159 62.8539L32.7736 58.988C32.3363 58.6242 31.7016 58.624 31.2643 58.988L26.622 62.8537C26.1215 63.2704 26.0535 64.0142 26.4704 64.5145C26.7036 64.7947 27.0391 64.9392 27.3772 64.9392C27.6432 64.9392 27.9108 64.8497 28.1311 64.6662L30.8397 62.4108V72.6252C30.8397 73.2766 31.3677 73.8045 32.019 73.8045H40.4149C41.0662 73.8045 41.5942 73.2766 41.5942 72.6252C41.5942 71.9737 41.0662 71.446 40.4149 71.446Z" fill="#FF782D"/>
<path d="M15.7417 48.5318C15.362 48.5508 15.0148 48.751 14.8094 49.0695L0.443552 71.3304C-0.11124 72.1903 -0.147231 73.1977 0.344853 74.0945C0.837093 74.9915 1.70842 75.5061 2.73564 75.5061H47.2642C48.2915 75.5061 49.1628 74.9915 49.655 74.0947C50.1473 73.1979 50.1113 72.1901 49.5565 71.3304L35.6271 49.7463C35.3294 49.285 34.7508 49.0906 34.2326 49.2777C30.5901 50.5952 26.5554 50.664 22.8718 49.4714C20.5682 48.7257 18.1699 48.4093 15.7417 48.5318ZM47.5861 72.9703C47.4899 73.1456 47.379 73.1602 47.2642 73.1602H2.73564C2.62107 73.1602 2.51011 73.1456 2.41393 72.9703C2.31774 72.7946 2.36521 72.6941 2.42713 72.5982L6.24639 66.6801L12.7175 65.1537C15.8358 64.4181 19.0949 64.5508 22.1425 65.5374C26.8785 67.0705 31.981 66.7799 36.5102 64.7187L41.1309 62.6159L47.5729 72.598C47.6347 72.6939 47.6823 72.7946 47.5861 72.9703ZM34.1399 51.783L39.8438 60.6217L35.5295 62.5849C31.5392 64.4006 27.0442 64.6568 22.8716 63.3061C19.4121 62.1862 15.7129 62.0357 12.1737 62.8706L8.08177 63.8358L16.459 50.8547C18.3919 50.822 20.3029 51.1067 22.1425 51.7023C26.0232 52.9585 30.2474 52.9817 34.1399 51.783Z" fill="#FF782D"/>
<path d="M53 62.0061C53 64.4874 55.243 66.5061 58 66.5061C60.757 66.5061 63 64.4874 63 62.0061C63 59.5248 60.757 57.5061 58 57.5061C55.243 57.5061 53 59.5248 53 62.0061ZM60.4374 62.0061C60.4374 63.2158 59.3441 64.1999 57.9998 64.1999C56.6556 64.1999 55.5623 63.2158 55.5623 62.0061C55.5623 60.7964 56.6556 59.8123 57.9998 59.8123C59.3441 59.8123 60.4374 60.7964 60.4374 62.0061Z" fill="#FF782D"/>
<path d="M20 60.5061C22.2056 60.5061 24 58.936 24 57.0061C24 55.0762 22.2056 53.5061 20 53.5061C17.7944 53.5061 16 55.0762 16 57.0061C16 58.936 17.7945 60.5061 20 60.5061ZM20 55.7094C20.8172 55.7094 21.482 56.2911 21.482 57.0061C21.482 57.7211 20.8172 58.3028 20 58.3028C19.1828 58.3028 18.518 57.7211 18.518 57.0061C18.518 56.2911 19.1828 55.7094 20 55.7094Z" fill="#FF782D"/>
</svg>
