<svg width="80" height="69" viewBox="0 0 80 69" fill="none" xmlns="http://www.w3.org/2000/svg">
<path d="M66.2837 24.4839H52.1882L49.4994 18.2033C49.1873 17.4722 48.464 17 47.6584 17H31.3416C30.536 17 29.8133 17.4722 29.5006 18.2026L26.8118 24.4839H25.0877V21.8806C25.0877 20.7505 24.1539 19.8311 23.0052 19.8311H15.8491C14.701 19.8311 13.7665 20.7505 13.7665 21.8806V24.4839H12.7163C10.1154 24.4839 8 26.5657 8 29.1239V64.36C8 66.9188 10.1154 69 12.7163 69H66.2837C68.884 69 71 66.9188 71 64.36V29.1239C71 26.5657 68.8846 24.4839 66.2837 24.4839ZM16.1445 22.1706H22.7098V24.4839H16.1445V22.1706ZM12.7163 26.8234H27.0644C27.8701 26.8234 28.5927 26.3519 28.9055 25.6208L31.5943 19.3395H47.4057L50.0945 25.6208C50.4073 26.3513 51.1299 26.8234 51.9356 26.8234H66.2837C67.573 26.8234 68.6221 27.8555 68.6221 29.1239V38.7085H56.6097C53.7265 32.2243 47.1419 27.6824 39.4997 27.6824C31.8581 27.6824 25.2735 32.2243 22.3897 38.7085H10.3779V29.1239C10.3779 27.8555 11.427 26.8234 12.7163 26.8234ZM21.5376 51.0438H10.3779V41.048H21.5376C21.0799 42.6375 20.8347 44.3141 20.8347 46.0456C20.8347 47.7777 21.0799 49.4543 21.5376 51.0438ZM23.2126 46.0462C23.2126 37.2104 30.5192 30.0219 39.4997 30.0219C48.4808 30.0219 55.7874 37.2104 55.7874 46.0462C55.7874 54.8814 48.4808 62.0699 39.4997 62.0699C30.5192 62.0699 23.2126 54.8814 23.2126 46.0462ZM66.2837 66.6605H12.7163C11.427 66.6605 10.3779 65.6285 10.3779 64.36V53.3833H22.3903C25.2735 59.8675 31.8581 64.4094 39.5003 64.4094C47.1419 64.4094 53.7265 59.8675 56.6104 53.3833H60.0299C60.6863 53.3833 61.2189 52.86 61.2189 52.2136C61.2189 51.5672 60.6863 51.0438 60.0299 51.0438H57.4631C57.9201 49.4543 58.1653 47.7777 58.1653 46.0456C58.1653 44.3141 57.9207 42.6375 57.4631 41.048H68.6221V51.0438H64.9437C64.2873 51.0438 63.7547 51.5672 63.7547 52.2136C63.7547 52.86 64.2873 53.3833 64.9437 53.3833H68.6221V64.36C68.6221 65.6285 67.573 66.6605 66.2837 66.6605Z" fill="#FF782D"/>
<path d="M39.5 59C46.9443 59 53 52.9443 53 45.5C53 38.0563 46.9443 32 39.5 32C37.4587 32 35.4973 32.4444 33.6699 33.3209C33.0816 33.6031 32.8339 34.3081 33.1154 34.8957C33.3976 35.4833 34.1026 35.731 34.6902 35.4495C36.1968 34.7273 37.8152 34.3609 39.5 34.3609C45.6424 34.3609 50.6397 39.3582 50.6397 45.5006C50.6397 51.643 45.6424 56.6403 39.5 56.6403C33.3576 56.6403 28.3603 51.643 28.3603 45.5006C28.3603 42.8409 29.3125 40.2667 31.0415 38.2518C31.4656 37.757 31.4091 37.012 30.9143 36.5873C30.4195 36.1632 29.6745 36.2203 29.2498 36.7145C27.1544 39.1578 26 42.2779 26 45.5006C26 52.9443 32.0563 59 39.5 59Z" fill="#FF782D"/>
<path d="M61.5 36C63.4296 36 65 34.2059 65 32C65 29.7947 63.4296 28 61.5 28C59.5698 28 58 29.7947 58 32C58 34.2059 59.5698 36 61.5 36ZM61.5 30.4482C62.2486 30.4482 62.8578 31.145 62.8578 32C62.8578 32.8556 62.2486 33.5524 61.5 33.5524C60.7508 33.5524 60.1422 32.8556 60.1422 32C60.1422 31.145 60.7508 30.4482 61.5 30.4482Z" fill="#FF782D"/>
<path d="M78.1239 1.38028C76.7763 0.223221 74.7778 -0.131232 73.0321 0.475962C72.0279 0.825484 71.13 1.4746 70.4729 2.27782C69.0533 0.709593 67.1567 -0.131232 65.2017 0.0167135C64.9334 0.0364396 64.6627 0.0783575 64.3969 0.140002C63.756 0.289797 63.3579 0.92658 63.5088 1.56336C63.6597 2.19953 64.3012 2.59405 64.9421 2.44426C65.0881 2.41035 65.2359 2.38816 65.3812 2.37706C67.3175 2.2285 68.8136 3.69193 69.5681 5.10728C69.8016 5.54557 70.2854 5.79215 70.7803 5.7268C71.2753 5.66084 71.6764 5.29653 71.7851 4.81262C71.9832 3.93543 72.839 3.05145 73.8208 2.70994C74.7592 2.38323 75.8615 2.56816 76.5632 3.17104C77.219 3.73323 77.6121 4.70721 77.6152 5.7755C77.6233 8.1414 76.2664 10.6152 73.7954 12.7419C71.7938 14.4648 69.2327 15.8013 66.7779 16.427C67.2629 14.9968 67.1716 13.4958 66.5015 12.0311C65.9562 10.8402 65.1353 9.89024 64.341 8.97113C64.2087 8.81764 64.0764 8.66476 63.946 8.51065C63.2381 7.67599 62.5003 6.68044 62.396 5.62324C62.3724 5.38714 62.3866 5.14488 62.4376 4.90324C62.5736 4.26337 62.1612 3.63584 61.5166 3.50145C60.8726 3.36583 60.2398 3.77577 60.1044 4.41563C60.0025 4.89337 59.9752 5.37728 60.0224 5.85441C60.1913 7.56626 61.2328 8.98777 62.1215 10.0351C62.2568 10.1948 62.3941 10.3532 62.5307 10.5116C63.248 11.342 63.9255 12.1261 64.3304 13.0107C64.8515 14.1486 64.8235 15.2212 64.2453 16.2901C63.9069 16.9158 63.9578 17.6623 64.3782 18.2375C64.7341 18.7245 65.2887 19 65.878 19C65.9885 19 66.1003 18.9908 66.2121 18.9704C69.3569 18.4125 72.7757 16.7525 75.3578 14.5302C78.3611 11.9455 80.0099 8.83305 80 5.7681C79.995 3.99892 79.3106 2.39926 78.1239 1.38028Z" fill="#FF782D"/>
<path d="M6.86306 21H1.13694C0.509252 21 0 21.4479 0 22C0 22.5526 0.509252 23 1.13694 23H6.86306C7.49134 23 8 22.5526 8 22C8 21.4479 7.49134 21 6.86306 21Z" fill="#FF782D"/>
<path d="M9.15836 14.6316C9.36852 14.8774 9.64497 15 9.92087 15C10.1968 15 10.4732 14.8774 10.6839 14.6316C11.1054 14.1399 11.1054 13.3427 10.6839 12.8517L6.84164 8.36884C6.42021 7.87716 5.73694 7.87716 5.31607 8.36819C4.89464 8.85987 4.89464 9.65705 5.31607 10.1481L9.15836 14.6316Z" fill="#FF782D"/>
<path d="M19 11C19.5526 11 20 10.4913 20 9.86306V4.13694C20 3.50866 19.5526 3 19 3C18.4479 3 18 3.50866 18 4.13694V9.86306C18 10.4913 18.4479 11 19 11Z" fill="#FF782D"/>
</svg>
