<svg width="81" height="80" viewBox="0 0 81 80" fill="none" xmlns="http://www.w3.org/2000/svg">
<path d="M22 20C17.5888 20 14 23.1401 14 27C14 30.8599 17.5888 34 22 34C26.4112 34 30 30.8599 30 27C30 23.1401 26.4112 20 22 20ZM22 31.6306C18.8911 31.6306 16.3617 29.5534 16.3617 27C16.3617 24.4466 18.8911 22.3694 22 22.3694C25.1089 22.3694 27.6383 24.4466 27.6383 27C27.6383 29.5534 25.1089 31.6306 22 31.6306Z" fill="#FF782D"/>
<path d="M5 42C5 45.8599 8.14013 49 12 49C15.8599 49 19 45.8599 19 42C19 38.1401 15.8599 35 12 35C8.14013 35 5 38.1401 5 42ZM16.6306 42C16.6306 44.5532 14.5534 46.6306 12 46.6306C9.4466 46.6306 7.36935 44.5534 7.36935 42C7.36935 39.4468 9.4466 37.3694 12 37.3694C14.5534 37.3694 16.6306 39.4468 16.6306 42Z" fill="#FF782D"/>
<path d="M20.9999 52C17.1401 52 14 55.1402 14 59.0001C14 62.8599 17.1401 66 20.9999 66C24.8598 66 28 62.8599 28 59.0001C28 55.1402 24.8598 52 20.9999 52ZM20.9999 63.6307C18.4467 63.6307 16.3693 61.5534 16.3693 59.0001C16.3693 56.4467 18.4466 54.3693 20.9999 54.3693C23.5533 54.3693 25.6307 56.4466 25.6307 59.0001C25.6305 61.5534 23.5533 63.6307 20.9999 63.6307Z" fill="#FF782D"/>
<path d="M44 64.9999C44 61.1401 40.8598 58 36.9999 58C33.1401 58 30 61.1401 30 64.9999C30 68.8597 33.1401 72 36.9999 72C40.8598 72 44 68.8597 44 64.9999ZM32.3693 64.9999C32.3693 62.4467 34.4466 60.3693 36.9999 60.3693C39.5533 60.3693 41.6307 62.4466 41.6307 64.9999C41.6307 67.5533 39.5534 69.6307 36.9999 69.6307C34.4466 69.6305 32.3693 67.5533 32.3693 64.9999Z" fill="#FF782D"/>
<path d="M61 56.9999C61 53.1401 57.8598 50 53.9999 50C50.1401 50 47 53.1401 47 56.9999C47 60.8597 50.1401 64 53.9999 64C57.8598 64 61 60.8597 61 56.9999ZM49.3695 56.9999C49.3695 54.4467 51.4467 52.3693 54.0001 52.3693C56.5534 52.3693 58.6308 54.4466 58.6308 56.9999C58.6308 59.5533 56.5536 61.6307 54.0001 61.6307C51.4467 61.6307 49.3695 59.5534 49.3695 56.9999Z" fill="#FF782D"/>
<path d="M80.3261 52.2383L64.9467 29.032C64.5868 28.4887 63.851 28.3378 63.3034 28.6955C62.756 29.0529 62.6043 29.783 62.9644 30.3265L78.3466 53.5371C78.8388 54.2729 78.6548 55.2481 77.9276 55.7573C77.2005 56.2664 76.2128 56.1111 75.6768 55.3997L55.0958 28.3368C54.7011 27.818 53.9571 27.7147 53.4341 28.1063C52.9112 28.4983 52.8073 29.2368 53.2018 29.7557L59.1033 37.5158C48.4649 37.3301 42.404 32.7218 42.3448 32.6758C42.3399 32.672 42.3349 32.6679 42.3296 32.6642C38.6465 29.8726 36.0781 26.5039 34.696 22.6514C33.6623 19.7707 33.7163 17.6802 33.7167 17.6634C33.7174 17.6482 33.7177 17.6333 33.7177 17.618C33.7177 13.4195 31.4133 11.0074 27.3946 11C27.3908 11 27.387 11 27.3832 11C24.5946 11 21.855 12.1796 21.6096 12.2878C16.3283 14.5128 11.6064 18.0541 7.95477 22.529C7.54234 23.0344 7.62081 23.776 8.1299 24.1854C8.63932 24.5946 9.3862 24.5167 9.79863 24.0115C13.209 19.8321 17.617 16.5266 22.546 14.4519C22.5542 14.4485 22.5623 14.445 22.5701 14.4414C22.5944 14.4306 25.0268 13.3552 27.3821 13.3552H27.3911C30.0828 13.3601 31.3396 14.7091 31.345 17.5998C31.3257 18.2666 31.257 27.2312 40.883 34.5312C41.2673 34.8299 47.9438 39.8777 59.7649 39.8777C59.9266 39.8777 60.1068 39.8756 60.3025 39.8736C60.4868 39.8717 60.6848 39.8696 60.8927 39.8689L68.1846 49.4574C65.8913 65.5603 51.9014 77.6452 35.4435 77.6452C17.2084 77.6452 2.37289 62.9201 2.37289 44.8204C2.37289 39.0888 3.88025 33.4338 6.73202 28.4669C7.0565 27.9017 6.85795 27.1825 6.28873 26.8606C5.71905 26.5386 4.99495 26.7359 4.67047 27.3006C1.61494 32.6219 0 38.68 0 44.8201C0 54.217 3.68661 63.0513 10.3808 69.6959C17.075 76.3407 25.9759 80 35.4435 80C52.3097 80 66.7579 68.156 70.1399 52.0281L73.7796 56.8144C74.5692 57.8618 75.7648 58.4157 76.9809 58.4157C77.7796 58.4157 78.5874 58.1769 79.2948 57.6816C81.0795 56.4325 81.5313 54.0396 80.3261 52.2383Z" fill="#FF782D"/>
<path d="M43.6292 16.902L49.7324 25.1511C50.129 25.6708 50.8772 25.7743 51.403 25.382C51.9286 24.9894 52.0331 24.2497 51.6365 23.7299L49.0313 20.3167L54.0538 16.8139L59.8107 25.4685C60.0397 25.813 60.4203 26 60.8083 26C61.0332 26 61.2606 25.9372 61.4627 25.8057C62.013 25.4478 62.1656 24.7164 61.8036 24.172L52.6151 10.6355C52.6388 9.65338 52.4432 7.4397 50.6025 4.85829C47.8174 0.952992 42.5749 0.404844 42.0508 0.359545L39.2965 0.00989359C38.8273 -0.0506623 38.367 0.170485 38.1229 0.571254C37.8789 0.972024 37.8973 1.47739 38.1699 1.85976L38.7934 2.73412C38.5351 2.68033 38.2635 2.71226 38.0228 2.82912C37.7152 2.97823 37.4871 3.25097 37.397 3.57797C37.3357 3.80006 35.9312 9.06166 38.8023 13.0879C40.6428 15.669 42.6858 16.5943 43.6292 16.902ZM47.6243 18.4112L46.0218 16.164L51.1086 12.6164L52.711 14.8635L47.6243 18.4112ZM39.5257 5.0914C40.0079 4.97516 40.4511 4.70321 40.7823 4.29426C41.1734 3.81091 41.3413 3.21857 41.2822 2.64006C41.2822 2.64006 46.4223 3.08943 48.6529 6.21758C49.9886 8.09072 50.2151 9.61704 50.2351 10.3388L44.1458 14.5855C43.4651 14.3245 42.0874 13.601 40.7516 11.728C39.1422 9.47124 39.3095 6.54112 39.5257 5.0914Z" fill="#FF782D"/>
</svg>
