<svg width="81" height="76" viewBox="0 0 81 76" fill="none" xmlns="http://www.w3.org/2000/svg">
<path d="M56.1064 4.59065C52.5123 2.11715 48.3002 0.80957 43.9252 0.80957C35.8077 0.80957 28.4663 5.30451 24.7657 12.5403C24.1685 13.7085 23.0949 13.5617 22.0475 13.5617C15.5779 13.5617 9.82298 17.6729 7.72733 23.7921C7.5421 24.3332 7.08878 24.7654 6.48405 24.978C2.44494 26.3977 -0.157965 30.2307 0.0074488 34.5159C0.20887 39.7461 4.63447 43.8355 9.89264 43.8355H13.4347V48.0985H9.98557C9.49263 46.6448 8.11602 45.5953 6.49789 45.5953C4.46733 45.5953 2.81523 47.2472 2.81523 49.2778C2.81523 51.3085 4.46733 52.9604 6.49789 52.9604C8.11602 52.9604 9.49279 51.9109 9.98557 50.4571H14.614C15.2654 50.4571 15.7933 49.9291 15.7933 49.2778V43.8355H26.4532V59.5787H19.3832C18.8715 57.8235 17.2491 56.5368 15.3308 56.5368C13.0031 56.5368 11.1095 58.4304 11.1095 60.758C11.1095 63.0856 13.0031 64.9792 15.3308 64.9792C17.2491 64.9792 18.8715 63.6925 19.3832 61.9373H27.6325C28.2839 61.9373 28.8117 61.4093 28.8117 60.758V43.8355H39.4556V65.8086C37.2576 66.3405 35.6198 68.3231 35.6198 70.6822C35.6198 73.4475 37.8695 75.6973 40.6349 75.6973C43.4002 75.6973 45.65 73.4475 45.65 70.6822C45.65 68.323 44.0122 66.3404 41.8142 65.8086V43.8355H44.3845C45.0359 43.8355 45.5638 43.3075 45.5638 42.6562C45.5638 42.0049 45.0359 41.4769 44.3845 41.4769H9.89264C5.89142 41.4769 2.51397 38.3135 2.36412 34.425C2.23896 31.1799 4.20883 28.2778 7.26631 27.2033C8.55675 26.7496 9.53807 25.7848 9.95884 24.5563C11.7279 19.3908 16.5859 15.9202 22.0477 15.9202C22.857 15.9202 25.5307 16.2256 26.8659 13.6142C30.1611 7.17076 36.6978 3.16813 43.9254 3.16813C47.8205 3.16813 51.5703 4.33184 54.7694 6.53348C55.3061 6.90283 56.0402 6.76713 56.4094 6.23064C56.7784 5.69414 56.6429 4.95985 56.1064 4.59065ZM6.49789 50.6019C5.76768 50.6019 5.17379 50.0078 5.17379 49.2778C5.17379 48.5477 5.76768 47.9538 6.49789 47.9538C7.22794 47.9538 7.82182 48.5477 7.82182 49.2778C7.82182 50.0078 7.22778 50.6019 6.49789 50.6019ZM15.3308 62.6206C14.3038 62.6206 13.4681 61.7851 13.4681 60.758C13.4681 59.7309 14.3036 58.8954 15.3308 58.8954C16.3578 58.8954 17.1935 59.7309 17.1935 60.758C17.1935 61.7851 16.3579 62.6206 15.3308 62.6206ZM43.2914 70.6823C43.2914 72.1471 42.0997 73.3389 40.6349 73.3389C39.1702 73.3389 37.9784 72.1471 37.9784 70.6823C37.9784 69.2175 39.1701 68.0258 40.6349 68.0258C42.0997 68.0258 43.2914 69.2175 43.2914 70.6823Z" fill="#FF782D"/>
<path d="M64.8124 41.4769H49.8883C49.2368 41.4769 48.709 42.0049 48.709 42.6562C48.709 43.3075 49.2368 43.8355 49.8883 43.8355H52.4588V60.758C52.4588 61.4092 52.9866 61.9372 53.6381 61.9372H61.8872C62.3988 63.6925 64.0212 64.9791 65.9397 64.9791C68.2673 64.9791 70.1609 63.0855 70.1609 60.758C70.1609 58.4304 68.2673 56.5368 65.9397 56.5368C64.0214 56.5368 62.3988 57.8234 61.8872 59.5787H54.8173V43.8355H64.8124C65.0601 43.8355 65.3073 43.829 65.554 43.8171V49.2778C65.554 49.929 66.0818 50.457 66.7332 50.457H71.3615C71.8545 51.9109 73.2312 52.9604 74.8494 52.9604C76.8799 52.9604 78.532 51.3085 78.532 49.2778C78.532 47.2472 76.8799 45.5953 74.8494 45.5953C73.2312 45.5953 71.8545 46.6448 71.3615 48.0985H67.9125V43.5216C75.0884 42.0621 80.6497 35.7546 80.5036 28.1223C80.339 19.5244 73.1636 12.7061 64.5549 13.0195C63.8479 13.0456 63.1618 12.6536 62.8166 12.0223C62.1413 10.7864 61.3391 9.60995 60.4318 8.5258C60.0139 8.0261 59.27 7.96006 58.7708 8.37815C58.2712 8.79609 58.205 9.53982 58.6231 10.0392C59.4311 11.0051 60.1458 12.0526 60.7469 13.1531C61.4922 14.5175 62.9501 15.3793 64.4917 15.3793C64.5409 15.3793 64.5904 15.3784 64.6399 15.3766C71.9158 15.1134 78.0057 20.8743 78.1454 28.1676C78.2866 35.5335 72.0845 41.4769 64.8124 41.4769ZM65.9395 58.8953C66.9664 58.8953 67.8021 59.7309 67.8021 60.758C67.8021 61.785 66.9666 62.6206 65.9395 62.6206C64.9124 62.6206 64.0767 61.785 64.0767 60.758C64.0767 59.7309 64.9124 58.8953 65.9395 58.8953ZM74.8494 47.9537C75.5796 47.9537 76.1735 48.5476 76.1735 49.2776C76.1735 50.0077 75.5796 50.6017 74.8494 50.6017C74.1192 50.6017 73.5253 50.0077 73.5253 49.2776C73.5253 48.5476 74.1192 47.9537 74.8494 47.9537Z" fill="#FF782D"/>
</svg>
