<svg width="81" height="64" viewBox="0 0 81 64" fill="none" xmlns="http://www.w3.org/2000/svg">
<path d="M76.3341 44.7246C75.6822 44.7246 75.154 45.2528 75.154 45.9047V54.2012C75.154 57.9751 72.0836 61.0455 68.3097 61.0455H9.20436C5.43044 61.0455 2.36017 57.9751 2.36017 54.2012V16.6016C2.36017 12.8277 5.4306 9.75723 9.20451 9.75723H38.1272C38.779 9.75723 39.3072 9.22903 39.3072 8.57715C39.3072 7.92527 38.779 7.39706 38.1272 7.39706H26.5464V3.70953C26.5464 1.71314 24.9223 0.0888672 22.9258 0.0888672H19.1929C17.1965 0.0888672 15.5723 1.71298 15.5723 3.70953V7.39706H9.20451C4.12904 7.39706 0 11.5261 0 16.6016V54.2012C0 59.2766 4.12904 63.4057 9.20436 63.4057H68.3097C73.3851 63.4057 77.5142 59.2766 77.5142 54.2012V45.9047C77.5142 45.253 76.9858 44.7246 76.3341 44.7246ZM17.9327 3.70953C17.9327 3.01454 18.4982 2.44904 19.1932 2.44904H22.9261C23.6211 2.44904 24.1866 3.01454 24.1866 3.70953V7.39706H17.9329V3.70953H17.9327Z" fill="#FF782D"/>
<path d="M72.6129 4.66479H48.8441C44.4919 4.66479 40.9512 8.20552 40.9512 12.5577V35.0965C40.9512 39.4487 44.4919 42.9894 48.8441 42.9894H52.8291C53.481 42.9894 54.0092 42.4612 54.0092 41.8093C54.0092 41.1575 53.481 40.6293 52.8291 40.6293H48.8441C45.7933 40.6293 43.3113 38.1473 43.3113 35.0965V12.5577C43.3113 9.50692 45.7933 7.02497 48.8441 7.02497H72.6129C75.6636 7.02497 78.1456 9.50692 78.1456 12.5577V35.0965C78.1456 38.1473 75.6636 40.6293 72.6129 40.6293H57.9197C57.2678 40.6293 56.7396 41.1575 56.7396 41.8093C56.7396 42.4612 57.2678 42.9894 57.9197 42.9894H72.6129C76.965 42.9894 80.5058 39.4487 80.5058 35.0965V12.5577C80.5058 8.20552 76.965 4.66479 72.6129 4.66479Z" fill="#FF782D"/>
<path d="M63.3782 9.38513H48.8444C47.0951 9.38513 45.6719 10.8083 45.6719 12.5577V35.0965C45.6719 36.8459 47.0951 38.2691 48.8444 38.2691H72.6132C74.3626 38.2691 75.7858 36.8459 75.7858 35.0965V12.5577C75.7858 10.8083 74.3626 9.38513 72.6132 9.38513H68.4686C67.8167 9.38513 67.2885 9.91334 67.2885 10.5652C67.2885 11.2171 67.8167 11.7453 68.4686 11.7453H72.6132C73.0612 11.7453 73.4256 12.1097 73.4256 12.5577V35.0965C73.4256 35.5445 73.0612 35.9089 72.6132 35.9089H48.8444C48.3965 35.9089 48.032 35.5445 48.032 35.0965V12.5577C48.032 12.1097 48.3965 11.7453 48.8444 11.7453H63.3782C64.0301 11.7453 64.5583 11.2171 64.5583 10.5652C64.5583 9.91334 64.0299 9.38513 63.3782 9.38513Z" fill="#FF782D"/>
<path d="M50.2148 23.8272C50.2148 29.6248 54.9317 34.3414 60.7293 34.3414C66.5268 34.3414 71.2437 29.6247 71.2437 23.8272C71.2437 18.0296 66.5268 13.3127 60.7293 13.3127C54.9317 13.3127 50.2148 18.0295 50.2148 23.8272ZM68.8835 23.8272C68.8835 28.3233 65.2255 31.9812 60.7293 31.9812C56.233 31.9812 52.575 28.3233 52.575 23.8272C52.575 19.3309 56.233 15.6729 60.7293 15.6729C65.2255 15.6729 68.8835 19.3309 68.8835 23.8272Z" fill="#FF782D"/>
<path d="M56.499 23.8272C56.499 26.1594 58.3966 28.0569 60.7289 28.0569C63.0612 28.0569 64.9588 26.1594 64.9588 23.8272C64.9588 21.4949 63.0612 19.5973 60.7289 19.5973C58.3966 19.5973 56.499 21.4947 56.499 23.8272ZM62.5986 23.8272C62.5986 24.8581 61.7598 25.6968 60.7289 25.6968C59.698 25.6968 58.8592 24.8581 58.8592 23.8272C58.8592 22.7963 59.698 21.9575 60.7289 21.9575C61.7598 21.9575 62.5986 22.7963 62.5986 23.8272Z" fill="#FF782D"/>
<path d="M33.5621 35.5382V17.1203C33.5621 15.6147 32.3372 14.3898 30.8314 14.3898H18.4496C17.7977 14.3898 17.2695 14.918 17.2695 15.5699C17.2695 16.2217 17.7977 16.7499 18.4496 16.7499H30.8314C31.0358 16.7499 31.2019 16.9163 31.2019 17.1203V35.5382C31.2019 35.7426 31.0356 35.9087 30.8314 35.9087H9.47388C9.26949 35.9087 9.10334 35.7424 9.10334 35.5382V17.1203C9.10334 16.9161 9.26965 16.7499 9.47388 16.7499H13.3589C14.0108 16.7499 14.539 16.2217 14.539 15.5699C14.539 14.918 14.0108 14.3898 13.3589 14.3898H9.47388C7.96809 14.3898 6.74316 15.6147 6.74316 17.1203V35.5382C6.74316 37.044 7.96809 38.2689 9.47388 38.2689H30.8312C32.3372 38.269 33.5621 37.0441 33.5621 35.5382Z" fill="#FF782D"/>
<path d="M9.50977 46.5798C9.50977 48.6679 11.2086 50.3668 13.2967 50.3668C15.3849 50.3668 17.0837 48.6679 17.0837 46.5798C17.0837 44.4917 15.3849 42.7928 13.2967 42.7928C11.2086 42.7928 9.50977 44.4917 9.50977 46.5798ZM14.7237 46.5798C14.7237 47.3665 14.0836 48.0066 13.2969 48.0066C12.5102 48.0066 11.8701 47.3665 11.8701 46.5798C11.8701 45.7931 12.5102 45.153 13.2969 45.153C14.0836 45.153 14.7237 45.7931 14.7237 46.5798Z" fill="#FF782D"/>
<path d="M18.9727 46.5798C18.9727 48.6679 20.6715 50.3668 22.7596 50.3668C24.8478 50.3668 26.5468 48.6679 26.5468 46.5798C26.5468 44.4917 24.8478 42.7928 22.7596 42.7928C20.6715 42.7928 18.9727 44.4917 18.9727 46.5798ZM24.1867 46.5798C24.1867 47.3665 23.5467 48.0066 22.7598 48.0066C21.9731 48.0066 21.333 47.3665 21.333 46.5798C21.333 45.7931 21.9731 45.153 22.7598 45.153C23.5465 45.153 24.1867 45.7931 24.1867 46.5798Z" fill="#FF782D"/>
<path d="M42.1313 49.5872H70.063C70.7148 49.5872 71.243 49.059 71.243 48.4071C71.243 47.7553 70.7148 47.2271 70.063 47.2271H42.1313C41.4794 47.2271 40.9512 47.7553 40.9512 48.4071C40.9512 49.059 41.4794 49.5872 42.1313 49.5872Z" fill="#FF782D"/>
<path d="M42.1313 54.6422H70.063C70.7148 54.6422 71.243 54.1139 71.243 53.4621C71.243 52.8102 70.7148 52.282 70.063 52.282H42.1313C41.4794 52.282 40.9512 52.8102 40.9512 53.4621C40.9512 54.1139 41.4794 54.6422 42.1313 54.6422Z" fill="#FF782D"/>
</svg>
