<svg width="80" height="77" viewBox="0 0 80 77" fill="none" xmlns="http://www.w3.org/2000/svg">
<path d="M76.9017 53.7392C76.9251 53.6914 76.9459 53.6425 76.9625 53.5923C81.7023 42.6244 80.8554 29.1783 74.6993 18.9011C77.9858 14.9621 73.7168 9.32124 69.0484 11.5038C68.228 10.6633 67.3667 9.85771 66.4741 9.09602C68.2261 4.32089 62.3787 0.403676 58.737 3.97139C48.1523 -1.38723 34.9873 -1.31937 24.461 4.15272C20.7165 0.174229 14.4278 4.44 16.6949 9.43173C15.3965 10.57 14.1675 11.7997 13.0343 13.1001C12.0559 14.2228 13.8284 15.7617 14.8001 14.6468C15.8544 13.4372 16.9966 12.2929 18.2031 11.2325C20.5362 12.9197 23.9192 12.0602 25.1992 9.48486C29.4232 10.7039 33.4569 12.4534 37.2157 14.6988C36.901 15.8365 37.0295 17.1071 37.5694 18.1573C34.4758 20.8365 31.6898 23.8673 29.2706 27.1888C27.0372 26.5122 24.5754 27.6447 23.6042 29.7652C18.679 29.7917 13.7384 30.3229 8.88772 31.3508C8.45939 30.5506 7.81003 29.8875 7.02279 29.4433C7.93415 25.8801 9.37763 22.4906 11.322 19.3566C12.0967 18.1075 10.1411 16.809 9.33089 18.1148C7.26368 21.4468 5.72829 25.0501 4.75721 28.8379C-0.85945 28.9335 -1.80239 36.7237 3.54462 38.2223C3.46583 49.3094 8.24711 60.0888 16.5381 67.4317C14.8086 72.1158 20.4235 75.9794 24.129 72.6756C34.9431 78.4408 48.6102 78.4415 59.4249 72.6775C63.1936 76.4145 69.2299 72.2396 67.107 67.3543C71.3801 63.5469 74.6996 58.8901 76.9017 53.7392ZM75.4244 51.1102C72.179 47.8776 68.6274 44.9451 64.8355 42.3709C65.374 40.6796 64.906 38.7768 63.6484 37.5283C66.837 32.213 69.3402 26.5135 71.1023 20.5596C71.6894 20.5616 72.2539 20.453 72.774 20.2565C78.1732 29.3988 79.1607 41.1862 75.4244 51.1102ZM21.4735 64.3981C20.4868 54.7085 22.2183 45.0418 26.5035 36.306C29.1657 37.1389 32.0431 35.3837 32.5601 32.644C40.6443 33.6431 48.4302 36.0227 55.737 39.7285C55.3856 41.0979 55.6766 42.608 56.5137 43.7472C48.2775 54.2085 37.4058 62.0804 24.9631 66.5921C24.2092 65.3952 22.9412 64.5578 21.4735 64.3981ZM57.9321 40.9196C57.9321 39.5876 59.0051 38.504 60.324 38.504C63.497 38.6364 63.4961 43.2032 60.324 43.3352C59.0051 43.3352 57.9321 42.2516 57.9321 40.9196ZM73.5045 15.7932C73.5045 17.1253 72.4315 18.2089 71.1126 18.2089C67.9394 18.0764 67.9402 13.5096 71.1126 13.3776C72.4315 13.3776 73.5045 14.4612 73.5045 15.7932ZM67.2568 13.0298C65.6363 15.3126 66.3884 18.6124 68.8314 19.9692C67.1245 25.7123 64.7046 31.2099 61.6262 36.3378C60.9826 36.1523 60.2682 36.1062 59.6065 36.2078C56.3888 29.3189 51.7067 23.1139 45.9872 18.1576C46.5276 17.1068 46.6564 15.8384 46.3413 14.6991C49.9616 12.5366 53.8395 10.8324 57.8946 9.6209C59.2424 12.2298 62.858 12.9664 65.1026 11.0134C65.8466 11.655 66.5667 12.3291 67.2568 13.0298ZM39.3865 15.9752C39.3865 14.6432 40.4595 13.5596 41.7784 13.5596C44.9516 13.692 44.9507 18.2587 41.7784 18.3907C40.4595 18.3907 39.3865 17.3071 39.3865 15.9752ZM62.0639 4.94497C63.3829 4.94497 64.4559 6.02858 64.4559 7.36059C64.3243 10.5652 59.8032 10.5644 59.672 7.36059C59.672 6.02858 60.745 4.94497 62.0639 4.94497ZM20.9605 9.77606C19.6416 9.77606 18.5686 8.69245 18.5686 7.36044C18.7002 4.1557 23.2214 4.1568 23.3525 7.36044C23.3525 8.69245 22.2794 9.77606 20.9605 9.77606ZM25.6928 7.1802C25.6806 6.8539 25.6359 6.53621 25.5615 6.22966C35.3759 1.14123 47.6367 1.05252 57.5268 5.993C57.3997 6.41914 57.3301 6.86973 57.3278 7.3363C53.0624 8.60139 48.9838 10.3884 45.1761 12.6589C43.3458 10.7608 40.2117 10.7601 38.3809 12.6587C34.413 10.2925 30.1536 8.45313 25.6928 7.1802ZM39.1217 19.9192C40.7071 21.0041 42.8492 21.0042 44.4348 19.9194C49.8954 24.6464 54.3688 30.5636 57.45 37.1343C57.2412 37.2953 57.0461 37.4735 56.8666 37.6664C49.1632 33.749 40.9425 31.2584 32.4036 30.2562C32.173 29.5566 31.786 28.9285 31.2835 28.4142C33.5752 25.293 36.2052 22.4424 39.1217 19.9192ZM27.9075 29.3377C29.2263 29.3377 30.2993 30.4213 30.2993 31.7533C30.1677 34.958 25.6466 34.9571 25.5154 31.7533C25.5156 30.4213 26.5886 29.3377 27.9075 29.3377ZM2.32249 33.6035C2.32249 32.2714 3.39549 31.1878 4.71438 31.1878C7.88741 31.3203 7.88647 35.8869 4.71438 36.0189C3.39564 36.0191 2.32249 34.9355 2.32249 33.6035ZM5.8893 38.2214C5.8893 38.2214 9.45048 37.4428 9.45048 33.6345C9.45048 33.6345 18.5885 32.17 23.1861 32.1186C23.2723 33.2574 23.7574 34.285 24.5013 35.0605C19.9324 44.2762 18.0895 54.4935 19.1503 64.7321C18.6935 64.923 18.273 65.1839 17.9013 65.5011C10.2523 58.6312 5.8893 47.1206 5.8893 38.2214ZM20.9605 71.5516C19.6416 71.5516 18.5686 70.4679 18.5686 69.1359C18.5686 67.8039 19.6416 66.7203 20.9605 66.7203C22.2617 66.7203 23.3525 67.8503 23.3525 69.1359C23.3525 70.4679 22.2794 71.5516 20.9605 71.5516ZM41.7784 74.6668C36.0881 74.6668 30.4611 73.3005 25.4319 70.7065C25.6361 70.1199 25.7261 69.4516 25.6864 68.8291C38.5577 64.1776 49.8052 56.0487 58.3258 45.2397C59.0258 45.5689 59.8025 45.7199 60.5743 45.6794C61.0952 47.6176 61.5068 49.595 61.7985 51.5723C62.0218 53.0859 64.3421 52.7477 64.1181 51.2284C63.8084 49.1289 63.37 47.0291 62.8133 44.9725C63.0936 44.7976 63.354 44.5937 63.5913 44.3657C67.5037 47.0286 71.1514 50.0856 74.4559 53.4688C72.4065 58.0109 69.4237 62.1235 65.634 65.5218C65.2593 65.2397 64.8414 65.0128 64.3929 64.8513C64.6234 62.6661 64.7237 60.4597 64.6899 58.2775C64.6662 56.7419 62.3215 56.7779 62.3454 58.3138C62.3779 60.4115 62.281 62.5324 62.0584 64.633C59.2932 65.0739 57.4847 67.9486 58.2467 70.6427C53.1859 73.2779 47.5153 74.6668 41.7784 74.6668ZM62.8022 71.7559C61.4833 71.7559 60.4103 70.6723 60.4103 69.3403C60.5419 66.1356 65.0631 66.1367 65.1942 69.3403C65.1942 70.6723 64.1212 71.7559 62.8022 71.7559Z" fill="#FF782D"/>
</svg>
