<svg width="79" height="81" viewBox="0 0 79 81" fill="none" xmlns="http://www.w3.org/2000/svg">
<path d="M77.1836 57.6224C75.6819 55.4154 73.1344 54.8765 70.367 56.1788L68.9003 56.8246C71.213 51.8951 71.4999 46.4001 70.3486 41.2097C69.0264 35.2483 65.8327 29.4733 60.8565 24.0449C60.4165 23.5649 59.6707 23.5325 59.1905 23.9726C58.7105 24.4125 58.6781 25.1583 59.1182 25.6385C63.8111 30.7576 66.815 36.1683 68.0465 41.7202C69.3436 47.5684 68.589 53.5995 65.279 58.419L50.602 64.8813L50.6141 63.2237C50.6144 63.1819 50.6125 63.1401 50.6083 63.0984C50.2694 59.6915 47.6653 56.9771 44.2754 56.4975C44.2653 56.4959 44.2552 56.4947 44.245 56.4936L31.2004 54.9916C26.1843 54.2776 24.8924 51.2717 18.0991 49.5576C17.6297 45.5748 18.2554 41.3342 19.9702 37.083C22.5529 30.6805 27.6054 24.4602 34.6098 19.046C37.2204 20.897 48.8675 21.1274 51.4739 18.7395C52.8092 19.7536 54.0836 20.7986 55.2707 21.8563C55.4954 22.0566 55.7756 22.1551 56.0547 22.1551C56.3793 22.1551 56.7025 22.0219 56.9354 21.7604C57.3686 21.2742 57.3255 20.5289 56.8393 20.0957C55.538 18.9364 54.1383 17.7925 52.6702 16.6869C53.0142 15.2281 52.5327 13.5206 51.2622 12.5042C54.9541 6.90467 56.0278 3.2396 54.5446 1.3194C53.5259 0.000325701 52.2585 0.619374 51.7173 0.883849C50.8 1.33166 50.2998 1.35525 49.4557 0.803028C47.8455 -0.250627 46.1529 -0.28459 44.4908 0.803028C43.636 1.36233 42.9629 1.36233 42.1085 0.803028C40.498 -0.250627 38.8061 -0.28459 37.1437 0.803028C36.2898 1.36185 35.7878 1.32726 34.8849 0.878502C34.3443 0.609782 33.0784 -0.0194864 32.0532 1.29974C30.6033 3.16585 31.5733 6.71535 35.0161 12.1245C34.8052 12.2385 34.6043 12.3723 34.4167 12.5252C33.0474 11.0792 30.8041 9.57112 27.56 9.93339C24.8692 10.2345 22.885 9.34532 21.694 8.54655C21.1531 8.18427 20.4207 8.32862 20.0581 8.8692C19.6955 9.4101 19.84 10.1425 20.3808 10.5051C21.8989 11.5229 24.422 12.656 27.8216 12.2769C30.328 11.9957 32.0287 13.2766 33.0874 14.5801C33.0729 14.6304 33.0595 14.6811 33.0471 14.7317C32.1441 14.7458 30.7945 14.8301 29.3083 15.1392C25.734 15.8828 23.0807 17.5815 21.6352 20.052C21.3064 20.614 21.4954 21.3363 22.0574 21.6653C22.6195 21.9941 23.3417 21.8049 23.6705 21.2429C25.8206 17.5684 31.0687 17.119 33.1533 17.0909C33.1622 17.1168 33.1728 17.1425 33.1822 17.1682C25.7436 22.9064 20.5647 29.3055 17.7835 36.2004C16.0256 40.5586 15.3234 44.9248 15.6798 49.0741C14.5491 48.9068 13.4054 48.817 12.2561 48.8092V48.0961C12.2561 46.2094 10.7211 44.6746 8.83444 44.6746H3.42167C1.53496 44.6746 0 46.2096 0 48.0961V75.5569C0 77.4437 1.53496 78.9785 3.42167 78.9785H8.83428C10.721 78.9785 12.256 77.4436 12.256 75.5569V75.221L24.0631 79.6157C25.6498 80.2061 27.3128 80.5056 29.0058 80.5056H46.5986C49.2883 80.5056 51.9109 79.7446 54.1826 78.3051C77.6519 63.4272 76.2267 64.3528 76.3622 64.2327C78.2527 62.5547 78.6059 59.7127 77.1836 57.6224ZM49.2612 17.3423C44.9494 18.431 40.7571 18.431 36.4444 17.3423C34.5939 16.8745 35.1301 13.5741 37.1188 14.0729C40.9771 15.0414 44.7282 15.0414 48.5868 14.0729C50.541 13.5823 51.1415 16.8671 49.2612 17.3423ZM33.808 2.97685C33.8173 2.98141 33.8265 2.98613 33.8354 2.99053C35.4312 3.78364 36.8295 3.82672 38.4347 2.77653C40.4436 1.46154 40.6617 3.56995 43.2994 3.56995C44.5692 3.56995 45.2701 3.11145 45.7817 2.77653C46.6366 2.21707 47.3099 2.21739 48.1647 2.77653C49.777 3.8316 51.1415 3.77955 52.7837 2.98754C53.0263 3.8621 52.4772 6.46927 48.9809 11.6748C47.2447 11.6452 44.7251 13.3505 37.5924 11.7632C34.1036 6.49034 33.5641 3.85786 33.808 2.97685ZM74.8606 62.4114L52.9205 76.314C51.0269 77.5139 48.8408 78.1483 46.5987 78.1483H29.0059C27.5947 78.1483 26.2085 77.8986 24.8858 77.4063L12.256 72.7053V60.0075C12.256 59.3563 11.7281 58.8284 11.077 58.8284C10.4259 58.8284 9.898 59.3563 9.898 60.0075V75.5575C9.898 76.144 9.42078 76.621 8.83444 76.621H3.42167C2.83517 76.621 2.35811 76.1438 2.35811 75.5575V48.0967C2.35811 47.5102 2.83517 47.0333 3.42167 47.0333H8.83428C9.42078 47.0333 9.89785 47.5104 9.89785 48.0967V54.4954C9.89785 55.1467 10.4257 55.6745 11.0768 55.6745C11.7279 55.6745 12.2558 55.1467 12.2558 54.4954V51.1679C22.0095 51.2426 24.2025 56.3835 30.8848 57.3287C30.8948 57.3303 30.9049 57.3315 30.915 57.3326L43.959 58.8344C46.243 59.1641 48.0008 60.9829 48.2552 63.2728L48.2389 65.5156H36.0741C35.423 65.5156 34.895 66.0435 34.895 66.6947C34.895 67.346 35.4228 67.8739 36.0741 67.8739H49.4094C49.5583 67.8739 49.7303 67.8409 49.88 67.7756C49.904 67.7649 71.3058 58.3421 71.3307 58.3311C72.8734 57.6455 74.2799 57.5476 75.2337 58.9492C75.9753 60.0384 75.8111 61.5109 74.8606 62.4114Z" fill="#FF782D"/>
<path d="M43.1631 53.4959C43.8142 53.4959 44.3422 52.9681 44.3422 52.3168V50.3623C47.6522 49.8252 49.5836 47.146 50.0037 44.6466C50.5286 41.5243 48.8932 38.8089 45.8374 37.7289C45.2974 37.538 44.8006 37.3554 44.3421 37.1792V29.6613C45.7369 29.8926 46.5744 30.6144 46.6354 30.6684C47.1143 31.1039 47.8556 31.0717 48.295 30.5953C48.7366 30.1166 48.7064 29.3707 48.2277 28.9292C48.1446 28.8524 46.7005 27.5522 44.3421 27.2804V25.6036C44.3421 24.9523 43.8142 24.4244 43.1629 24.4244C42.5118 24.4244 41.984 24.9523 41.984 25.6036V27.3756C41.6997 27.4301 41.4085 27.4992 41.1092 27.5893C39.1092 28.1917 37.6141 29.9067 37.2074 32.0648C36.8383 34.0232 37.4593 35.9066 38.8277 36.9799C39.6134 37.5961 40.6025 38.1603 41.984 38.7635V48.0879C40.6204 48.0302 39.781 47.7742 38.3168 46.8163C37.772 46.46 37.0412 46.6124 36.6847 47.1575C36.3282 47.7023 36.4809 48.4332 37.0259 48.7896C38.9507 50.0488 40.2373 50.3773 41.984 50.4452V52.3168C41.984 52.9681 42.5118 53.4959 43.1631 53.4959ZM40.2831 35.1245C39.61 34.5965 39.3192 33.5914 39.5247 32.5016C39.7153 31.4909 40.4102 30.2629 41.7895 29.8474C41.855 29.8276 41.9195 29.8106 41.984 29.7933V36.1623C41.278 35.8098 40.7243 35.4706 40.2831 35.1245ZM45.0515 39.9522C47.9856 40.9892 47.8038 43.5085 47.6782 44.2558C47.4181 45.8032 46.2822 47.4552 44.3421 47.9523V39.6967C44.5716 39.7807 44.8061 39.8654 45.0515 39.9522Z" fill="#FF782D"/>
</svg>
