<svg width="80" height="81" viewBox="0 0 80 81" fill="none" xmlns="http://www.w3.org/2000/svg">
<path d="M75.6741 78.1479H72.7124V55.0338C72.7124 54.3825 72.1845 53.8545 71.5331 53.8545C70.8817 53.8545 70.3538 54.3825 70.3538 55.0338V78.1479H64.4303V45.5654H70.3538V49.5305C70.3538 50.1817 70.8817 50.7098 71.5331 50.7098C72.1845 50.7098 72.7124 50.1817 72.7124 49.5305V45.0152C72.7124 44.0182 71.9012 43.207 70.9042 43.207H63.88C62.8829 43.207 62.0718 44.0182 62.0718 45.0152V78.1479H60.0822V59.872C60.0822 58.875 59.271 58.0638 58.274 58.0638H51.2498C50.2528 58.0638 49.4416 58.875 49.4416 59.872V78.1479H47.4522V51.7971C47.4522 50.8 46.641 49.9888 45.6439 49.9888H38.6198C37.6227 49.9888 36.8115 50.8 36.8115 51.7971V78.1479H34.822V71.8583C34.822 71.207 34.2942 70.679 33.6427 70.679C32.9913 70.679 32.4634 71.207 32.4634 71.8583V78.1479H26.5399V45.3077H32.4634V66.355C32.4634 67.0063 32.9913 67.5343 33.6427 67.5343C34.2942 67.5343 34.822 67.0063 34.822 66.355V44.7573C34.822 43.7603 34.0108 42.9491 33.0138 42.9491H25.9896C24.9926 42.9491 24.1814 43.7603 24.1814 44.7573V78.1479H22.192V59.6678C22.192 58.6707 21.3808 57.8595 20.3837 57.8595H13.3594C12.3624 57.8595 11.5512 58.6707 11.5512 59.6678V78.1479H8.58944C7.93801 78.1479 7.41016 78.6759 7.41016 79.3272C7.41016 79.9784 7.93801 80.5064 8.58944 80.5064H75.6741C76.3256 80.5064 76.8534 79.9784 76.8534 79.3272C76.8534 78.6759 76.3254 78.1479 75.6741 78.1479ZM19.8333 78.1479H13.9098V60.2181H19.8333V78.1479ZM45.0935 78.1479H39.17V52.3474H45.0935V78.1479ZM57.7236 78.1479H51.8001V60.4224H57.7236V78.1479Z" fill="#FF782D"/>
<path d="M18.5455 26.7361C18.5455 29.2673 19.4106 31.5988 20.8575 33.4558L19.7784 34.4996C18.942 33.9516 17.9436 33.6318 16.8712 33.6318C13.9376 33.6318 11.5509 36.0185 11.5509 38.9521C11.5509 41.8857 13.9376 44.2724 16.8712 44.2724C19.8048 44.2724 22.1915 41.8857 22.1915 38.9521C22.1915 37.9429 21.9091 36.9985 21.4192 36.1938L22.4961 35.1523C24.3966 36.7367 26.8392 37.692 29.5012 37.692C32.6043 37.692 35.4079 36.3932 37.4033 34.3132L49.9334 43.9677C49.6183 44.6468 49.4411 45.4023 49.4411 46.1989C49.4411 49.1325 51.8278 51.5192 54.7614 51.5192C57.695 51.5192 60.0818 49.1325 60.0818 46.1989C60.0818 45.1276 59.7624 44.1299 59.2154 43.2942L64.631 37.7011C65.4364 38.192 66.3815 38.475 67.3916 38.475C70.3252 38.475 72.7119 36.0883 72.7119 33.1547C72.7119 30.2211 70.3252 27.8344 67.3916 27.8344C64.458 27.8344 62.0713 30.2211 62.0713 33.1547C62.0713 34.226 62.3907 35.2236 62.9377 36.0594L57.5221 41.6523C56.7167 41.1616 55.7715 40.8784 54.7614 40.8784C53.4754 40.8784 52.2945 41.3372 51.3736 42.0997L38.8464 32.4476C39.8673 30.7834 40.4571 28.8273 40.4571 26.7359C40.4571 25.2989 40.1809 23.8985 39.6362 22.5733C39.3886 21.971 38.7 21.6838 38.0972 21.931C37.4948 22.1787 37.2072 22.8677 37.4548 23.4702C37.8819 24.5094 38.0986 25.6082 38.0986 26.7361C38.0986 28.286 37.6842 29.7401 36.9636 30.9971L34.3292 28.9673C34.6444 28.2882 34.8216 27.5325 34.8216 26.7359C34.8216 23.8023 32.4348 21.4156 29.5012 21.4156C26.5676 21.4156 24.1809 23.8023 24.1809 26.7359C24.1809 27.7451 24.4633 28.6894 24.9533 29.4942L22.5636 31.8054C21.5212 30.3829 20.9039 28.6305 20.9039 26.7359C20.9039 25.5887 21.1311 24.4942 21.5409 23.4927H22.1879C23.2526 23.4927 24.1185 22.6266 24.1185 21.562V20.0426C25.5929 18.8537 27.4642 18.1386 29.5012 18.1386C31.2639 18.1386 32.9592 18.6699 34.4041 19.6751C34.9387 20.0471 35.6735 19.9152 36.0455 19.3806C36.4175 18.846 36.2856 18.1111 35.751 17.739C33.9089 16.4574 31.7479 15.7798 29.5012 15.7798C27.5458 15.7798 25.7093 16.2964 24.1185 17.198V13.7659C24.1185 12.7013 23.2524 11.8352 22.1879 11.8352H1.93057C0.865912 11.8352 0 12.7013 0 13.7659V21.5623C0 22.627 0.866069 23.493 1.93057 23.493H19.0406C18.7211 24.5184 18.5455 25.6066 18.5455 26.7361ZM16.8712 41.9138C15.2381 41.9138 13.9095 40.5852 13.9095 38.9521C13.9095 37.319 15.2381 35.9903 16.8712 35.9903C18.5043 35.9903 19.833 37.319 19.833 38.9521C19.833 40.5852 18.5043 41.9138 16.8712 41.9138ZM67.3918 30.193C69.0249 30.193 70.3535 31.5216 70.3535 33.1547C70.3535 34.7878 69.0249 36.1164 67.3918 36.1164C65.7587 36.1164 64.43 34.7878 64.43 33.1547C64.43 31.5216 65.7587 30.193 67.3918 30.193ZM54.7616 43.2371C56.3947 43.2371 57.7233 44.5658 57.7233 46.1989C57.7233 47.832 56.3947 49.1606 54.7616 49.1606C53.1285 49.1606 51.7999 47.832 51.7999 46.1989C51.7999 44.5658 53.1285 43.2371 54.7616 43.2371ZM29.5012 23.7743C31.1343 23.7743 32.463 25.103 32.463 26.7361C32.463 28.3691 31.1343 29.6978 29.5012 29.6978C27.8682 29.6978 26.5395 28.3691 26.5395 26.7361C26.5395 25.103 27.8683 23.7743 29.5012 23.7743ZM26.5942 31.1884C27.4306 31.7364 28.429 32.0562 29.5014 32.0562C30.7874 32.0562 31.9683 31.5974 32.8893 30.835L35.5232 32.8644C33.9707 34.39 31.8446 35.3332 29.5014 35.3332C27.5042 35.3332 25.6654 34.6467 24.2043 33.5L26.5942 31.1884ZM2.35842 21.1343V14.1936H21.7599V21.1343H2.35842Z" fill="#FF782D"/>
<path d="M8.11705 16.4847H5.2789C4.62746 16.4847 4.09961 17.0127 4.09961 17.664C4.09961 18.3153 4.62746 18.8433 5.2789 18.8433H8.11721C8.76865 18.8433 9.2965 18.3153 9.2965 17.664C9.2965 17.0127 8.76849 16.4847 8.11705 16.4847Z" fill="#FF782D"/>
<path d="M18.8392 16.4847H11.8004C11.1489 16.4847 10.6211 17.0127 10.6211 17.664C10.6211 18.3153 11.1489 18.8433 11.8004 18.8433H18.8392C19.4906 18.8433 20.0185 18.3153 20.0185 17.664C20.0185 17.0127 19.4904 16.4847 18.8392 16.4847Z" fill="#FF782D"/>
<path d="M64.8222 22.9459C64.8362 22.9749 64.8513 23.0032 64.8675 23.031L66.3949 25.6339C66.6067 25.9946 66.9938 26.2163 67.4121 26.2163C67.8305 26.2163 68.2175 25.9946 68.4293 25.6338L69.9567 23.0305C69.973 23.0029 69.988 22.9746 70.0018 22.9458C75.2415 21.7517 79.0311 17.0091 79.0311 11.6191C79.0311 8.41396 77.7541 5.42926 75.4355 3.21518C73.118 1.00221 70.0735 -0.133837 66.8635 0.0128663C63.9931 0.145261 61.2796 1.34515 59.2234 3.39145C57.1669 5.43807 55.954 8.14555 55.8084 11.0152C55.5202 16.6937 59.3043 21.6909 64.8222 22.9459ZM58.1638 11.135C58.4023 6.43622 62.2713 2.58576 66.9721 2.36908C69.5328 2.25068 71.9594 3.15716 73.8065 4.92107C75.6547 6.68591 76.6725 9.06477 76.6725 11.6193C76.6725 15.9495 73.6046 19.7553 69.3779 20.6685C68.704 20.8141 68.1395 21.2874 67.8742 21.919L67.4121 22.7069L66.9498 21.919C66.6844 21.2875 66.1187 20.8141 65.4428 20.6677C60.9936 19.7045 57.9325 15.6954 58.1638 11.135Z" fill="#FF782D"/>
<path d="M66.2116 12.7986H68.6111C69.1578 12.7986 69.6026 13.2434 69.6026 13.7901C69.6026 14.337 69.1578 14.7818 68.6111 14.7818H64.3836C63.7321 14.7818 63.2043 15.3098 63.2043 15.9611C63.2043 16.6124 63.7321 17.1404 64.3836 17.1404H66.2321V18.189C66.2321 18.8403 66.7599 19.3683 67.4113 19.3683C68.0628 19.3683 68.5906 18.8403 68.5906 18.189V17.1404H68.6111C70.4583 17.1404 71.9612 15.6375 71.9612 13.7901C71.9612 11.9429 70.4583 10.44 68.6111 10.44H66.2116C65.6647 10.44 65.2199 9.99515 65.2199 9.44827C65.2199 8.90156 65.6647 8.45673 66.2116 8.45673H70.4391C71.0906 8.45673 71.6184 7.92872 71.6184 7.27744C71.6184 6.62616 71.0906 6.09815 70.4391 6.09815H68.5906V5.04953C68.5906 4.39825 68.0628 3.87024 67.4113 3.87024C66.7599 3.87024 66.2321 4.39825 66.2321 5.04953V6.09815H66.2116C64.3644 6.09815 62.8613 7.60104 62.8613 9.44843C62.8613 11.2957 64.3644 12.7986 66.2116 12.7986Z" fill="#FF782D"/>
</svg>
