<svg width="80" height="75" viewBox="0 0 80 75" fill="none" xmlns="http://www.w3.org/2000/svg">
<path d="M65.1018 28.493V24.4745L66.0031 20.6288C66.1713 19.9111 66.0076 19.1678 65.5542 18.5894C65.1007 18.011 64.4212 17.6794 63.6903 17.6794H49.0295C48.2984 17.6794 47.6191 18.0111 47.1655 18.5894C46.7118 19.1676 46.5484 19.911 46.7165 20.6288L47.6179 24.4745V28.4931C44.5502 29.7263 41.7617 31.6077 39.4467 33.9989L39.2878 33.7494V20.0021C40.4023 19.4388 41.1696 18.276 41.1696 16.935C41.1696 15.0443 39.6449 13.5061 37.7707 13.5061H21.3296C19.4555 13.5061 17.9308 15.0443 17.9308 16.935C17.9308 18.276 18.6981 19.4388 19.8127 20.0021V24.4199C19.8127 25.0729 20.3373 25.6023 20.9847 25.6023C21.6322 25.6023 22.1568 25.0729 22.1568 24.4199V20.3637H36.9436V34.0962C36.9436 34.3227 37.0081 34.5446 37.1294 34.7352L38.2877 36.5544C38.2894 36.5573 38.2913 36.5601 38.2931 36.563L41.4313 41.4925C41.6553 41.8442 42.033 42.0361 42.4185 42.0361C42.6354 42.0361 42.8548 41.9754 43.0507 41.8485C43.5953 41.4957 43.7533 40.7642 43.4036 40.2148L40.7505 36.047C43.0778 33.5181 45.9763 31.5812 49.1845 30.4231C49.6506 30.2549 49.9618 29.8092 49.9618 29.3098V24.3364C49.9618 24.2448 49.9513 24.1535 49.9303 24.0643L48.9976 20.0844C48.9957 20.0763 48.994 20.0688 49.0037 20.0563C49.0134 20.0439 49.0212 20.0439 49.0293 20.0439H63.6902C63.6983 20.0439 63.706 20.0439 63.7156 20.0563C63.7253 20.0688 63.7236 20.0763 63.7217 20.0844L62.789 24.0643C62.768 24.1533 62.7576 24.2448 62.7576 24.3364V29.3098C62.7576 29.8092 63.0685 30.2547 63.5348 30.4231C71.981 33.4719 77.6558 41.6032 77.6558 50.6566C77.6558 62.2523 68.5023 71.7302 57.1023 72.1265C57.5125 71.6768 57.8763 71.1723 58.179 70.6132C58.3515 70.2946 58.4983 69.9688 58.6222 69.6382C61.5779 69.28 64.427 68.2163 66.9067 66.5347C67.4439 66.1703 67.5867 65.4357 67.2256 64.8937C66.8643 64.3518 66.1363 64.2078 65.5992 64.5719C63.6384 65.9014 61.4144 66.7899 59.0965 67.1814C59.1266 65.7363 58.7313 64.2919 57.9113 63.0038L49.3897 49.6178L51.9098 48.3595C55.7458 46.4442 60.1844 46.3625 64.0872 48.1358C66.5021 49.2328 69.1763 49.7345 71.8205 49.5874C71.8488 49.5858 71.877 49.5831 71.9051 49.5795L72.9243 49.4474C72.9532 49.8494 72.9677 50.2554 72.9677 50.6564C72.9677 54.5627 71.5996 58.3682 69.1155 61.3722C68.7009 61.8737 68.7675 62.6193 69.2646 63.0375C69.4839 63.222 69.75 63.312 70.0149 63.312C70.3504 63.312 70.6835 63.1674 70.9154 62.8871C73.7506 59.4588 75.3119 55.1153 75.3119 50.6564C75.3119 50.1302 75.2899 49.5967 75.2464 49.0709C75.1975 48.478 74.9061 47.9232 74.4471 47.549C73.988 47.1744 73.3879 47.0034 72.8027 47.0789L71.6497 47.2283C69.3921 47.3475 67.1111 46.9159 65.0499 45.9794C60.5054 43.9145 55.3369 44.0094 50.8701 46.24L48.1153 47.6157L46.1028 44.4545C45.7531 43.9049 45.0279 43.7455 44.4834 44.0985C43.9388 44.4513 43.7808 45.1828 44.1306 45.7322L55.9392 64.2815C56.9534 65.8746 57.0218 67.8179 56.122 69.4796C55.4387 70.7416 54.3176 71.6161 52.9957 71.9643C52.9878 71.9664 52.9796 71.9678 52.9717 71.97C52.5604 72.0762 52.1305 72.1333 51.6877 72.1333H7.41275C5.5358 72.1333 3.87825 71.1412 2.97846 69.4796C2.07881 67.8179 2.14726 65.8747 3.16145 64.2817L21.971 34.735C22.0922 34.5444 22.1568 34.3226 22.1568 34.096V29.4584C22.1568 28.8054 21.6322 28.2761 20.9847 28.2761C20.3373 28.2761 19.8127 28.8054 19.8127 29.4584V33.7489L1.18917 63.0041C-0.295542 65.3364 -0.395867 68.181 0.921327 70.6136C2.23852 73.0461 4.66507 74.4985 7.41275 74.4985H51.6876C52.2597 74.4985 52.8166 74.432 53.3539 74.3105C54.3523 74.4385 55.3621 74.5061 56.3597 74.5061C69.3951 74.5061 80 63.8073 80 50.6569C80 40.8875 74.0469 32.0854 65.1018 28.493ZM21.3296 17.9991C20.748 17.9991 20.2748 17.5218 20.2748 16.935C20.2748 16.3482 20.748 15.8709 21.3296 15.8709H37.7706C38.3522 15.8709 38.8254 16.3482 38.8254 16.935C38.8254 17.5218 38.3522 17.9991 37.7706 17.9991H21.3296Z" fill="#FF782D"/>
<path d="M30.0002 10.5061C32.7572 10.5061 35 8.26314 35 5.5061C35 2.74906 32.757 0.506104 30.0002 0.506104C27.2433 0.506104 25 2.74906 25 5.5061C25 8.26298 27.2431 10.5061 30.0002 10.5061ZM30.0002 2.90073C31.4366 2.90073 32.6052 4.06939 32.6052 5.50594C32.6052 6.9425 31.4366 8.11116 30.0002 8.11116C28.5636 8.11116 27.3949 6.9425 27.3949 5.50594C27.3948 4.06955 28.5636 2.90073 30.0002 2.90073Z" fill="#FF782D"/>
<path d="M56.9999 14.5061C59.757 14.5061 62 12.2631 62 9.5061C62 6.74906 59.7568 4.5061 56.9999 4.5061C54.243 4.5061 52 6.74906 52 9.5061C52 12.2631 54.243 14.5061 56.9999 14.5061ZM56.9999 6.90089C58.4365 6.90089 59.6052 8.06955 59.6052 9.5061C59.6052 10.9427 58.4365 12.1113 56.9999 12.1113C55.5635 12.1113 54.3948 10.9427 54.3948 9.5061C54.3948 8.06955 55.5635 6.90089 56.9999 6.90089Z" fill="#FF782D"/>
</svg>
