<svg width="80" height="81" viewBox="0 0 80 81" fill="none" xmlns="http://www.w3.org/2000/svg">
<path d="M58 18.969C58 18.4249 57.3865 18 56.9028 18C56.7899 18 56.677 18.0134 56.5968 18.0666L52.4999 20.2566C52.1292 20.4559 52 20.7744 52 21C52 21.2256 52.1292 21.5441 52.4999 21.7434L56.5968 23.9334C56.677 23.9866 56.7899 24 56.9028 24C57.3865 24 58 23.5751 58 23.031C58 22.8054 57.8871 22.6061 57.7096 22.5132L54.8704 21L57.7096 19.4868C57.8864 19.3939 58 19.1946 58 18.969Z" fill="#FF782D"/>
<path d="M65.0963 14C64.8205 14 64.5751 14.1169 64.453 14.3669L59.0769 24.9439C59.031 25.0317 59 25.1344 59 25.2229C59 25.5892 59.3372 26 59.8584 26C60.1491 26 60.4404 25.8534 60.5477 25.6337L65.9386 15.0561C65.9845 14.9683 66 14.8656 66 14.7771C65.9994 14.3081 65.5246 14 65.0963 14Z" fill="#FF782D"/>
<path d="M72.5833 20.2566L69.1695 18.0666C69.102 18.0134 69.0079 18 68.9138 18C68.5108 18 68 18.4249 68 18.969C68 19.1946 68.0941 19.3939 68.2421 19.4868L70.6077 21L68.2421 22.5132C68.0941 22.6061 68 22.8054 68 23.031C68 23.5751 68.5108 24 68.9138 24C69.0079 24 69.102 23.9866 69.1695 23.9334L72.5833 21.7434C72.8929 21.5441 73 21.2256 73 21C73 20.7744 72.8929 20.4559 72.5833 20.2566Z" fill="#FF782D"/>
<path d="M74.3959 5.89925H49.1427C47.8379 2.45338 44.5337 0 40.6737 0H23.7356C18.7381 0 14.6715 4.1139 14.6715 9.1696V19.582C13.6611 20.4626 13.1914 21.8401 13.44 23.2268L14.1059 26.9335C14.3453 28.2065 15.0136 28.8609 15.5316 29.1854C16.1113 29.5481 16.7546 29.668 17.3453 29.6711V30.3299C17.3453 33.6719 19.2726 37.3551 22.6329 40.4357C23.2658 41.0154 23.9237 41.5499 24.5944 42.0332V44.0206C24.5944 44.6263 24.1674 45.146 23.5786 45.2566C23.5511 45.2615 23.5242 45.2677 23.4973 45.2745C23.4772 45.2801 21.4637 45.8109 18.8315 46.5661H10.2311C9.26413 46.5661 8.33134 46.9771 7.67222 47.6927C7.01309 48.4083 6.67467 49.3792 6.7437 50.3549L6.76691 50.6899C2.92029 52.6415 0.500035 56.1405 0.269128 60.1172C0.268517 60.1339 0.267906 60.1506 0.267295 60.1672L0.000346651 76.4999C-0.0143141 77.6975 0.436505 78.8266 1.26789 79.6788C2.1005 80.531 3.21045 81 4.39492 81H60.0149C61.1988 81 62.3093 80.531 63.1413 79.6788C63.9733 78.8266 64.4241 77.6981 64.4095 76.4949L64.1425 60.1672C64.1419 60.1506 64.1413 60.1339 64.1401 60.1172C63.9031 56.0255 61.3484 52.44 57.3057 50.5249C57.2318 50.4897 57.1542 50.4538 57.0742 50.4174L57.0785 50.3549C57.1469 49.3792 56.8085 48.4089 56.15 47.6927C55.4908 46.9771 54.558 46.5661 53.591 46.5661H45.5783C42.9467 45.8109 40.9327 45.2801 40.9125 45.2751C40.8856 45.2677 40.8587 45.2615 40.8313 45.2566C40.2424 45.146 39.8154 44.6263 39.8154 44.0206V42.0338C40.4861 41.5499 41.144 41.0154 41.7769 40.4357C43.9125 38.478 45.4696 36.2767 46.3205 34.0742H53.9411L52.61 39.5094C52.3882 40.416 52.7438 41.3318 53.5159 41.8429C53.8787 42.0833 54.2856 42.2025 54.6906 42.2025C55.1487 42.2025 55.6044 42.0505 55.993 41.7483L65.8682 34.0742H74.3959C77.4863 34.0742 80 31.5312 80 28.4049V11.5686C80 8.44286 77.4863 5.89925 74.3959 5.89925ZM47.067 21.6318C47.5154 21.4773 47.9399 21.4137 48.2166 21.3883C48.585 21.7189 48.7585 22.2634 48.662 22.8023L47.9998 26.4904C47.9033 27.0051 47.7078 27.1275 47.6436 27.1677C47.5074 27.253 47.3064 27.2968 47.0658 27.2993L47.067 21.6318ZM17.0172 9.1696C17.0172 5.42216 20.0313 2.37305 23.7356 2.37305H40.6743C44.3786 2.37305 47.3926 5.42216 47.3926 9.1696V19.1111C46.8122 19.2149 46.0896 19.4139 45.384 19.7945V12.5648C45.384 9.96494 43.293 7.84959 40.7231 7.84959H37.5533C36.4544 7.84959 35.3811 8.23707 34.5302 8.94033L34.2199 9.19741C33.653 9.66646 32.937 9.92477 32.2046 9.92477C31.4722 9.92477 30.7568 9.66646 30.19 9.19803L29.879 8.94033C29.0287 8.23707 27.9548 7.84959 26.8559 7.84959H23.6867C21.1168 7.84959 19.0258 9.96432 19.0258 12.5648V19.7939C18.3202 19.4139 17.5976 19.2143 17.0172 19.1111V9.1696ZM16.7662 27.1677C16.702 27.1275 16.5066 27.0051 16.4119 26.5003L15.7479 22.8029C15.6514 22.264 15.8248 21.7202 16.192 21.3889C16.4687 21.4143 16.8939 21.4767 17.3428 21.6312L17.3441 27.2993C17.104 27.2968 16.903 27.253 16.7662 27.1677ZM6.38879 77.7673C6.38879 78.0652 6.4291 78.3532 6.50363 78.627H4.39492C3.8427 78.627 3.32529 78.4082 2.93678 78.0108C2.54888 77.6135 2.33935 77.0869 2.34546 76.5339L2.61241 60.2321C2.7859 57.3832 4.34666 54.9132 6.95078 53.2978L8.38265 73.6225C8.40892 73.9958 8.49322 74.3524 8.62517 74.6842C7.33013 75.097 6.38879 76.3231 6.38879 77.7673ZM55.4389 73.6225L56.894 52.9702C59.8371 54.5677 61.6117 57.1824 61.7974 60.2321L62.0644 76.5289C62.0705 77.0869 61.8603 77.6135 61.473 78.0108C61.0845 78.4082 60.5671 78.627 60.0149 78.627H57.9062C57.9813 78.3532 58.021 78.0652 58.021 77.7673C58.021 76.1278 56.8085 74.7701 55.2428 74.5631C55.3485 74.2659 55.4163 73.9507 55.4389 73.6225ZM55.6753 77.7673C55.6753 78.2413 55.2941 78.627 54.8262 78.627H9.58362C9.11569 78.627 8.73451 78.2413 8.73451 77.7673C8.73451 77.294 9.11569 76.9083 9.58362 76.9083H54.8262C55.2941 76.9083 55.6753 77.294 55.6753 77.7673ZM54.4334 49.3099C54.6533 49.5491 54.7621 49.8599 54.7388 50.1862L53.0993 73.4545C53.0565 74.0607 52.5526 74.5353 51.9515 74.5353H11.8701C11.2696 74.5353 10.7656 74.0607 10.7223 73.4538L9.08332 50.1862C9.0601 49.8599 9.16884 49.5491 9.38875 49.3099C9.60927 49.0708 9.90799 48.9391 10.2311 48.9391H53.591C53.9136 48.9391 54.2129 49.0708 54.4334 49.3099ZM38.5002 46.5661H25.9096C26.551 45.9061 26.9402 45.0026 26.9402 44.0206V43.4898C28.7892 44.4582 30.6267 45.0014 32.2046 45.0014C33.7825 45.0014 35.62 44.4582 37.4697 43.4898V44.0206C37.4697 45.0026 37.8588 45.9061 38.5002 46.5661ZM40.2015 38.677C37.5827 41.0772 34.444 42.6283 32.2046 42.6283C29.9658 42.6283 26.8271 41.0772 24.2084 38.677C21.3373 36.0462 19.691 33.0033 19.691 30.3293L19.6886 22.8542C19.7038 22.8542 19.7191 22.8548 19.7344 22.8548C19.9464 22.8548 20.1602 22.8128 20.3648 22.7262C20.9763 22.4679 21.3715 21.8679 21.3715 21.198V12.5648C21.3715 11.2732 22.41 10.2226 23.6867 10.2226H26.8565C27.4154 10.2226 27.9615 10.4198 28.394 10.7776L28.7056 11.0353C29.6903 11.8492 30.9328 12.2978 32.2046 12.2978C33.4764 12.2978 34.7195 11.8492 35.7043 11.0347L36.0152 10.7776C36.4477 10.4198 36.9944 10.2226 37.5533 10.2226H40.7225C41.9992 10.2226 43.0383 11.2732 43.0383 12.5648V21.198C43.0383 21.8685 43.4329 22.4679 44.045 22.7262C44.2637 22.8189 44.494 22.8604 44.7206 22.8542L44.7188 30.3299C44.7194 33.0033 43.0725 36.0462 40.2015 38.677ZM77.6543 28.4049C77.6543 30.2224 76.1931 31.7012 74.3959 31.7012H65.4699C65.2115 31.7012 64.9605 31.7877 64.7558 31.9471L55.0272 39.5069L56.5782 33.1732C56.6649 32.8191 56.5861 32.444 56.3638 32.1566C56.1414 31.8693 55.8005 31.7012 55.4401 31.7012H46.9607C47.0297 31.2396 47.0651 30.7816 47.0651 30.3299V29.6711C47.6552 29.668 48.2985 29.5481 48.8782 29.1854C49.3968 28.8609 50.0651 28.2065 50.3058 26.9242L50.9698 23.2268C51.219 21.8401 50.7481 20.462 49.7383 19.582V9.1696C49.7383 8.86741 49.7236 8.56769 49.6949 8.27229H74.3959C76.1931 8.27229 77.6543 9.75112 77.6543 11.5686V28.4049Z" fill="#FF782D"/>
<path d="M31.5 67C33.9813 67 36 64.9813 36 62.5C36 60.0187 33.9813 58 31.5 58C29.0187 58 27 60.0187 27 62.5C27 64.9813 29.0187 67 31.5 67ZM31.5 60.394C32.6615 60.394 33.606 61.3392 33.606 62.5C33.606 63.6615 32.6615 64.606 31.5 64.606C30.3392 64.606 29.394 63.6615 29.394 62.5C29.394 61.3392 30.3392 60.394 31.5 60.394Z" fill="#FF782D"/>
</svg>
