<svg xmlns="http://www.w3.org/2000/svg" width="20" height="21" viewBox="0 0 20 21" fill="none"><path fill-rule="evenodd" clip-rule="evenodd" d="M4.16675 4.63346C3.70651 4.63346 3.33341 5.00656 3.33341 5.4668V17.1335C3.33341 17.5937 3.70651 17.9668 4.16675 17.9668H15.8334C16.2937 17.9668 16.6667 17.5937 16.6667 17.1335V5.4668C16.6667 5.00656 16.2937 4.63346 15.8334 4.63346H4.16675ZM1.66675 5.4668C1.66675 4.08608 2.78604 2.9668 4.16675 2.9668H15.8334C17.2141 2.9668 18.3334 4.08608 18.3334 5.4668V17.1335C18.3334 18.5142 17.2141 19.6335 15.8334 19.6335H4.16675C2.78604 19.6335 1.66675 18.5142 1.66675 17.1335V5.4668Z" fill="#FF782D"></path><path fill-rule="evenodd" clip-rule="evenodd" d="M13.3333 1.30029C13.7936 1.30029 14.1667 1.67339 14.1667 2.13363V5.46696C14.1667 5.9272 13.7936 6.30029 13.3333 6.30029C12.8731 6.30029 12.5 5.9272 12.5 5.46696V2.13363C12.5 1.67339 12.8731 1.30029 13.3333 1.30029Z" fill="#FF782D"></path><path fill-rule="evenodd" clip-rule="evenodd" d="M6.66659 1.30029C7.12682 1.30029 7.49992 1.67339 7.49992 2.13363V5.46696C7.49992 5.9272 7.12682 6.30029 6.66659 6.30029C6.20635 6.30029 5.83325 5.9272 5.83325 5.46696V2.13363C5.83325 1.67339 6.20635 1.30029 6.66659 1.30029Z" fill="#FF782D"></path><path fill-rule="evenodd" clip-rule="evenodd" d="M1.66675 8.80013C1.66675 8.33989 2.03984 7.9668 2.50008 7.9668H17.5001C17.9603 7.9668 18.3334 8.33989 18.3334 8.80013C18.3334 9.26037 17.9603 9.63346 17.5001 9.63346H2.50008C2.03984 9.63346 1.66675 9.26037 1.66675 8.80013Z" fill="#FF782D"></path></svg>