<svg xmlns="http://www.w3.org/2000/svg" width="20" height="21" viewBox="0 0 20 21" fill="none"><path fill-rule="evenodd" clip-rule="evenodd" d="M9.99992 3.16667C5.85778 3.16667 2.49992 6.52453 2.49992 10.6667C2.49992 14.8088 5.85778 18.1667 9.99992 18.1667C14.1421 18.1667 17.4999 14.8088 17.4999 10.6667C17.4999 6.52453 14.1421 3.16667 9.99992 3.16667ZM0.833252 10.6667C0.833252 5.60406 4.93731 1.5 9.99992 1.5C15.0625 1.5 19.1666 5.60406 19.1666 10.6667C19.1666 15.7293 15.0625 19.8333 9.99992 19.8333C4.93731 19.8333 0.833252 15.7293 0.833252 10.6667ZM9.99992 4.83333C10.4602 4.83333 10.8333 5.20643 10.8333 5.66667V10.1516L13.7059 11.588C14.1176 11.7938 14.2844 12.2944 14.0786 12.706C13.8728 13.1177 13.3722 13.2845 12.9606 13.0787L9.62724 11.412C9.34492 11.2709 9.16658 10.9823 9.16658 10.6667V5.66667C9.16658 5.20643 9.53968 4.83333 9.99992 4.83333Z" fill="#FF782D"></path></svg>