<svg xmlns="http://www.w3.org/2000/svg" width="20" height="21" viewBox="0 0 20 21" fill="none"><path d="M18.2193 5.43159C18.1392 5.13156 17.946 4.93876 17.6573 4.84089C17.1097 4.65532 16.5603 4.47418 16.0117 4.29157C14.1084 3.65801 12.2049 3.0251 10.3019 2.39055C10.0761 2.31517 9.85159 2.31024 9.62578 2.3825C9.37108 2.46412 9.11703 2.54754 8.86314 2.63195C7.06213 3.23152 5.26095 3.83044 3.4606 4.43181C3.01572 4.58043 2.57184 4.73234 2.13074 4.89147C1.87948 4.98228 1.72971 5.17081 1.68701 5.43504C1.66911 5.5449 1.66534 5.65822 1.66517 5.77005C1.66402 7.77453 1.66435 9.77901 1.66435 11.7835C1.66435 11.8218 1.66435 11.8602 1.66616 11.8983C1.68406 12.2205 1.90165 12.4995 2.21597 12.6041C2.52175 12.7058 2.86464 12.6084 3.07074 12.3639C3.22215 12.1842 3.26764 11.9724 3.26731 11.7452C3.26649 11.2256 3.26452 10.7062 3.26436 10.1866C3.26386 9.06268 3.26419 7.93875 3.26436 6.81483C3.26436 6.78658 3.26748 6.75817 3.26977 6.72023C4.00007 6.96361 4.71837 7.20321 5.44521 7.44543C4.81362 8.59679 4.62115 9.80562 4.90377 11.0819C5.18656 12.3588 5.85921 13.384 6.92566 14.1631C6.89643 14.1767 6.88428 14.1826 6.8718 14.188C5.61321 14.7418 4.57369 15.569 3.76277 16.6811C3.63106 16.8619 3.48852 17.0374 3.43186 17.2608C3.3532 17.571 3.42086 17.8434 3.66571 18.0554C3.89743 18.2561 4.16478 18.3223 4.45923 18.2114C4.66434 18.1341 4.8059 17.9779 4.92709 17.8022C5.22975 17.3637 5.57117 16.9579 5.98221 16.6183C7.48056 15.3794 9.18534 14.8989 11.1067 15.2599C12.5497 15.531 13.729 16.2523 14.6551 17.3887C14.8171 17.5877 14.9556 17.8068 15.1251 17.9988C15.4804 18.4013 16.1371 18.327 16.3953 17.8602C16.5682 17.5473 16.5196 17.2429 16.3267 16.9558C15.5323 15.7734 14.4939 14.8743 13.2022 14.2705C13.1294 14.2365 13.0565 14.2028 12.9718 14.1636C14.0353 13.3842 14.7051 12.3616 14.9902 11.0875C15.2765 9.80857 15.0805 8.59958 14.4573 7.45069C14.4808 7.44199 14.4931 7.43689 14.5058 7.43279C15.0958 7.23507 15.6862 7.03784 16.2761 6.83946C16.7418 6.68296 17.2077 6.52629 17.6724 6.36667C17.9084 6.28571 18.0879 6.13643 18.1809 5.90028C18.2088 5.82934 18.2255 5.76398 18.331 5.79764C18.2906 5.6661 18.2508 5.55 18.2193 5.43159ZM12.465 12.5036C11.8556 13.1216 11.1125 13.4599 10.2449 13.5239C9.21014 13.6004 8.30167 13.2932 7.52885 12.608C7.08463 12.2144 6.8002 11.7053 6.58999 11.1554C6.44351 10.7717 6.36682 10.3737 6.36928 9.94652C6.36698 9.321 6.56388 8.73736 6.87837 8.18771C6.92139 8.11283 6.95374 8.00379 7.01828 7.97735C7.07839 7.95271 7.17544 8.0161 7.25542 8.04303C8.02102 8.3002 8.78629 8.5577 9.55172 8.8152C9.81694 8.90437 10.0822 8.90585 10.348 8.81684C11.1655 8.54292 11.9833 8.27032 12.8002 7.9941C12.8711 7.97012 12.9077 7.97817 12.9516 8.04418C13.2879 8.54998 13.4789 9.10587 13.5052 9.7107C13.552 10.7855 13.2275 11.7301 12.465 12.5036ZM14.5174 5.74016C13.0445 6.22971 11.5711 6.71843 10.0986 7.20912C10.0005 7.2418 9.90939 7.24131 9.81119 7.20863C8.23976 6.68542 6.66784 6.16402 5.09591 5.64212C5.07062 5.63375 5.04615 5.6234 5.00592 5.60797C5.04665 5.59319 5.07259 5.583 5.09887 5.57414C6.68032 5.04764 8.26176 4.52033 9.84453 3.99729C9.90906 3.97594 9.99315 3.97594 10.0577 3.99745C11.6455 4.52279 13.2319 5.05241 14.8185 5.58136C14.838 5.58793 14.857 5.59565 14.8953 5.6101C14.7577 5.65756 14.638 5.70026 14.5174 5.74016Z" fill="#FF782D"></path></svg>