<svg width="32" height="33" viewBox="0 0 32 33" fill="none" xmlns="http://www.w3.org/2000/svg">
<g clip-path="url(#clip0_1149_4451)">
<path d="M26.7426 22.9003L26.8759 23.0337C27.1786 23.3389 27.5536 23.5627 27.966 23.6842C28.3784 23.8056 28.8148 23.8208 29.2346 23.7283C29.6477 23.6416 30.0323 23.4525 30.3531 23.1782C30.6739 22.904 30.9207 22.5535 31.0706 22.159C31.8067 20.2261 32.1587 18.168 32.1066 16.1003C31.9565 12.039 30.2861 8.1823 27.4263 5.29464C24.5666 2.40698 20.7263 0.699147 16.6666 0.509664C14.5199 0.435022 12.3802 0.793384 10.375 1.56339C8.36973 2.33339 6.54008 3.49927 4.99508 4.99151C3.45008 6.48375 2.22137 8.27181 1.38219 10.2491C0.54301 12.2264 0.110551 14.3524 0.110596 16.5003C0.115536 20.7423 1.80283 24.8091 4.80234 27.8086C7.80186 30.8081 11.8686 32.4954 16.1106 32.5003C16.5613 32.5003 17.0039 32.471 17.4439 32.4337C17.7778 32.4055 18.0888 32.2527 18.3151 32.0057C18.5414 31.7586 18.6664 31.4354 18.6653 31.1003L18.6226 26.3163C18.6118 25.371 18.883 24.4438 19.4016 23.6533C19.9202 22.8628 20.6626 22.2448 21.534 21.8782C22.4055 21.5115 23.3664 21.413 24.2942 21.595C25.2219 21.7771 26.0743 22.2315 26.7426 22.9003ZM22.8199 11.2337C23.2022 11.1322 23.606 11.1464 23.9803 11.2745C24.3545 11.4025 24.6824 11.6386 24.9224 11.953C25.1625 12.2673 25.3039 12.6458 25.3289 13.0406C25.3538 13.4353 25.2612 13.8286 25.0626 14.1707C24.8641 14.5128 24.5686 14.7883 24.2134 14.9625C23.8583 15.1366 23.4595 15.2016 23.0675 15.1491C22.6754 15.0966 22.3078 14.929 22.0109 14.6676C21.7141 14.4062 21.5015 14.0626 21.3999 13.6803C21.3325 13.4264 21.3157 13.1617 21.3506 12.9014C21.3854 12.641 21.4712 12.39 21.6031 12.1628C21.735 11.9356 21.9103 11.7366 22.1191 11.5772C22.3279 11.4178 22.566 11.301 22.8199 11.2337ZM10.5133 23.1003C10.131 23.2018 9.72716 23.1876 9.35292 23.0595C8.97868 22.9315 8.65081 22.6954 8.41076 22.381C8.17071 22.0667 8.02927 21.6882 8.00431 21.2934C7.97935 20.8987 8.072 20.5054 8.27055 20.1633C8.46909 19.8212 8.76461 19.5457 9.11975 19.3715C9.47488 19.1974 9.87368 19.1324 10.2657 19.1849C10.6578 19.2374 11.0254 19.405 11.3222 19.6664C11.6191 19.9278 11.8317 20.2714 11.9333 20.6537C12.0007 20.9076 12.0175 21.1722 11.9826 21.4326C11.9478 21.693 11.862 21.944 11.7301 22.1712C11.5982 22.3984 11.4229 22.5974 11.2141 22.7568C11.0053 22.9162 10.7672 23.033 10.5133 23.1003ZM10.5133 15.1003C10.131 15.2018 9.72716 15.1876 9.35292 15.0595C8.97868 14.9315 8.65081 14.6954 8.41076 14.381C8.17071 14.0667 8.02927 13.6882 8.00431 13.2934C7.97935 12.8987 8.072 12.5054 8.27055 12.1633C8.46909 11.8212 8.76461 11.5457 9.11975 11.3715C9.47488 11.1974 9.87368 11.1324 10.2657 11.1849C10.6578 11.2374 11.0254 11.405 11.3222 11.6664C11.6191 11.9278 11.8317 12.2714 11.9333 12.6537C12.0007 12.9076 12.0175 13.1722 11.9826 13.4326C11.9478 13.693 11.862 13.944 11.7301 14.1712C11.5982 14.3984 11.4229 14.5974 11.2141 14.7568C11.0053 14.9162 10.7672 15.033 10.5133 15.1003ZM17.1799 11.1003C16.7976 11.2018 16.3938 11.1876 16.0196 11.0595C15.6453 10.9315 15.3175 10.6954 15.0774 10.381C14.8374 10.0667 14.6959 9.68817 14.671 9.29342C14.646 8.89867 14.7387 8.50539 14.9372 8.1633C15.1358 7.8212 15.4313 7.54566 15.7864 7.37151C16.1416 7.19736 16.5403 7.13243 16.9324 7.18491C17.3244 7.2374 17.6921 7.40495 17.9889 7.66638C18.2857 7.92782 18.4984 8.27139 18.5999 8.65366C18.6674 8.90755 18.6842 9.17225 18.6493 9.43262C18.6144 9.693 18.5286 9.94395 18.3968 10.1712C18.2649 10.3984 18.0896 10.5974 17.8808 10.7568C17.672 10.9162 17.4338 11.033 17.1799 11.1003Z" fill="#FF782D"/>
</g>
<defs>
<clipPath id="clip0_1149_4451">
<rect width="32" height="32" fill="white" transform="translate(0 0.5)"/>
</clipPath>
</defs>
</svg>
