<svg width="32" height="33" viewBox="0 0 32 33" fill="none" xmlns="http://www.w3.org/2000/svg">
<path d="M14.5342 2.72545C14.535 3.23462 14.5342 3.74379 14.5342 4.25379C14.5333 4.96629 14.3133 5.24712 13.6292 5.42545C12.0325 5.84129 10.5508 6.50379 9.28083 7.57045C8.73083 8.03212 8.25 8.57629 7.77667 9.13462C8.42167 8.68629 9.10167 8.40629 9.88917 8.45545C10.6867 8.50462 11.3525 8.82795 11.87 9.43545C12.6833 10.3905 12.7633 11.7513 12.0775 12.7971C11.4042 13.8246 10.1058 14.298 8.93333 13.9388C8.21583 13.7196 7.6675 13.2813 7.295 12.6305C6.93 11.9905 6.85083 11.3021 7.0025 10.5796C6.96583 10.5713 6.92917 10.5638 6.89333 10.5563C6.715 11.133 6.5 11.7021 6.36667 12.2888C5.96833 14.0471 6.03083 15.793 6.5725 17.5188C6.805 18.2571 6.67583 18.5705 6.005 18.9605C5.55583 19.2213 5.1075 19.483 4.65417 19.7363C4.04333 20.078 3.47167 19.8696 3.22417 19.213C2.23167 16.5738 2.115 13.8888 2.81333 11.163C2.83917 11.0646 2.8625 10.9655 2.9 10.813C2.70917 10.813 2.54917 10.8105 2.38917 10.8138C2.02583 10.8205 1.66 10.8096 1.29917 10.8438C0.711667 10.8988 0.265 10.7163 0 10.168V9.66962C0.938333 7.81962 1.8775 5.97045 2.81583 4.12129C2.85333 4.04712 2.8925 3.97379 2.93333 3.90129C3.30833 3.23795 4.07833 3.17379 4.55083 3.77712C4.96083 4.30045 5.35167 4.83879 5.75167 5.36962C5.81333 5.45045 5.87917 5.52712 5.95167 5.61712C6.85 4.66629 7.84083 3.86795 8.95833 3.22795C10.315 2.45045 11.7658 1.93962 13.3075 1.68879C14.0825 1.56212 14.5317 1.94712 14.5342 2.72545Z" fill="#FF782D"/>
<path d="M30.9408 10.841C30.4217 10.8452 29.9017 10.8218 29.3825 10.8118C29.2817 10.8093 29.1808 10.811 29.0475 10.811C29.1458 11.2602 29.2458 11.671 29.3258 12.0852C29.7875 14.4893 29.585 16.841 28.745 19.1385C28.4708 19.8885 27.9075 20.096 27.2175 19.7018C26.785 19.4543 26.355 19.2027 25.9225 18.9543C25.27 18.5785 25.1333 18.2527 25.3583 17.5368C25.9575 15.6302 25.9733 13.7143 25.4483 11.7935C25.335 11.3793 25.1683 10.9793 24.9825 10.5785C25.0967 11.3718 24.9908 12.1118 24.5525 12.781C24.1083 13.4577 23.4792 13.8718 22.6825 14.0177C21.4592 14.2418 20.2058 13.5885 19.6667 12.4543C19.1225 11.3093 19.4225 9.93517 20.3883 9.11184C21.2442 8.38267 22.7575 8.06184 24.1067 9.1685C24.1283 9.15017 24.1492 9.13184 24.1708 9.11434C23.8783 8.78517 23.6017 8.44017 23.2892 8.13184C21.8983 6.76267 20.21 5.9285 18.3417 5.43267C17.6125 5.23934 17.4042 4.981 17.4033 4.226V2.76017C17.405 1.93934 17.8508 1.55434 18.6583 1.69267C21.4042 2.16184 23.7683 3.37184 25.73 5.356C25.81 5.43684 25.8833 5.52517 25.9833 5.63684C26.3508 5.14934 26.6992 4.68767 27.0475 4.22517C27.16 4.076 27.2683 3.9235 27.385 3.77767C27.8633 3.17934 28.6508 3.22684 29 3.9035C29.9517 5.7485 30.89 7.60017 31.8167 9.45767C32.1608 10.1477 31.715 10.8343 30.9408 10.841Z" fill="#FF782D"/>
<path d="M26.0668 23.8254C24.2493 26.0079 21.9793 27.4804 19.2226 28.1896C19.1626 28.2046 19.1018 28.2204 19.0435 28.2396C19.0251 28.2454 19.0118 28.2646 18.9785 28.2921C19.1701 28.8621 19.3643 29.4404 19.5568 30.0179C19.8368 30.8562 19.4343 31.4112 18.5426 31.4121C16.8276 31.4137 15.1126 31.4137 13.3976 31.4121C12.4918 31.4112 12.1018 30.8579 12.391 29.9921C12.581 29.4237 12.771 28.8546 12.9626 28.2796C12.4251 28.1054 11.8993 27.9529 11.3851 27.7654C9.17512 26.9587 7.34845 25.6129 5.85512 23.8037C5.40179 23.2537 5.50845 22.6429 6.12429 22.2821C6.59095 22.0096 7.05845 21.7404 7.52762 21.4729C8.10429 21.1421 8.48762 21.1971 8.93679 21.6887C10.2001 23.0696 11.7085 24.0629 13.5276 24.5429C14.0943 24.6921 14.6801 24.7671 15.2626 24.8446C13.5501 23.9512 12.8918 22.8437 13.2401 21.3954C13.5435 20.1321 14.6935 19.2404 15.9993 19.2571C17.3001 19.2729 18.4235 20.1729 18.7035 21.4254C19.0301 22.8846 18.3668 23.9887 16.6151 24.8354C17.5443 24.7804 18.3893 24.5987 19.2093 24.2946C20.681 23.7487 21.9185 22.8612 22.9768 21.7121C23.4593 21.1887 23.8235 21.1346 24.4335 21.4862C24.8835 21.7454 25.3343 22.0021 25.7818 22.2646C26.4351 22.6479 26.5468 23.2487 26.0668 23.8254Z" fill="#FF782D"/>
</svg>
