<svg width="32" height="33" viewBox="0 0 32 33" fill="none" xmlns="http://www.w3.org/2000/svg">
<path d="M1.6642 10.8857V11.2141C1.6642 16.2774 1.66336 21.3407 1.66586 26.4041C1.66586 26.6532 1.66753 26.9057 1.7092 27.1499C2.0792 29.3524 3.81753 30.8257 6.06503 30.8299C10.0667 30.8366 14.0692 30.8316 18.0717 30.8316H18.4084C18.35 30.5974 18.2925 30.4191 18.2642 30.2366C18.0342 28.7691 17.8267 27.2982 17.5784 25.8341C17.4567 25.1207 17.5334 24.4682 17.845 23.8082C19.2909 20.7491 20.7125 17.6774 22.1442 14.6116C23.0984 12.5682 25.18 11.8066 27.2242 12.7574C28.2367 13.2274 29.2425 13.7116 30.2409 14.1849V10.8857H1.6642ZM13.2367 26.8366C12.1459 26.8424 11.0559 26.8382 9.96503 26.8382C8.8642 26.8374 7.76336 26.8382 6.66253 26.8374C6.2617 26.8374 5.9592 26.6566 5.77253 26.3099C5.5917 25.9741 5.61003 25.6266 5.81503 25.3032C6.01503 24.9882 6.32003 24.8441 6.68586 24.8441C8.8767 24.8407 11.0684 24.8374 13.26 24.8449C13.8734 24.8474 14.3 25.2832 14.295 25.8557C14.29 26.4299 13.8625 26.8332 13.2367 26.8366ZM16.1759 21.4932C16.0559 21.5199 15.9284 21.5182 15.805 21.5182C14.2984 21.5199 12.7925 21.5191 11.2867 21.5191C9.76003 21.5191 8.23336 21.5224 6.7067 21.5174C5.9892 21.5149 5.50503 20.8999 5.69003 20.2432C5.81253 19.8082 6.20253 19.5249 6.70253 19.5232C7.93836 19.5199 9.17503 19.5224 10.4109 19.5224C12.2492 19.5224 14.0875 19.5199 15.9259 19.5241C16.4759 19.5249 16.9017 19.8991 16.9592 20.4099C17.015 20.9107 16.6784 21.3832 16.1759 21.4932ZM16.9384 15.4066C16.8417 15.8141 16.5825 16.0807 16.1634 16.1657C16.0325 16.1924 15.8959 16.1982 15.7617 16.1982C14.2759 16.2007 12.7909 16.1999 11.3059 16.1999C9.79003 16.1999 8.27336 16.2024 6.75753 16.1982C6.08253 16.1957 5.64086 15.7682 5.66003 15.1549C5.67586 14.6507 6.05586 14.2507 6.5592 14.2099C6.6417 14.2032 6.72503 14.2032 6.80836 14.2032C9.80919 14.2032 12.8109 14.1974 15.8125 14.2132C16.0742 14.2141 16.3717 14.3007 16.59 14.4432C16.9167 14.6566 17.03 15.0182 16.9384 15.4066Z" fill="#FF782D"/>
<path d="M30.2609 6.56612C30.2425 6.14362 30.1992 5.71112 30.0817 5.30779C29.5325 3.41445 27.8725 2.22445 25.8142 2.22362C19.2542 2.22195 12.6942 2.22279 6.13338 2.22362C6.00921 2.22362 5.88421 2.22445 5.75921 2.22945C3.79421 2.30529 2.03338 3.79779 1.75588 5.74695C1.62004 6.69612 1.68754 7.67528 1.66588 8.64029C1.66421 8.70862 1.68254 8.77778 1.69254 8.85612H30.2542C30.2592 8.75862 30.2675 8.66028 30.2684 8.56195C30.2692 7.89612 30.2892 7.23029 30.2609 6.56612ZM7.30838 6.86945C6.76421 6.86695 6.31588 6.42029 6.31421 5.87945C6.31338 5.32945 6.79004 4.86195 7.33588 4.87779C7.88088 4.89279 8.31171 5.34195 8.30588 5.89112C8.30004 6.44279 7.86338 6.87195 7.30838 6.86945ZM10.6525 6.86945C10.0984 6.87362 9.65921 6.44529 9.65254 5.89445C9.64504 5.33195 10.0942 4.87279 10.6484 4.87695C11.1825 4.88112 11.6417 5.34195 11.6434 5.87612C11.645 6.41695 11.1984 6.86529 10.6525 6.86945ZM13.98 6.86862C13.4317 6.87279 12.9809 6.43779 12.9725 5.89529C12.9642 5.33945 13.4217 4.87445 13.9742 4.87779C14.5125 4.88112 14.9659 5.33612 14.9675 5.87445C14.9692 6.41862 14.5259 6.86445 13.98 6.86862Z" fill="#FF782D"/>
<path d="M28.5076 21.4316C28.321 21.8316 28.1435 22.2149 27.9651 22.5974C27.1893 24.2624 26.4101 25.9266 25.6401 27.5941C25.5001 27.8991 25.3001 28.1266 25.0118 28.2999C23.7393 29.0649 22.4735 29.8416 21.2035 30.6107C20.4076 31.0932 19.6785 30.7524 19.536 29.8316C19.3043 28.3332 19.071 26.8349 18.8568 25.3341C18.826 25.1191 18.846 24.8632 18.9351 24.6682C19.891 22.5832 20.866 20.5074 21.836 18.4291C21.8443 18.4116 21.8618 18.3974 21.9018 18.3516C24.1018 19.3774 26.291 20.3982 28.5076 21.4316Z" fill="#FF782D"/>
<path d="M30.1609 17.8098C29.9493 18.4231 29.6401 19.0031 29.3626 19.6265C27.1368 18.589 24.9434 17.5656 22.7151 16.5265C22.9893 15.949 23.2218 15.4048 23.5001 14.884C24.0501 13.8565 25.2793 13.394 26.3559 13.8415C27.2843 14.2273 28.1976 14.6531 29.0901 15.114C30.0476 15.609 30.5143 16.7856 30.1609 17.8098Z" fill="#FF782D"/>
<path d="M30.2667 26.4638C30.2542 28.6871 28.7817 30.4438 26.5842 30.7746C25.8308 30.888 25.05 30.8196 24.2808 30.8313C24.0325 30.8355 23.7842 30.8321 23.535 30.8321C23.5283 30.8096 23.5208 30.7871 23.5142 30.7646C24.2208 30.3346 24.9192 29.8905 25.6358 29.478C26.2092 29.1488 26.6042 28.6905 26.88 28.0913C27.9333 25.7996 29.0058 23.5163 30.0717 21.2305C30.1133 21.1396 30.1617 21.0513 30.2433 20.8896C30.2558 21.0413 30.2675 21.1171 30.2675 21.1921C30.2692 22.9496 30.2767 24.7063 30.2667 26.4638Z" fill="#FF782D"/>
</svg>
