<svg width="32" height="33" viewBox="0 0 32 33" fill="none" xmlns="http://www.w3.org/2000/svg">
<g clip-path="url(#clip0_1149_1859)">
<path d="M31.9275 9.98145H0V30.0048C0.0466667 30.1731 0.0875 30.3448 0.1425 30.5106C0.52 31.6548 1.58417 32.4289 2.8175 32.4348C4.62583 32.4431 6.435 32.4373 8.24333 32.4373C15.1567 32.4373 22.0692 32.4381 28.9817 32.4373C30.4 32.4364 31.4983 31.6348 31.8367 30.3423C31.8992 30.1039 31.9333 29.8506 31.9333 29.6048C31.9383 23.1389 31.9375 16.6731 31.9375 10.2073C31.9375 10.1464 31.9325 10.0848 31.9275 9.98145ZM11.08 24.6039C10.7308 25.0381 10.1692 25.0656 9.67 24.6664C8.17667 23.4731 6.685 22.2798 5.19417 21.0839C4.5825 20.5931 4.58083 19.9556 5.19167 19.4656C6.69 18.2631 8.19 17.0623 9.69083 15.8639C10.1717 15.4806 10.7325 15.5148 11.0775 15.9398C11.4308 16.3756 11.3433 16.9373 10.8517 17.3331C9.73417 18.2306 8.61333 19.1231 7.49417 20.0181C7.39917 20.0948 7.30583 20.1723 7.18083 20.2756C7.6925 20.6848 8.17583 21.0731 8.65917 21.4598C9.38917 22.0439 10.12 22.6256 10.8483 23.2114C11.3417 23.6089 11.4317 24.1673 11.08 24.6039ZM19.5825 14.2114C17.7467 18.5039 15.9075 22.7948 14.0675 27.0848C13.8667 27.5531 13.5158 27.7873 13.0875 27.7539C12.6858 27.7231 12.3167 27.4373 12.265 27.0273C12.235 26.7856 12.2875 26.5073 12.3842 26.2806C13.915 22.6814 15.4592 19.0881 17 15.4931C17.3025 14.7873 17.5992 14.0789 17.9092 13.3764C18.1042 12.9356 18.5425 12.7123 18.9733 12.8098C19.4033 12.9064 19.7133 13.2964 19.7083 13.8206C19.6833 13.8989 19.6475 14.0614 19.5825 14.2114ZM26.7867 21.0514C25.265 22.2756 23.74 23.4948 22.2117 24.7089C21.7525 25.0748 21.1833 25.0189 20.8517 24.5973C20.5175 24.1731 20.5942 23.6148 21.0492 23.2481C22.1817 22.3364 23.3192 21.4298 24.4542 20.5214C24.5425 20.4498 24.6292 20.3764 24.7575 20.2706C24.0133 19.6739 23.3017 19.1039 22.59 18.5339C22.0792 18.1248 21.5658 17.7189 21.0583 17.3073C20.5908 16.9273 20.5133 16.3606 20.8642 15.9348C21.205 15.5206 21.7625 15.4798 22.2267 15.8489C23.7467 17.0589 25.2633 18.2706 26.7775 19.4873C27.3417 19.9406 27.3467 20.6014 26.7867 21.0514Z" fill="#FF782D"/>
<path d="M31.9367 3.54957C31.9333 1.82874 30.7317 0.625404 29.0125 0.625404C20.3225 0.623737 11.6317 0.623737 2.94167 0.624571C1.45083 0.625404 0.3975 1.4629 0.0525 2.9129C0.0408333 2.9629 0.0175 3.00957 0 3.05707V8.10957H31.9225C31.9283 7.9904 31.9367 7.8904 31.9367 7.7904C31.9375 6.37707 31.94 4.9629 31.9367 3.54957ZM4.73667 6.23707C4.23167 6.2354 3.80833 5.81207 3.80583 5.30624C3.80333 4.78957 4.24333 4.35707 4.76 4.3679C5.26583 4.37874 5.68167 4.80874 5.675 5.31374C5.66833 5.81957 5.24167 6.23957 4.73667 6.23707ZM8.47167 6.23707C7.96667 6.2304 7.54667 5.80374 7.54917 5.29874C7.55083 4.7929 7.97417 4.36957 8.47917 4.3679C8.985 4.36624 9.41167 4.7854 9.4175 5.29124C9.42417 5.80874 8.98917 6.24374 8.47167 6.23707ZM12.2208 6.23707C11.7158 6.23457 11.2933 5.81124 11.2917 5.3054C11.29 4.7879 11.7292 4.35624 12.2467 4.3679C12.7517 4.37957 13.1675 4.80957 13.1608 5.31457C13.1533 5.8204 12.7258 6.23957 12.2208 6.23707ZM27.0683 6.2379C26.1758 6.23957 25.2833 6.23874 24.39 6.23874C23.4975 6.23874 22.605 6.23957 21.7125 6.2379C21.0792 6.23707 20.6533 5.86457 20.6483 5.3104C20.6433 4.75624 21.0708 4.3679 21.6958 4.3679C23.4917 4.36624 25.2867 4.36624 27.0825 4.3679C27.71 4.3679 28.1358 4.75374 28.1308 5.30957C28.1267 5.8654 27.7033 6.23707 27.0683 6.2379Z" fill="#FF782D"/>
</g>
<defs>
<clipPath id="clip0_1149_1859">
<rect width="32" height="32" fill="white" transform="translate(0 0.5)"/>
</clipPath>
</defs>
</svg>
