<svg width="40" height="30" viewBox="0 0 40 30" fill="none" xmlns="http://www.w3.org/2000/svg">
<g clip-path="url(#clip0_1061_4598)">
<path d="M16.8234 29.457C11.3396 27.4708 5.70868 26.8833 0 26.5029V1.375C0.177608 1.57152 0.299517 1.69133 0.40461 1.8248C1.46185 3.16054 2.52855 4.48787 3.55742 5.84358C3.75709 6.10631 3.90422 6.4836 3.90528 6.80939C3.92629 11.7183 3.92629 16.6272 3.90423 21.5361C3.90107 22.1289 3.98935 22.3842 4.67666 22.4589C7.96084 22.8204 11.2313 23.2796 14.361 24.4241C14.7593 24.5702 14.9716 24.7888 15.1209 25.1766C15.6558 26.5764 16.2254 27.9626 16.8234 29.457Z" fill="#FF782D"/>
<path d="M39.3007 1.36426V26.5026C33.6109 26.8852 27.9832 27.46 22.5288 29.4474C22.5856 29.2571 22.6213 29.0921 22.6833 28.9387C23.1877 27.6744 23.7101 26.4175 24.1977 25.1469C24.3385 24.7791 24.5445 24.5721 24.9176 24.4344C27.4913 23.4896 30.1702 23.0272 32.8711 22.6604C33.5058 22.5742 34.1416 22.4586 34.7796 22.4366C35.2903 22.4198 35.3965 22.2148 35.3954 21.7429C35.3796 16.833 35.3923 11.9241 35.3765 7.01409C35.3744 6.50438 35.4984 6.10398 35.8242 5.70672C36.8625 4.43509 37.8662 3.13298 38.8856 1.84454C38.9938 1.70686 39.1136 1.5797 39.3007 1.36426Z" fill="#FF782D"/>
<path d="M17.4918 16.8643C17.4834 17.7503 17.9269 18.3682 18.6972 18.7928C18.8832 18.8948 19.1165 19.1365 19.1176 19.3151C19.1418 22.7811 19.1355 26.2471 19.1323 29.7131C19.1323 29.7625 19.1029 29.8129 19.043 30C18.5816 28.8587 18.1633 27.834 17.7535 26.8062C16.2832 23.129 14.8098 19.4517 13.3585 15.7661C13.2534 15.4971 13.2334 15.1387 13.3112 14.8613C13.7736 13.225 14.2633 11.5971 14.7751 9.97546C14.8991 9.58451 14.8287 9.37223 14.4945 9.13051C11.8462 7.21465 8.88463 5.99347 5.76125 5.11173C5.46174 5.02766 5.14751 4.81957 4.94993 4.57891C3.90845 3.30938 2.90166 2.01147 1.88435 0.721977C1.73827 0.537012 1.60165 0.344691 1.40723 0.0830078C6.42334 0.360455 10.914 1.90743 15.0305 4.56104C16.2748 5.36291 17.4624 6.25305 18.6825 7.09275C19.0041 7.31449 19.1512 7.56882 19.146 7.98604C19.1228 10.089 19.1281 12.1929 19.1428 14.2969C19.146 14.6584 19.0671 14.8571 18.6993 15.0168C17.9174 15.3563 17.5002 16.0047 17.4918 16.8643Z" fill="#FF782D"/>
<path d="M37.8694 0.137673C37.7034 0.353114 37.5384 0.569607 37.3702 0.783998C36.3655 2.05878 35.3713 3.34197 34.3446 4.59889C34.1586 4.8259 33.8632 5.02347 33.5805 5.10229C30.4729 5.97142 27.5324 7.19155 24.884 9.06852C24.4921 9.34597 24.4017 9.59084 24.552 10.0564C25.069 11.6559 25.5388 13.2702 26.0043 14.8844C26.0706 15.1146 26.0926 15.4099 26.0075 15.6253C24.141 20.3314 22.2567 25.0301 20.3745 29.7299C20.3545 29.7814 20.3146 29.8266 20.2305 29.959C20.2 29.7572 20.1675 29.6374 20.1675 29.5176C20.1643 26.1704 20.1706 22.8232 20.158 19.477C20.1559 19.1092 20.2515 18.921 20.6109 18.7613C21.3876 18.4145 21.8059 17.7692 21.8132 16.9074C21.8195 16.0173 21.3907 15.3636 20.5889 15.0074C20.2536 14.8581 20.1559 14.6858 20.158 14.34C20.1717 12.1961 20.1569 10.0511 20.178 7.90724C20.1801 7.68234 20.2904 7.37652 20.4575 7.2462C24.3512 4.22056 28.5234 1.72669 33.4208 0.698872C34.8637 0.395152 36.3361 0.229104 37.7948 0C37.819 0.0462412 37.8442 0.0914314 37.8694 0.137673Z" fill="#FF782D"/>
</g>
<defs>
<clipPath id="clip0_1061_4598">
<rect width="39.3008" height="30" fill="white"/>
</clipPath>
</defs>
</svg>
