<svg width="32" height="33" viewBox="0 0 32 33" fill="none" xmlns="http://www.w3.org/2000/svg">
<g clip-path="url(#clip0_1149_4107)">
<path d="M24.0966 23.5853C23.7033 19.0378 19.5416 15.6753 14.9925 16.2286C10.6133 16.7619 7.4083 20.6794 7.86247 25.0769C8.22164 28.5461 10.1433 30.8769 13.4141 32.0694C14.0108 32.2878 14.6608 32.3603 15.2866 32.5003H16.6591C16.8108 32.4744 16.9625 32.4453 17.115 32.4228C21.4441 31.7853 24.4741 27.9494 24.0966 23.5853ZM17.1483 29.4903C17.0725 29.5219 16.9966 29.5528 16.9075 29.5886V30.9819H15.045V29.6019C13.5291 28.8786 12.7658 27.8328 12.8416 26.5661H14.6475C14.6708 26.6453 14.695 26.7111 14.7091 26.7794C14.8591 27.4861 15.4291 27.9053 16.1391 27.8286C16.7708 27.7611 17.2741 27.1836 17.2616 26.5411C17.2475 25.8544 16.72 25.2953 16.0108 25.2753C15.0683 25.2486 14.2666 24.9244 13.6333 24.2236C12.1725 22.6078 12.7325 20.0761 14.7466 19.2153C14.9766 19.1169 15.0583 19.0069 15.0425 18.7619C15.02 18.4119 15.0366 18.0586 15.0366 17.6819H16.9083C16.9083 18.0703 16.9225 18.4419 16.9033 18.8119C16.8925 19.0228 16.965 19.1128 17.1591 19.1969C18.3391 19.7078 18.9916 20.6144 19.12 21.8953C19.1258 21.9553 19.12 22.0161 19.12 22.0969H17.29C17.27 22.0194 17.2466 21.9419 17.23 21.8628C17.0858 21.1886 16.4908 20.7594 15.8075 20.8378C15.165 20.9111 14.6533 21.5136 14.685 22.1603C14.7191 22.8411 15.2425 23.3603 15.9316 23.3961C17.5191 23.4778 18.6841 24.3819 19.035 25.8044C19.4116 27.3344 18.6208 28.8811 17.1483 29.4903Z" fill="#FF782D"/>
<path d="M8.3725 17.4955C8.37083 17.6638 8.29833 17.8613 8.19417 17.9938C7.47917 18.898 6.90833 19.8796 6.52333 20.968C6.47333 21.108 6.43833 21.2255 6.2375 21.2246C4.15833 21.2138 2.07917 21.213 0 21.2088V19.3371H3.60833V12.9805H8.38083V13.3163C8.38083 14.7096 8.38667 16.1021 8.3725 17.4955Z" fill="#FF782D"/>
<path d="M31.9267 19.3477V21.2027C31.8251 21.2085 31.7251 21.2193 31.6259 21.2193C29.6926 21.2202 27.7592 21.2152 25.8267 21.226C25.5909 21.2268 25.4817 21.1602 25.4034 20.9343C25.0309 19.8535 24.4576 18.8843 23.7476 17.9902C23.6484 17.8643 23.5726 17.6785 23.5726 17.521C23.5634 11.9718 23.5651 6.42267 23.5651 0.873503V0.569336H28.3284V19.3477H31.9267Z" fill="#FF782D"/>
<path d="M21.6668 4.7041V15.9824C20.9159 15.6258 20.1768 15.2066 19.3901 14.9199C18.6059 14.6341 17.7726 14.4816 16.9268 14.2624V4.7041H21.6668Z" fill="#FF782D"/>
<path d="M15.0125 8.84961V14.2638C14.1808 14.4804 13.3408 14.6363 12.5483 14.9238C11.7675 15.2079 11.0342 15.6254 10.2742 15.9871V8.84961H15.0125Z" fill="#FF782D"/>
</g>
<defs>
<clipPath id="clip0_1149_4107">
<rect width="32" height="32" fill="white" transform="translate(0 0.5)"/>
</clipPath>
</defs>
</svg>
