<svg xmlns="http://www.w3.org/2000/svg" width="20" height="21" viewBox="0 0 20 21" fill="none"><g clip-path="url(#clip0_2341_4764)"><path fill-rule="evenodd" clip-rule="evenodd" d="M3.23223 2.48016C3.70107 2.01132 4.33696 1.74792 5 1.74792H11.6667C11.8877 1.74792 12.0996 1.83572 12.2559 1.992L17.2559 6.992C17.4122 7.14828 17.5 7.36024 17.5 7.58126V17.5813C17.5 18.2443 17.2366 18.8802 16.7678 19.349C16.2989 19.8179 15.663 20.0813 15 20.0813H5C4.33696 20.0813 3.70107 19.8179 3.23223 19.349C2.76339 18.8802 2.5 18.2443 2.5 17.5813V4.24792C2.5 3.58488 2.76339 2.949 3.23223 2.48016ZM5 3.41459C4.77899 3.41459 4.56702 3.50239 4.41074 3.65867C4.25446 3.81495 4.16667 4.02691 4.16667 4.24792V17.5813C4.16667 17.8023 4.25446 18.0142 4.41074 18.1705C4.56702 18.3268 4.77899 18.4146 5 18.4146H15C15.221 18.4146 15.433 18.3268 15.5893 18.1705C15.7455 18.0142 15.8333 17.8023 15.8333 17.5813V7.92643L11.3215 3.41459H5Z" fill="#FF782D"></path><path fill-rule="evenodd" clip-rule="evenodd" d="M11.6668 1.74792C12.1271 1.74792 12.5002 2.12102 12.5002 2.58126V6.74792H16.6668C17.1271 6.74792 17.5002 7.12102 17.5002 7.58126C17.5002 8.0415 17.1271 8.41459 16.6668 8.41459H11.6668C11.2066 8.41459 10.8335 8.0415 10.8335 7.58126V2.58126C10.8335 2.12102 11.2066 1.74792 11.6668 1.74792Z" fill="#FF782D"></path><path fill-rule="evenodd" clip-rule="evenodd" d="M5.8335 11.7479C5.8335 11.2876 6.20659 10.9146 6.66683 10.9146H13.3335C13.7937 10.9146 14.1668 11.2876 14.1668 11.7479C14.1668 12.2081 13.7937 12.5812 13.3335 12.5812H6.66683C6.20659 12.5812 5.8335 12.2081 5.8335 11.7479Z" fill="#FF782D"></path><path fill-rule="evenodd" clip-rule="evenodd" d="M5.8335 15.0813C5.8335 14.621 6.20659 14.2479 6.66683 14.2479H13.3335C13.7937 14.2479 14.1668 14.621 14.1668 15.0813C14.1668 15.5415 13.7937 15.9146 13.3335 15.9146H6.66683C6.20659 15.9146 5.8335 15.5415 5.8335 15.0813Z" fill="#FF782D"></path><path fill-rule="evenodd" clip-rule="evenodd" d="M5.8335 8.41451C5.8335 7.95427 6.20659 7.58118 6.66683 7.58118H8.3335C8.79373 7.58118 9.16683 7.95427 9.16683 8.41451C9.16683 8.87475 8.79373 9.24784 8.3335 9.24784H6.66683C6.20659 9.24784 5.8335 8.87475 5.8335 8.41451Z" fill="#FF782D"></path></g><defs><clipPath id="clip0_2341_4764"><rect width="20" height="20" fill="white" transform="translate(0 0.914551)"></rect></clipPath></defs></svg>