<svg width="167" height="30" viewBox="0 0 167 30" fill="none" xmlns="http://www.w3.org/2000/svg">
<g clip-path="url(#clip0_1037_1905)">
<path d="M16.8234 29.457C11.3396 27.4708 5.70868 26.8833 0 26.5029V1.375C0.177608 1.57152 0.299517 1.69133 0.40461 1.8248C1.46185 3.16054 2.52855 4.48787 3.55742 5.84358C3.75709 6.10631 3.90422 6.4836 3.90528 6.80939C3.92629 11.7183 3.92629 16.6272 3.90423 21.5361C3.90107 22.1289 3.98935 22.3842 4.67666 22.4589C7.96084 22.8204 11.2313 23.2796 14.361 24.4241C14.7593 24.5702 14.9716 24.7888 15.1209 25.1766C15.6558 26.5764 16.2254 27.9626 16.8234 29.457Z" fill="#FF782D"/>
<path d="M39.3007 1.36426V26.5026C33.6109 26.8852 27.9832 27.46 22.5288 29.4474C22.5856 29.2571 22.6213 29.0921 22.6833 28.9387C23.1877 27.6744 23.7101 26.4175 24.1977 25.1469C24.3385 24.7791 24.5445 24.5721 24.9176 24.4344C27.4913 23.4896 30.1702 23.0272 32.8711 22.6604C33.5058 22.5742 34.1416 22.4586 34.7796 22.4366C35.2903 22.4198 35.3965 22.2148 35.3954 21.7429C35.3796 16.833 35.3923 11.9241 35.3765 7.01409C35.3744 6.50438 35.4984 6.10398 35.8242 5.70672C36.8625 4.43509 37.8662 3.13298 38.8856 1.84454C38.9938 1.70686 39.1136 1.5797 39.3007 1.36426Z" fill="#FF782D"/>
<path d="M17.4918 16.8643C17.4834 17.7503 17.9269 18.3682 18.6972 18.7928C18.8832 18.8948 19.1165 19.1365 19.1176 19.3151C19.1418 22.7811 19.1355 26.2471 19.1323 29.7131C19.1323 29.7625 19.1029 29.8129 19.043 30C18.5816 28.8587 18.1633 27.834 17.7535 26.8062C16.2832 23.129 14.8098 19.4517 13.3585 15.7661C13.2534 15.4971 13.2334 15.1387 13.3112 14.8613C13.7736 13.225 14.2633 11.5971 14.7751 9.97546C14.8991 9.58451 14.8287 9.37223 14.4945 9.13051C11.8462 7.21465 8.88463 5.99347 5.76125 5.11173C5.46174 5.02766 5.14751 4.81957 4.94993 4.57891C3.90845 3.30938 2.90166 2.01147 1.88435 0.721977C1.73827 0.537012 1.60165 0.344691 1.40723 0.0830078C6.42334 0.360455 10.914 1.90743 15.0305 4.56104C16.2748 5.36291 17.4624 6.25305 18.6825 7.09275C19.0041 7.31449 19.1512 7.56882 19.146 7.98604C19.1228 10.089 19.1281 12.1929 19.1428 14.2969C19.146 14.6584 19.0671 14.8571 18.6993 15.0168C17.9174 15.3563 17.5002 16.0047 17.4918 16.8643Z" fill="#FF782D"/>
<path d="M37.8694 0.137673C37.7034 0.353114 37.5384 0.569607 37.3702 0.783998C36.3655 2.05878 35.3713 3.34197 34.3446 4.59889C34.1586 4.8259 33.8632 5.02347 33.5805 5.10229C30.4729 5.97142 27.5324 7.19155 24.884 9.06852C24.4921 9.34597 24.4017 9.59084 24.552 10.0564C25.069 11.6559 25.5388 13.2702 26.0043 14.8844C26.0706 15.1146 26.0926 15.4099 26.0075 15.6253C24.141 20.3314 22.2567 25.0301 20.3745 29.7299C20.3545 29.7814 20.3146 29.8266 20.2305 29.959C20.2 29.7572 20.1675 29.6374 20.1675 29.5176C20.1643 26.1704 20.1706 22.8232 20.158 19.477C20.1559 19.1092 20.2515 18.921 20.6109 18.7613C21.3876 18.4145 21.8059 17.7692 21.8132 16.9074C21.8195 16.0173 21.3907 15.3636 20.5889 15.0074C20.2536 14.8581 20.1559 14.6858 20.158 14.34C20.1717 12.1961 20.1569 10.0511 20.178 7.90724C20.1801 7.68234 20.2904 7.37652 20.4575 7.2462C24.3512 4.22056 28.5234 1.72669 33.4208 0.698872C34.8637 0.395152 36.3361 0.229104 37.7948 0C37.819 0.0462412 37.8442 0.0914314 37.8694 0.137673Z" fill="#FF782D"/>
</g>
<path d="M50.1328 25.14C49.6848 25.14 49.1714 25.0933 48.5928 25C48.0141 24.9253 47.4541 24.7387 46.9128 24.44C46.3901 24.1413 45.9514 23.6933 45.5968 23.096C45.2608 22.48 45.0928 21.64 45.0928 20.576V9.012C45.0928 8.09733 45.2328 7.332 45.5128 6.716C45.7928 6.1 46.1661 5.61467 46.6328 5.26C47.0994 4.90533 47.6128 4.65333 48.1728 4.504C48.7328 4.35467 49.2834 4.28 49.8248 4.28C51.2248 4.28 52.4568 4.29867 53.5208 4.336C54.6034 4.37333 55.5741 4.42 56.4328 4.476C57.2914 4.51333 58.0754 4.56933 58.7848 4.644V8.116H51.0568C50.4781 8.116 50.0301 8.256 49.7128 8.536C49.3954 8.816 49.2368 9.24533 49.2368 9.824V12.82L57.4408 13.044V16.32L49.2368 16.544V19.4C49.2368 19.8853 49.3114 20.268 49.4608 20.548C49.6288 20.8093 49.8434 20.996 50.1048 21.108C50.3848 21.2013 50.6741 21.248 50.9728 21.248H58.7848V24.72C57.9634 24.8133 57.0488 24.888 56.0408 24.944C55.0514 25 54.0434 25.0467 53.0168 25.084C52.0088 25.1213 51.0474 25.14 50.1328 25.14ZM66.5318 25.168C65.3558 25.168 64.3665 24.9253 63.5638 24.44C62.7611 23.936 62.1545 23.1333 61.7438 22.032C61.3518 20.912 61.1558 19.4467 61.1558 17.636C61.1558 15.7693 61.3238 14.2573 61.6598 13.1C62.0145 11.9427 62.6025 11.0933 63.4238 10.552C64.2451 10.0107 65.3745 9.74 66.8118 9.74C67.5025 9.74 68.1838 9.81467 68.8558 9.964C69.5278 10.0947 70.1251 10.2533 70.6478 10.44V3.636H74.8198V25H71.3198L70.6478 23.572C70.3305 23.8707 69.9385 24.1413 69.4718 24.384C69.0238 24.6267 68.5478 24.8227 68.0438 24.972C67.5398 25.1027 67.0358 25.168 66.5318 25.168ZM67.9878 21.836C68.5478 21.836 69.0518 21.7427 69.4998 21.556C69.9665 21.3693 70.3491 21.1827 70.6478 20.996V13.436C70.2745 13.3053 69.8825 13.1747 69.4718 13.044C69.0611 12.9133 68.6225 12.848 68.1558 12.848C67.4651 12.848 66.9051 12.9693 66.4758 13.212C66.0651 13.4547 65.7665 13.912 65.5798 14.584C65.3931 15.2373 65.2998 16.1893 65.2998 17.44C65.2998 18.5973 65.3838 19.5027 65.5518 20.156C65.7385 20.7907 66.0278 21.2293 66.4198 21.472C66.8118 21.7147 67.3345 21.836 67.9878 21.836ZM82.184 25.168C80.84 25.168 79.7854 24.776 79.02 23.992C78.2547 23.1893 77.872 22.06 77.872 20.604V9.964H82.016V19.372C82.016 20.212 82.212 20.7813 82.604 21.08C83.0147 21.36 83.5467 21.5 84.2 21.5C84.7227 21.5 85.2547 21.4067 85.796 21.22C86.356 21.0147 86.8507 20.744 87.28 20.408V9.964H91.452V25H88.008L87.28 23.46C86.608 23.908 85.8334 24.3093 84.956 24.664C84.0787 25 83.1547 25.168 82.184 25.168ZM94.7764 25V4.28H103.512C104.184 4.28 104.866 4.364 105.556 4.532C106.266 4.68133 106.91 4.99867 107.488 5.484C108.086 5.95067 108.562 6.66 108.916 7.612C109.29 8.564 109.476 9.824 109.476 11.392C109.476 12.96 109.29 14.2293 108.916 15.2C108.562 16.1707 108.095 16.908 107.516 17.412C106.938 17.916 106.312 18.252 105.64 18.42C104.968 18.588 104.315 18.672 103.68 18.672C103.344 18.672 102.952 18.6627 102.504 18.644C102.056 18.6067 101.599 18.56 101.132 18.504C100.684 18.448 100.264 18.4013 99.8724 18.364C99.4804 18.308 99.163 18.2613 98.9204 18.224V25H94.7764ZM98.9204 14.948H103.036C103.522 14.948 103.932 14.836 104.268 14.612C104.623 14.3693 104.884 13.996 105.052 13.492C105.22 12.9693 105.304 12.2787 105.304 11.42C105.304 10.58 105.211 9.91733 105.024 9.432C104.856 8.928 104.604 8.564 104.268 8.34C103.951 8.116 103.568 8.004 103.12 8.004H98.9204V14.948ZM111.971 25V9.964H115.163L116.115 12.26C116.656 11.5693 117.263 10.9813 117.935 10.496C118.626 10.0107 119.438 9.768 120.371 9.768C120.576 9.768 120.782 9.77733 120.987 9.796C121.211 9.81467 121.416 9.852 121.603 9.908V14.164C121.323 14.1267 121.024 14.0987 120.707 14.08C120.408 14.0427 120.119 14.024 119.839 14.024C119.298 14.024 118.803 14.0893 118.355 14.22C117.926 14.332 117.524 14.5093 117.151 14.752C116.796 14.976 116.451 15.2747 116.115 15.648V25H111.971ZM130.139 25.14C128.478 25.14 127.152 24.9253 126.163 24.496C125.174 24.048 124.455 23.264 124.007 22.144C123.578 21.024 123.363 19.4747 123.363 17.496C123.363 15.4613 123.568 13.884 123.979 12.764C124.39 11.644 125.08 10.86 126.051 10.412C127.022 9.964 128.338 9.74 129.999 9.74C131.492 9.74 132.687 9.88933 133.583 10.188C134.479 10.4867 135.123 11.0093 135.515 11.756C135.926 12.5027 136.131 13.5573 136.131 14.92C136.131 15.928 135.926 16.7307 135.515 17.328C135.123 17.9067 134.563 18.3267 133.835 18.588C133.107 18.8307 132.248 18.952 131.259 18.952H127.479C127.516 19.7173 127.628 20.3333 127.815 20.8C128.02 21.248 128.384 21.5747 128.907 21.78C129.448 21.9667 130.223 22.06 131.231 22.06H135.627V24.496C134.899 24.6453 134.096 24.7947 133.219 24.944C132.36 25.0747 131.334 25.14 130.139 25.14ZM127.423 16.488H130.839C131.399 16.488 131.81 16.376 132.071 16.152C132.332 15.928 132.463 15.5267 132.463 14.948C132.463 14.4067 132.379 13.9773 132.211 13.66C132.043 13.324 131.782 13.0907 131.427 12.96C131.072 12.8107 130.596 12.736 129.999 12.736C129.364 12.736 128.86 12.848 128.487 13.072C128.114 13.2773 127.843 13.6507 127.675 14.192C127.507 14.7333 127.423 15.4987 127.423 16.488ZM144.31 25.168C143.843 25.168 143.339 25.1493 142.798 25.112C142.257 25.0933 141.715 25.056 141.174 25C140.633 24.944 140.129 24.8787 139.662 24.804C139.195 24.7107 138.803 24.608 138.486 24.496V22.06H145.15C145.542 22.06 145.859 22.032 146.102 21.976C146.363 21.9013 146.55 21.78 146.662 21.612C146.793 21.4253 146.858 21.164 146.858 20.828V20.352C146.858 19.9787 146.737 19.6893 146.494 19.484C146.251 19.2787 145.803 19.176 145.15 19.176H142.798C141.939 19.176 141.165 19.0453 140.474 18.784C139.783 18.5227 139.233 18.0933 138.822 17.496C138.43 16.8987 138.234 16.096 138.234 15.088V14.22C138.234 13.268 138.421 12.4653 138.794 11.812C139.167 11.1587 139.793 10.664 140.67 10.328C141.547 9.992 142.751 9.824 144.282 9.824C144.898 9.824 145.551 9.86133 146.242 9.936C146.951 9.992 147.614 10.076 148.23 10.188C148.865 10.2813 149.369 10.3933 149.742 10.524V12.96H143.442C142.901 12.96 142.49 13.0533 142.21 13.24C141.93 13.408 141.79 13.7347 141.79 14.22V14.668C141.79 15.004 141.855 15.256 141.986 15.424C142.117 15.5733 142.313 15.6853 142.574 15.76C142.854 15.816 143.199 15.844 143.61 15.844H146.018C147.549 15.844 148.659 16.1987 149.35 16.908C150.059 17.5987 150.414 18.56 150.414 19.792V21.136C150.414 22.144 150.171 22.9467 149.686 23.544C149.219 24.1227 148.529 24.5427 147.614 24.804C146.718 25.0467 145.617 25.168 144.31 25.168ZM158.447 25.168C157.98 25.168 157.476 25.1493 156.935 25.112C156.393 25.0933 155.852 25.056 155.311 25C154.769 24.944 154.265 24.8787 153.799 24.804C153.332 24.7107 152.94 24.608 152.623 24.496V22.06H159.287C159.679 22.06 159.996 22.032 160.239 21.976C160.5 21.9013 160.687 21.78 160.799 21.612C160.929 21.4253 160.995 21.164 160.995 20.828V20.352C160.995 19.9787 160.873 19.6893 160.631 19.484C160.388 19.2787 159.94 19.176 159.287 19.176H156.935C156.076 19.176 155.301 19.0453 154.611 18.784C153.92 18.5227 153.369 18.0933 152.959 17.496C152.567 16.8987 152.371 16.096 152.371 15.088V14.22C152.371 13.268 152.557 12.4653 152.931 11.812C153.304 11.1587 153.929 10.664 154.807 10.328C155.684 9.992 156.888 9.824 158.419 9.824C159.035 9.824 159.688 9.86133 160.379 9.936C161.088 9.992 161.751 10.076 162.367 10.188C163.001 10.2813 163.505 10.3933 163.879 10.524V12.96H157.579C157.037 12.96 156.627 13.0533 156.347 13.24C156.067 13.408 155.927 13.7347 155.927 14.22V14.668C155.927 15.004 155.992 15.256 156.123 15.424C156.253 15.5733 156.449 15.6853 156.711 15.76C156.991 15.816 157.336 15.844 157.747 15.844H160.155C161.685 15.844 162.796 16.1987 163.487 16.908C164.196 17.5987 164.551 18.56 164.551 19.792V21.136C164.551 22.144 164.308 22.9467 163.823 23.544C163.356 24.1227 162.665 24.5427 161.751 24.804C160.855 25.0467 159.753 25.168 158.447 25.168Z" fill="black"/>
<defs>
<clipPath id="clip0_1037_1905">
<rect width="39.3008" height="30" fill="white"/>
</clipPath>
</defs>
</svg>
