<svg width="32" height="33" viewBox="0 0 32 33" fill="none" xmlns="http://www.w3.org/2000/svg">
<g clip-path="url(#clip0_1149_2364)">
<path d="M31.5532 7.34443C31.8891 7.66943 32.0607 8.03693 31.8674 8.4911C31.6807 8.92943 31.3132 9.06443 30.8549 9.06277C29.0349 9.05443 27.2149 9.05943 25.3957 9.05943H24.9982V12.3919C25.0824 12.3986 25.1716 12.4111 25.2607 12.4111C25.8849 12.4136 26.5091 12.4111 27.1324 12.4128C27.8357 12.4144 28.2007 12.7836 28.2016 13.4953C28.2032 14.7744 28.2024 16.0528 28.2024 17.3319C28.2024 21.9686 28.1957 26.6053 28.2107 31.2428C28.2124 31.8211 28.0557 32.2503 27.5166 32.5003H19.7166C19.7191 31.6478 19.7232 30.7953 19.7232 29.9428V13.5994C19.7232 12.7428 20.0541 12.4128 20.9099 12.4119C21.6066 12.4119 22.3032 12.4103 22.9999 12.4078C23.0191 12.4078 23.0382 12.3961 23.0999 12.3761V12.0294C23.0999 8.59777 23.0991 5.16693 23.1024 1.7361C23.1024 1.5611 23.1107 1.37943 23.1582 1.21277C23.2774 0.790265 23.7124 0.514432 24.1424 0.564432C24.5841 0.615265 24.9299 0.966099 24.9641 1.40943C24.9774 1.59277 24.9657 1.77777 24.9657 1.9961H25.3382C27.1791 1.9961 29.0199 2.00027 30.8599 1.9936C31.3057 1.99193 31.6632 2.12693 31.8566 2.54527C32.0574 2.98027 31.9099 3.34693 31.5991 3.67943C31.0091 4.3086 30.4274 4.94693 29.8224 5.6036C29.8924 5.6811 29.9566 5.75693 30.0266 5.82693C30.5341 6.33443 31.0382 6.84443 31.5532 7.34443Z" fill="#FF782D"/>
<path d="M17.8491 20.6849C17.8508 24.6233 17.8475 28.5616 17.845 32.4999H10.4825C10.4816 28.5716 10.4791 24.6441 10.4808 20.7158C10.4808 20.1283 10.8625 19.7299 11.4533 19.7266C13.2616 19.7174 15.0708 19.7174 16.8791 19.7266C17.4591 19.7299 17.8483 20.1199 17.8491 20.6849Z" fill="#FF782D"/>
<path d="M8.61082 32.5002H0.998317C0.459151 32.2735 0.278317 31.8668 0.286651 31.2893C0.310817 29.5543 0.29415 27.8193 0.295817 26.0835C0.295817 25.3127 0.64665 24.9635 1.42165 24.9635C3.43748 24.9627 5.45415 24.9627 7.46998 24.9635C8.25498 24.9635 8.60665 25.3193 8.60748 26.1093C8.60915 28.2393 8.60998 30.3702 8.61082 32.5002Z" fill="#FF782D"/>
<path d="M17.12 9.02305C16.6392 9.24972 16.115 9.04472 15.8483 8.52139C15.6417 8.11555 15.4417 7.70805 15.2175 7.25889C15.145 7.38305 15.0917 7.46472 15.0458 7.55055C11.9825 13.2397 7.51 17.4139 1.60667 20.0497C0.789167 20.4147 0.465 20.3181 0 19.5872V19.0881C0.161667 18.6972 0.476667 18.4989 0.8525 18.3322C6.325 15.8989 10.475 12.0322 13.3375 6.77805C13.395 6.67222 13.4433 6.56222 13.5267 6.39305C12.9742 6.50305 12.49 6.60722 12.0025 6.69389C11.5833 6.76805 11.1767 6.54389 11.0042 6.16555C10.7608 5.63055 11.0575 5.00139 11.6425 4.87139C12.7375 4.62889 13.835 4.39972 14.935 4.17972C15.4725 4.07222 15.8117 4.24889 16.0567 4.73889C16.5508 5.72222 17.0417 6.70722 17.5258 7.69555C17.7883 8.23139 17.6108 8.79139 17.12 9.02305Z" fill="#FF782D"/>
</g>
<defs>
<clipPath id="clip0_1149_2364">
<rect width="32" height="32" fill="white" transform="translate(0 0.5)"/>
</clipPath>
</defs>
</svg>
