<svg width="32" height="33" viewBox="0 0 32 33" fill="none" xmlns="http://www.w3.org/2000/svg">
<g clip-path="url(#clip0_1149_4534)">
<path d="M32 13.3106V14.4981C31.9469 14.7512 31.9025 15.0069 31.8388 15.2575C31.1163 18.1125 28.8075 19.945 25.8419 19.9525C19.2806 19.9687 12.7194 19.9675 6.15812 19.9525C3.4175 19.9469 1.20563 18.3656 0.325 15.8262C0.17625 15.3975 0.10625 14.9412 0 14.4981V13.3106C0.02 13.2412 0.0475 13.1737 0.05875 13.1037C0.5825 9.78437 3.29125 7.62749 6.645 7.87624C6.91687 7.89624 6.98938 7.79624 7.07188 7.56999C8.37625 3.99249 10.9006 1.83062 14.6637 1.23874C19.1394 0.534993 23.4669 3.21687 24.9056 7.51124C25.0094 7.81937 25.1313 7.89437 25.4481 7.86937C28.2138 7.65312 30.7013 9.25999 31.6325 11.8662C31.7987 12.3319 31.88 12.8281 32 13.3106Z" fill="#FF782D"/>
<path d="M10.8044 26.6871C10.7694 27.8565 9.7275 28.8946 8.56625 29.0046C8.225 29.0371 7.81062 28.9321 7.55937 29.0928C7.3175 29.2478 7.25437 29.6703 7.09375 29.9653C6.355 31.3209 4.72687 32.1121 3.2175 31.8565C1.605 31.5828 0.34 30.3546 0.064375 28.7971C0.050625 28.7171 0.021875 28.6403 0 28.5621V27.6246C0.199375 27.1059 0.319375 26.5365 0.6125 26.0778C1.4375 24.7828 2.6625 24.1728 4.1975 24.344C5.75188 24.5178 6.81437 25.3853 7.365 26.8515C7.45187 27.0846 7.545 27.204 7.80188 27.1659C7.935 27.1459 8.07313 27.1684 8.2075 27.1553C8.68875 27.1065 8.94125 26.8446 8.94812 26.359C8.95875 25.6203 8.95125 24.8803 8.95125 24.1409C8.95187 23.3934 8.95125 22.6459 8.95125 21.874H10.8125C10.8219 21.924 10.8369 21.9628 10.8363 22.0015C10.83 23.5634 10.8512 25.1265 10.8044 26.6871Z" fill="#FF782D"/>
<path d="M32.0001 27.6244V28.5619C31.8457 29.2338 31.6432 29.8832 31.197 30.43C30.262 31.5757 29.0488 32.075 27.6013 31.8407C26.1557 31.6063 25.152 30.7532 24.6401 29.3688C24.5482 29.1207 24.4401 29.035 24.1801 29.0469C23.1932 29.0907 22.3288 28.8232 21.7007 28.0038C21.3463 27.5419 21.1695 27.0163 21.167 26.4382C21.1601 24.9594 21.1632 23.4807 21.1638 22.0019C21.1638 21.9625 21.1782 21.9238 21.1888 21.8682H23.0338C23.0388 21.9844 23.0476 22.0938 23.0482 22.2038C23.0488 23.5369 23.0476 24.8694 23.0488 26.2025C23.0495 26.905 23.3051 27.1582 24.0107 27.1625C24.5151 27.1657 24.5151 27.1657 24.6813 26.7025C25.2113 25.2263 26.7682 24.2413 28.4563 24.3144C30.017 24.3819 31.4632 25.5707 31.8682 27.1194C31.912 27.2875 31.9563 27.4563 32.0001 27.6244Z" fill="#FF782D"/>
<path d="M19.6539 29.1265C19.1883 30.789 17.6433 31.9384 15.9295 31.8934C14.132 31.8459 12.6601 30.6365 12.2864 28.8671C12.077 27.8784 12.2589 26.9446 12.797 26.0852C13.3289 25.2352 14.1001 24.704 15.0689 24.4165V21.8652H16.9345V24.414C18.1651 24.7846 19.0614 25.539 19.5345 26.7384C19.8401 27.5146 19.8808 28.3165 19.6539 29.1265Z" fill="#FF782D"/>
</g>
<defs>
<clipPath id="clip0_1149_4534">
<rect width="32" height="32" fill="white" transform="translate(0 0.5)"/>
</clipPath>
</defs>
</svg>
