<svg width="32" height="33" viewBox="0 0 32 33" fill="none" xmlns="http://www.w3.org/2000/svg">
<g clip-path="url(#clip0_1149_4091)">
<path d="M3.42374 15.7755C1.01959 13.7854 0.942242 10.8634 1.91592 8.97615C2.98241 6.90596 5.19547 5.73573 7.54957 6.05422C9.54606 6.32449 11.6344 7.8032 12.1677 10.5632C12.6554 6.9915 14.5673 4.79482 18.2727 4.57006C20.8725 4.41263 23.1829 6.0433 24.1384 8.42835C25.062 10.7342 24.5852 13.6807 22.1574 15.6399C22.2302 15.6808 22.293 15.72 22.3585 15.7509C23.7799 16.4134 24.557 17.5299 24.5761 19.0951C24.608 21.7404 24.6052 24.3857 24.5788 27.031C24.557 29.1685 22.9746 30.7073 20.8434 30.7091C15.5874 30.7136 10.3323 30.7136 5.07626 30.7091C2.9269 30.7073 1.34172 29.1576 1.32534 27.01C1.30532 24.3757 1.30532 21.7422 1.32716 19.1078C1.33899 17.6892 1.99235 16.6154 3.22446 15.9002C3.28998 15.8619 3.35368 15.8192 3.42374 15.7755ZM18.4156 13.6216C20.0162 13.6152 21.3175 12.3112 21.3129 10.7178C21.3084 9.10992 19.9862 7.80411 18.3737 7.81685C16.784 7.82959 15.4755 9.15906 15.4937 10.7433C15.5128 12.3485 16.8113 13.6279 18.4156 13.6216ZM8.9482 11.4631C8.95457 10.2519 7.98727 9.27099 6.78155 9.26553C5.58948 9.26007 4.59124 10.2574 4.59306 11.4513C4.59488 12.6424 5.55855 13.6116 6.75243 13.6216C7.96998 13.6325 8.94092 12.677 8.9482 11.4631ZM7.15282 25.6178C6.69874 25.6178 6.24467 25.6114 5.79059 25.6196C5.28646 25.6287 4.97616 25.9053 4.96979 26.3367C4.96342 26.7844 5.27736 27.0765 5.79787 27.0801C6.6951 27.0874 7.59143 27.0874 8.48867 27.0801C8.98551 27.0756 9.30855 26.7853 9.31765 26.363C9.32675 25.9308 8.99188 25.6278 8.48047 25.6196C8.03823 25.6123 7.59507 25.6178 7.15282 25.6178ZM10.5033 15.4297C11.8246 15.4297 13.0768 15.4297 14.4062 15.4297C13.175 14.3541 12.5007 13.0392 12.2405 11.4995C12.1977 13.0319 11.6126 14.3168 10.5033 15.4297Z" fill="#FF782D"/>
<path d="M33.3064 23.0788C33.3064 24.4984 33.3146 25.917 33.3036 27.3366C33.2927 28.7498 32.2699 29.7362 30.9177 29.6106C30.581 29.5797 30.2325 29.4423 29.934 29.2748C28.6992 28.5796 27.4825 27.8507 26.255 27.1437C26.0857 27.0463 26.0293 26.9353 26.0293 26.7424C26.0357 24.3018 26.0357 21.8603 26.0293 19.4198C26.0284 19.2278 26.083 19.1149 26.2532 19.0176C27.4816 18.3105 28.7001 17.5871 29.9295 16.881C31.5337 15.9592 33.2864 16.9665 33.3036 18.8238C33.3173 20.2406 33.3064 21.6601 33.3064 23.0788Z" fill="#FF782D"/>
</g>
<defs>
<clipPath id="clip0_1149_4091">
<rect width="32" height="32" fill="white" transform="translate(0 0.5)"/>
</clipPath>
</defs>
</svg>
