<svg width="32" height="33" viewBox="0 0 32 33" fill="none" xmlns="http://www.w3.org/2000/svg">
<g clip-path="url(#clip0_1149_530)">
<path d="M31.9242 21.8442C31.7667 23.1367 30.865 24.135 29.5975 24.4183C27.87 24.805 26.1425 23.4892 26.0708 21.7183C26.0608 21.48 25.9817 21.3817 25.7658 21.3C24.2233 20.7175 22.6858 20.12 21.1183 19.5158C20.615 20.345 19.9683 21.035 19.1367 21.5617C19.1675 21.6517 19.1883 21.73 19.22 21.8042C19.8617 23.3242 20.5067 24.8425 21.1458 26.3633C21.215 26.5275 21.28 26.6267 21.4967 26.6292C23.0208 26.65 24.2667 27.7733 24.3983 29.225C24.5408 30.8017 23.5758 32.1142 22.0333 32.4433C21.9858 32.4542 21.9408 32.4808 21.895 32.5H21.0217C20.9658 32.4783 20.9108 32.4492 20.8533 32.4367C19.3175 32.09 18.3317 30.6283 18.5775 29.0667C18.685 28.3808 19.0242 27.825 19.5258 27.35C18.835 25.7167 18.1508 24.0917 17.4525 22.4725C17.4233 22.405 17.2542 22.3458 17.165 22.3625C16.2517 22.5317 15.3358 22.5533 14.4517 22.2667C13.7683 22.0458 13.1183 21.7233 12.45 21.445C11.3567 22.5392 10.22 23.6767 9.075 24.8217C9.10417 24.8717 9.14583 24.9425 9.18833 25.0133C10.7567 27.6142 9.5825 31.0675 6.74417 32.1617C6.3425 32.3167 5.90833 32.3892 5.48917 32.5H4.42917C4.37 32.4817 4.3125 32.4575 4.2525 32.4467C2.135 32.0708 0.7775 30.8425 0.16 28.79C0.095 28.575 0.0525 28.3525 0 28.1333V27.0108C0.106667 26.6 0.1775 26.1758 0.326667 25.7817C1.4125 22.9142 4.89583 21.7317 7.515 23.3292C7.57667 23.3667 7.64 23.4017 7.68 23.425C8.82667 22.2792 9.96417 21.1425 11.1233 19.9842C10.4633 19.0308 10.0725 17.955 10.0292 16.7608C9.98667 15.5775 10.2725 14.4783 10.8858 13.4433C10.0033 12.6933 9.135 11.955 8.27167 11.2217C6.16583 12.6242 3.95167 11.8133 2.88583 10.5025C1.675 9.01415 1.7125 6.86249 2.97417 5.42999C4.2625 3.96665 6.375 3.64249 8.0125 4.64999C9.4825 5.55332 10.49 7.61082 9.485 9.78332C9.9125 10.1475 10.3458 10.5175 10.7792 10.8858C11.2142 11.2558 11.6483 11.6242 12.0808 11.9917C14.4717 10.2142 16.9142 10.1108 19.4683 11.6842C19.52 11.6367 19.5967 11.5717 19.6675 11.5017C21.2483 9.92165 22.8258 8.33915 24.4125 6.76499C24.5725 6.60582 24.5817 6.49665 24.4833 6.29082C23.7533 4.76665 23.9042 3.30499 24.9658 2.00332C26.0175 0.713322 27.4283 0.274155 29.0233 0.712488C30.6275 1.15332 31.6158 2.25749 31.8775 3.91249C32.125 5.47665 31.575 6.77416 30.2908 7.69415C29.0125 8.61082 27.6225 8.70332 26.1958 8.01582C26.0525 7.94749 25.95 7.87082 25.7925 8.02999C24.1683 9.66916 22.5333 11.2975 20.9025 12.93C20.8675 12.9658 20.84 13.0092 20.8017 13.06C21.7933 14.4833 22.1083 16.05 21.795 17.7633C22.3233 17.9658 22.8358 18.1608 23.3467 18.3583C24.4025 18.765 25.4583 19.1692 26.5108 19.5833C26.67 19.6458 26.76 19.6267 26.8833 19.5017C27.82 18.5533 29.1092 18.3342 30.2883 18.9075C31.41 19.4525 32.07 20.6383 31.9242 21.8442Z" fill="#FF782D"/>
</g>
<defs>
<clipPath id="clip0_1149_530">
<rect width="32" height="32" fill="white" transform="translate(0 0.5)"/>
</clipPath>
</defs>
</svg>
