<svg width="32" height="33" viewBox="0 0 32 33" fill="none" xmlns="http://www.w3.org/2000/svg">
<path d="M27.9384 6.46613C27.9367 6.22946 27.8992 5.98863 27.8417 5.75863C27.4592 4.21196 26.1817 3.22946 24.5292 3.22196C22.5434 3.21363 20.5584 3.2203 18.5726 3.2203C14.1959 3.2203 9.82006 3.21613 5.4434 3.22196C3.43673 3.22446 1.9934 4.64363 1.99173 6.6153C1.98673 12.5628 1.9884 18.5103 1.99423 24.4578C1.99423 24.7353 2.02423 25.0203 2.09006 25.2895C2.45923 26.8111 3.73173 27.827 5.3334 27.8328C9.1484 27.8478 12.9634 27.8378 16.7792 27.8378C16.8401 27.8378 16.9017 27.8286 17.0117 27.8203C17.0117 27.7153 17.0176 27.6336 17.0109 27.5536C16.9276 26.5195 17.2284 25.5995 17.7542 24.712C19.0026 22.6028 20.2059 20.467 21.4434 18.3511C21.7609 17.807 22.0751 17.2786 21.9609 16.6128C21.9584 16.5961 21.9751 16.5761 21.9967 16.5236C22.4942 16.6853 22.6301 16.2895 22.8151 15.962C22.8609 15.8811 22.9076 15.8003 22.9542 15.7186C23.1742 15.3353 23.3942 14.9528 23.6434 14.5203H21.9792V10.552H25.9367C25.9451 10.7136 25.9517 10.8611 25.9584 10.9903C26.2892 10.8686 26.5901 10.7186 26.9084 10.652C27.2367 10.5836 27.5809 10.5978 27.9351 10.5745C27.9384 10.5278 27.9442 10.4778 27.9442 10.4278C27.9442 9.10696 27.9476 7.78613 27.9384 6.46613ZM7.95506 25.8211C6.98506 25.8211 6.0209 25.8536 5.0609 25.8086C4.51923 25.7828 4.03756 25.2545 4.0059 24.6936C3.9659 23.982 3.9959 23.2653 3.9959 22.5236H7.95506V25.8211ZM7.95673 20.5011H4.00423V16.5428H7.95673V20.5011ZM7.9634 14.5061H4.0084V10.5511H7.9634V14.5061ZM7.9634 8.5228H3.98673V7.86113C3.98673 7.41446 3.97923 6.9678 3.98923 6.52113C4.00256 5.8878 4.4584 5.28363 5.0584 5.25113C6.01923 5.19946 6.98423 5.23696 7.9634 5.23696V8.5228ZM18.5167 17.0853C17.1842 17.8495 15.8559 18.6195 14.5251 19.3878C14.1659 19.5953 13.8067 19.8045 13.4467 20.0103C12.3542 20.6345 11.3026 20.032 11.2984 18.7786C11.2951 17.802 11.2976 16.8253 11.2976 15.8478C11.2976 14.882 11.2959 13.9153 11.2984 12.9486C11.3017 11.6895 12.3534 11.0853 13.4434 11.7136C15.1426 12.6936 16.8409 13.6761 18.5409 14.6545C18.9967 14.917 19.2767 15.2886 19.2876 15.8295C19.2984 16.4103 19.0059 16.8045 18.5167 17.0853ZM25.9484 8.51446H21.9667V5.23946C22.0567 5.23196 22.1451 5.2178 22.2334 5.2178C22.9917 5.21613 23.7501 5.21363 24.5084 5.2178C25.4092 5.2228 25.9442 5.75696 25.9476 6.65113C25.9501 7.26446 25.9484 7.87696 25.9484 8.51446Z" fill="#FF782D"/>
<path d="M25.0833 14.6953C23.0475 18.2228 21.0225 21.7311 18.9858 25.2595C20.1558 25.9345 21.2917 26.5903 22.4458 27.2561C24.4867 23.7211 26.5117 20.2128 28.5433 16.692C27.37 16.0145 26.24 15.3628 25.0833 14.6953ZM25.235 19.7303C25.0433 20.0411 24.6608 20.1003 24.3558 19.9161C24.0675 19.7411 23.9375 19.3828 24.1033 19.0761C24.4383 18.4553 24.7892 17.842 25.1667 17.2461C25.2642 17.0928 25.4842 17.0161 25.6483 16.9045C26.1758 16.9545 26.5217 17.4553 26.2925 17.8978C25.9675 18.5236 25.6058 19.1311 25.235 19.7303Z" fill="#FF782D"/>
<path d="M27.9442 24.4122C27.9375 26.3855 26.53 27.8089 24.56 27.838C24.2809 27.8414 24.0017 27.838 23.645 27.838C24.0392 27.1555 24.3984 26.5272 24.7675 25.9055C24.8025 25.8472 24.9 25.8172 24.9742 25.7905C25.6184 25.5639 25.9625 25.1139 25.94 24.4314C25.9267 24.0189 26.0334 23.6722 26.2442 23.3222C26.8042 22.3914 27.3367 21.443 27.9217 20.4297C27.9325 20.5955 27.9442 20.6814 27.9442 20.7672C27.945 21.9822 27.9475 23.1972 27.9442 24.4122Z" fill="#FF782D"/>
<path d="M29.796 14.5099C29.6235 14.8507 29.4185 15.1749 29.2102 15.5382C28.041 14.864 26.9043 14.2082 25.7468 13.5407C25.971 13.1607 26.1602 12.7907 26.3943 12.4532C26.7643 11.9207 27.4743 11.7565 28.0585 12.0615C28.4902 12.2865 28.9127 12.5307 29.3235 12.7915C29.916 13.1665 30.1127 13.8857 29.796 14.5099Z" fill="#FF782D"/>
<path d="M21.6967 28.3636C21.5009 28.507 21.3534 28.6378 21.1859 28.7336C20.5917 29.0736 19.9951 29.4095 19.3917 29.7328C18.9392 29.9761 18.4209 29.7636 18.3926 29.2836C18.3434 28.4353 18.3634 27.5828 18.3584 26.7311C18.3584 26.662 18.3926 26.5911 18.4234 26.4736C19.5234 27.1086 20.5876 27.7236 21.6967 28.3636Z" fill="#FF782D"/>
</svg>
