<svg width="16" height="16" viewBox="0 0 16 16" fill="none" xmlns="http://www.w3.org/2000/svg">
<path d="M5.33333 0H1.33333C0.979711 0 0.640573 0.140476 0.390524 0.390524C0.140476 0.640573 0 0.979711 0 1.33333V5.33333C0 5.68696 0.140476 6.02609 0.390524 6.27614C0.640573 6.52619 0.979711 6.66667 1.33333 6.66667H5.33333C5.68696 6.66667 6.02609 6.52619 6.27614 6.27614C6.52619 6.02609 6.66667 5.68696 6.66667 5.33333V1.33333C6.66667 0.979711 6.52619 0.640573 6.27614 0.390524C6.02609 0.140476 5.68696 0 5.33333 0ZM5.33333 5.33333H1.33333V1.33333H5.33333V5.33333ZM14.6667 0H10.6667C10.313 0 9.97391 0.140476 9.72386 0.390524C9.47381 0.640573 9.33333 0.979711 9.33333 1.33333V5.33333C9.33333 5.68696 9.47381 6.02609 9.72386 6.27614C9.97391 6.52619 10.313 6.66667 10.6667 6.66667H14.6667C15.0203 6.66667 15.3594 6.52619 15.6095 6.27614C15.8595 6.02609 16 5.68696 16 5.33333V1.33333C16 0.979711 15.8595 0.640573 15.6095 0.390524C15.3594 0.140476 15.0203 0 14.6667 0ZM14.6667 5.33333H10.6667V1.33333H14.6667V5.33333ZM5.33333 9.33333H1.33333C0.979711 9.33333 0.640573 9.47381 0.390524 9.72386C0.140476 9.97391 0 10.313 0 10.6667V14.6667C0 15.0203 0.140476 15.3594 0.390524 15.6095C0.640573 15.8595 0.979711 16 1.33333 16H5.33333C5.68696 16 6.02609 15.8595 6.27614 15.6095C6.52619 15.3594 6.66667 15.0203 6.66667 14.6667V10.6667C6.66667 10.313 6.52619 9.97391 6.27614 9.72386C6.02609 9.47381 5.68696 9.33333 5.33333 9.33333ZM5.33333 14.6667H1.33333V10.6667H5.33333V14.6667ZM14.6667 9.33333H10.6667C10.313 9.33333 9.97391 9.47381 9.72386 9.72386C9.47381 9.97391 9.33333 10.313 9.33333 10.6667V14.6667C9.33333 15.0203 9.47381 15.3594 9.72386 15.6095C9.97391 15.8595 10.313 16 10.6667 16H14.6667C15.0203 16 15.3594 15.8595 15.6095 15.6095C15.8595 15.3594 16 15.0203 16 14.6667V10.6667C16 10.313 15.8595 9.97391 15.6095 9.72386C15.3594 9.47381 15.0203 9.33333 14.6667 9.33333ZM14.6667 14.6667H10.6667V10.6667H14.6667V14.6667Z" fill="black"/>
</svg>
