<svg width="18" height="16" viewBox="0 0 18 16" fill="none" xmlns="http://www.w3.org/2000/svg">
<path d="M0.5 16C0.366667 16 0.25 15.95 0.15 15.85C0.0500001 15.75 0 15.6333 0 15.5C0 15.3667 0.0500001 15.25 0.15 15.15C0.25 15.05 0.366667 15 0.5 15H2V14.5H1.5C1.36667 14.5 1.25 14.45 1.15 14.35C1.05 14.25 1 14.1333 1 14C1 13.8667 1.05 13.75 1.15 13.65C1.25 13.55 1.36667 13.5 1.5 13.5H2V13H0.5C0.366667 13 0.25 12.95 0.15 12.85C0.0500001 12.75 0 12.6333 0 12.5C0 12.3667 0.0500001 12.25 0.15 12.15C0.25 12.05 0.366667 12 0.5 12H2.5C2.63333 12 2.75 12.05 2.85 12.15C2.95 12.25 3 12.3667 3 12.5V15.5C3 15.6333 2.95 15.75 2.85 15.85C2.75 15.95 2.63333 16 2.5 16H0.5ZM1.5 4C1.36667 4 1.25 3.95 1.15 3.85C1.05 3.75 1 3.63333 1 3.5V1H0.5C0.366667 1 0.25 0.95 0.15 0.85C0.0500001 0.75 0 0.633333 0 0.5C0 0.366667 0.0500001 0.25 0.15 0.15C0.25 0.0500001 0.366667 0 0.5 0H1.5C1.63333 0 1.75 0.0500001 1.85 0.15C1.95 0.25 2 0.366667 2 0.5V3.5C2 3.63333 1.95 3.75 1.85 3.85C1.75 3.95 1.63333 4 1.5 4ZM0.5 10C0.366667 10 0.25 9.95 0.15 9.85C0.0500001 9.75 0 9.63333 0 9.5V9.275C0 9.20833 0.0416667 9.1 0.125 8.95L1.8 7H0.5C0.366667 7 0.25 6.95 0.15 6.85C0.0500001 6.75 0 6.63333 0 6.5C0 6.36667 0.0500001 6.25 0.15 6.15C0.25 6.05 0.366667 6 0.5 6H2.5C2.63333 6 2.75 6.05 2.85 6.15C2.95 6.25 3 6.36667 3 6.5V6.725C3 6.79167 2.95833 6.9 2.875 7.05L1.2 9H2.5C2.63333 9 2.75 9.05 2.85 9.15C2.95 9.25 3 9.36667 3 9.5C3 9.63333 2.95 9.75 2.85 9.85C2.75 9.95 2.63333 10 2.5 10H0.5ZM6 15C5.71667 15 5.47933 14.904 5.288 14.712C5.096 14.5207 5 14.2833 5 14C5 13.7167 5.096 13.4793 5.288 13.288C5.47933 13.096 5.71667 13 6 13H17C17.2833 13 17.5207 13.096 17.712 13.288C17.904 13.4793 18 13.7167 18 14C18 14.2833 17.904 14.5207 17.712 14.712C17.5207 14.904 17.2833 15 17 15H6ZM6 9C5.71667 9 5.47933 8.904 5.288 8.712C5.096 8.52067 5 8.28333 5 8C5 7.71667 5.096 7.479 5.288 7.287C5.47933 7.09567 5.71667 7 6 7H17C17.2833 7 17.5207 7.09567 17.712 7.287C17.904 7.479 18 7.71667 18 8C18 8.28333 17.904 8.52067 17.712 8.712C17.5207 8.904 17.2833 9 17 9H6ZM6 3C5.71667 3 5.47933 2.90433 5.288 2.713C5.096 2.521 5 2.28333 5 2C5 1.71667 5.096 1.479 5.288 1.287C5.47933 1.09567 5.71667 1 6 1H17C17.2833 1 17.5207 1.09567 17.712 1.287C17.904 1.479 18 1.71667 18 2C18 2.28333 17.904 2.521 17.712 2.713C17.5207 2.90433 17.2833 3 17 3H6Z" fill="black"/>
</svg>
